<svg xmlns="http://www.w3.org/2000/svg" xmlns:xlink="http://www.w3.org/1999/xlink" viewBox="0 0 176.49 121.81"><defs><style>.cls-1,.cls-2,.cls-3,.cls-4,.cls-5,.cls-6{fill-rule:evenodd;}.cls-1{fill:url(#linear-gradient);}.cls-2{fill:url(#linear-gradient-2);}.cls-3{fill:url(#linear-gradient-3);}.cls-4{fill:#db1dcd;}.cls-5{fill:url(#linear-gradient-4);}.cls-6{fill:url(#linear-gradient-5);}</style><linearGradient id="linear-gradient" x1="88.21" x2="88.21" y2="95.13" gradientUnits="userSpaceOnUse"><stop offset="0.02" stop-color="#ff94f2"/><stop offset="1" stop-color="#ef35b1"/></linearGradient><linearGradient id="linear-gradient-2" x1="52.38" y1="14.03" x2="52.38" y2="92.49" xlink:href="#linear-gradient"/><linearGradient id="linear-gradient-3" x1="124.07" y1="14.03" x2="124.07" y2="92.49" xlink:href="#linear-gradient"/><linearGradient id="linear-gradient-4" x1="154.09" y1="20.98" x2="154.09" y2="91.64" xlink:href="#linear-gradient"/><linearGradient id="linear-gradient-5" x1="22.38" y1="20.98" x2="22.38" y2="91.64" xlink:href="#linear-gradient"/></defs><g id="Layer_2" data-name="Layer 2"><g id="Layer_1-2" data-name="Layer 1"><path class="cls-1" d="M88.21,95.13l-.08,0H88l-.12,0-.08,0-.4-.14-.4-.17-.36-.17-.4-.17-.37-.2-.4-.2-.37-.2-.36-.2-.34-.23-.37-.22-.37-.23-.34-.25L83,92.38l-.34-.23-.34-.28L82,91.62l-.34-.29-.34-.25L81,90.79l-.32-.31-.34-.28L80,89.91l-.28-.31L79.11,89l-.59-.62L78,87.7l-.54-.65-.56-.68-.51-.68L75.83,85l-.49-.71-.48-.71-.48-.7L74,82.18l-.46-.74-.39-.71L72.68,80l-.37-.76-.4-.74-.36-.76L71.21,77l-.34-.76-.32-.77-.31-.79-.28-.8-.28-.79-.29-.79-.25-.8-.23-.82-.23-.79L68.46,69l-.2-.82-.17-.82-.17-.82-.14-.82-.12-.83-.11-.85-.11-.82-.09-.85-.06-.82-.08-.85,0-.82-.06-.85,0-.85v-.83l0-.85v-.85l0-.85V54l0-.85,0-.85,0-.85.06-.82.05-.85.06-.85.06-.85.08-.83.09-.85.08-.82.09-.85.11-.82.11-.85.15-.82.11-.83.17-.85.14-.82.17-.82.17-.82.2-.8.2-.82.2-.82.22-.79.23-.83.23-.79.25-.79.26-.83.28-.79.28-.76.29-.8.28-.79.31-.8.32-.76.31-.79.62-1.56L74,23l.68-1.56.68-1.53.68-1.53.37-.77.37-.76.37-.77.37-.76.36-.74.4-.77.4-.73.42-.74.4-.71.43-.74.45-.71.45-.7.46-.71.48-.71.48-.68.51-.68.51-.65.51-.68,2.1-2.67.51-.65.51-.68.48-.68.26-.34.14-.14.05-.09A.65.65,0,0,1,88.21,0a.6.6,0,0,1,.37.14l.06.09.14.14L89,.71l.51.68.51.68.51.65,2.1,2.67.51.68.51.65.51.68.48.68.48.71.45.71.46.7.45.71.43.74.39.71.43.74.4.73.36.77.4.74.37.76.37.77.37.76.34.77.71,1.53.68,1.53.68,1.56.65,1.56.65,1.56.31.79.31.76.32.8.28.79.28.8.29.76.28.79.25.83.26.79.23.79.22.83.23.79.2.82.2.82.19.8.17.82.17.82.15.82.14.85.14.83.14.82.12.85.11.82.08.85.09.82.08.85.09.83.06.85,0,.85.06.85,0,.82,0,.85,0,.85,0,.85v3.37l0,.83,0,.85,0,.85-.06.82-.06.85,0,.82-.09.85-.11.82-.12.85-.14.83-.14.82-.14.82-.2.82L108,69l-.23.83-.22.79-.23.82-.26.8-.28.79-.28.79-.29.8-.31.79-.31.77-.34.76-.37.77-.34.76-.4.74-.36.76-.43.74-.4.71-.45.74-.45.71-.46.7-.48.71-.48.71-.51.68-.54.68-.54.68-.54.65-.59.66-.57.62-.62.62-.31.31-.32.29-.31.28-.31.31-.34.29-.31.25-.34.29-.34.25-.34.28-.34.23-.34.26-.34.25-.37.23-.37.22-.37.23-.37.2-.36.2-.37.2-.37.2-.4.17-.37.17-.39.17-.4.14-.11,0-.09,0h-.11Z"/><path class="cls-2" d="M39,14l-.2,1.25-.17,1.25-.2,1.24-.17,1.28L38,20.3l-.17,1.24-.17,1.28-.14,1.25-.11,1.27-.12,1.25-.11,1.27-.09,1.28-.08,1.25L37,31.66l-.05,1.28,0,1.27-.06,1.25v1.28l0,1.27v1.28l0,1.25,0,1.27.06,1.28L37,44.36l.09,1.25.08,1.28.12,1.27.14,1.25.14,1.27.17,1.25.17,1.28.23,1.24.22,1.28L38.55,57l.28,1.24.32,1.22.31,1.25.34,1.22.37,1.22.39,1.22L41,65.54l.45,1.19L42,67.89l.54,1.16L43,70.19l.6,1.13.59,1.11.62,1.1.66,1.11.68,1.07.68,1.11.71,1.05.73,1.07L49,80l.79,1,.83,1,.85.94.9.9,1,.85,1,.8,1,.76,1.08.74,1.07.68,1.11.65,1.13.62,1.14.57,1.16.57,1.16.51,1.19.51,1.19.48,1.19.48,1.19.48-.25-.56-.79-1-.77-1-.74-1-.65-1.07-.62-1.14-.57-1.13L63,84.39l-.54-1.16L62,82.06l-.48-1.16L61,79.71l-.45-1.19-.43-1.19-.4-1.22-.36-1.19-.34-1.22-.32-1.25-.28-1.24L58.2,70,58,68.71l-.2-1.25-.17-1.27-.14-1.25-.09-1.27-.11-1.28-.06-1.25-.06-1.27,0-1.28,0-1.25V56.07l0-1.28V53.52l0-1.25L57.23,51l0-1.28.08-1.28.09-1.24.11-1.28.15-1.25.14-1.27L58,42.15l.2-1.25.19-1.27.23-1.25.26-1.25.25-1.24.26-1.22.28-1.25L60,32.17,60.26,31l.34-1.21.32-1.25A111.1,111.1,0,0,0,39,14Z"/><path class="cls-3" d="M137.51,14l.17,1.25.2,1.25.2,1.24.17,1.28.17,1.25.17,1.24.14,1.28.14,1.25.14,1.27.11,1.25.12,1.27.08,1.28.09,1.25.08,1.27.06,1.28,0,1.27,0,1.25,0,1.28,0,1.27,0,1.28v1.25l0,1.27-.06,1.28-.06,1.27-.08,1.25-.09,1.28-.11,1.27-.14,1.25-.14,1.27-.17,1.25-.2,1.28-.2,1.24-.23,1.28L137.88,57l-.26,1.24-.31,1.22L137,60.69l-.34,1.22-.37,1.22-.43,1.22-.42,1.19L135,66.73l-.49,1.16L134,69.05l-.54,1.14-.6,1.13-.59,1.11-.66,1.1L131,74.64l-.68,1.07-.68,1.11-.71,1.05-.74,1.07-.73,1-.8,1-.82,1-.88.94-.88.9-1,.85-1,.8-1,.76-1,.74-1.08.68-1.1.65-1.14.62-1.13.57-1.16.57-1.17.51-1.19.51-1.19.48-1.19.48-1.19.48.23-.56.82-1,.77-1,.73-1,.66-1.07.62-1.14.57-1.13.53-1.16.54-1.16.51-1.17.48-1.16.49-1.19.45-1.19.43-1.19.39-1.22.37-1.19.34-1.22.31-1.25.29-1.24.25-1.25.2-1.25.2-1.25.17-1.27.11-1.25.12-1.27.08-1.28.09-1.25,0-1.27,0-1.28V53.52l0-1.25,0-1.27-.06-1.28-.06-1.28L119,47.2l-.12-1.28-.14-1.25-.14-1.27-.17-1.25-.2-1.25-.2-1.27-.22-1.25-.26-1.25-.25-1.24-.26-1.22-.28-1.25-.31-1.25L116.19,31l-.34-1.21-.31-1.25a111.1,111.1,0,0,1,22-14.46Z"/><path class="cls-4" d="M72.41,102.49a5.08,5.08,0,0,0-2,1.49,3.49,3.49,0,0,0-.51,1.77,7.19,7.19,0,0,0,1,3.85,14.87,14.87,0,0,0,2.62,3.31,38,38,0,0,0,7.74,5.75,36,36,0,0,0,5.57,2.65c.51.17,1,.32,1.52.5l1.54-.5a40.64,40.64,0,0,0,13.31-8.4,16.46,16.46,0,0,0,2.62-3.31,7.19,7.19,0,0,0,1-3.85,3.49,3.49,0,0,0-.51-1.77,5.08,5.08,0,0,0-2-1.49H72.41Z"/><polygon class="cls-4" points="38.67 95.13 39.22 95.38 39.73 95.64 40.23 95.86 40.76 96.11 41.26 96.34 41.62 96.52 42.3 96.82 42.83 97.07 43.33 97.3 43.86 97.53 44.39 97.73 44.89 97.95 45.45 98.16 46.03 98.36 46.51 98.51 47.06 98.66 47.62 98.81 48.15 98.96 48.7 99.09 49.26 99.22 49.81 99.34 50.42 99.47 50.92 99.59 51.48 99.69 52.03 99.82 52.59 99.95 53.14 100.07 53.7 100.2 54.12 100.3 54.8 100.48 55.36 100.63 55.91 100.75 56.47 100.88 57.02 101.01 57.58 101.11 58.13 101.21 58.69 101.31 59.27 101.36 59.82 101.41 60.4 101.46 60.96 101.51 60.96 110.66 60.38 110.94 59.82 111.19 59.24 111.45 58.66 111.72 58.08 111.95 57.5 112.2 56.9 112.43 56.32 112.63 55.71 112.83 55.13 113.03 54.53 113.19 53.92 113.34 53.29 113.49 52.69 113.61 52.06 113.72 51.43 113.84 50.82 113.92 50.19 114.02 49.56 114.09 48.9 114.17 48.27 114.25 47.64 114.3 47.01 114.35 46.38 114.4 45.75 114.42 45.12 114.45 44.49 114.45 43.86 114.42 43.23 114.4 42.6 114.35 41.97 114.25 41.36 114.14 40.76 114.04 40.13 113.89 39.52 113.72 38.92 113.54 38.34 113.36 37.73 113.16 37.13 112.93 36.52 112.71 35.94 112.48 35.34 112.25 34.76 112 34.15 111.75 33.57 111.5 32.99 111.22 32.44 110.94 31.88 110.64 31.35 110.31 30.82 109.98 30.34 109.61 29.86 109.23 29.39 108.82 28.96 108.39 28.53 107.94 28.1 107.49 27.7 107.01 27.29 106.5 26.91 106 26.51 105.5 26.13 104.97 25.73 104.46 25.35 103.93 24.97 103.38 24.65 102.85 24.34 102.29 24.07 101.71 23.86 101.13 23.74 100.53 23.69 99.92 24.02 99.59 24.65 99.52 25.25 99.44 25.88 99.34 26.49 99.22 27.12 99.06 27.72 98.89 28.33 98.71 28.93 98.51 29.51 98.31 30.12 98.08 30.7 97.85 31.28 97.6 31.86 97.38 32.46 97.15 33.04 96.9 33.62 96.67 34.2 96.47 34.81 96.24 35.41 96.06 36.02 95.86 36.62 95.69 37.23 95.53 37.83 95.36 38.67 95.13"/><polygon class="cls-4" points="138.09 95.13 137.54 95.38 137.04 95.64 136.53 95.86 136 96.11 135.5 96.34 135.12 96.52 134.46 96.82 133.93 97.07 133.43 97.3 132.9 97.53 132.37 97.73 131.84 97.95 131.31 98.16 130.73 98.36 130.25 98.51 129.7 98.66 129.14 98.81 128.59 98.96 128.06 99.09 127.5 99.22 126.95 99.34 126.34 99.47 125.81 99.59 125.26 99.69 124.7 99.82 124.15 99.95 123.59 100.07 123.04 100.2 122.64 100.3 121.96 100.48 121.4 100.63 120.85 100.75 120.29 100.88 119.74 101.01 119.18 101.11 118.63 101.21 118.05 101.31 117.49 101.36 116.94 101.41 116.36 101.46 115.8 101.51 115.8 110.66 116.36 110.94 116.94 111.19 117.52 111.45 118.1 111.72 118.68 111.95 119.26 112.2 119.84 112.43 120.44 112.63 121.02 112.83 121.63 113.03 122.23 113.19 122.84 113.34 123.47 113.49 124.07 113.61 124.7 113.72 125.31 113.84 125.94 113.92 126.57 114.02 127.2 114.09 127.83 114.17 128.46 114.25 129.12 114.3 129.75 114.35 130.38 114.4 131.01 114.42 131.64 114.45 132.27 114.45 132.9 114.42 133.53 114.4 134.16 114.35 134.77 114.25 135.4 114.14 136 114.04 136.61 113.89 137.21 113.72 137.82 113.54 138.42 113.36 139.03 113.16 139.63 112.93 140.24 112.71 140.82 112.48 141.42 112.25 142 112 142.61 111.75 143.19 111.5 143.77 111.22 144.32 110.94 144.88 110.64 145.41 110.31 145.91 109.98 146.42 109.61 146.9 109.23 147.35 108.82 147.8 108.39 148.23 107.94 148.66 107.49 149.06 107.01 149.47 106.5 149.85 106 150.25 105.5 150.63 104.97 151.01 104.46 151.41 103.93 151.76 103.38 152.12 102.85 152.42 102.29 152.69 101.71 152.9 101.13 153.02 100.53 153.07 99.92 152.75 99.59 152.12 99.52 151.51 99.44 150.88 99.34 150.25 99.22 149.64 99.06 149.04 98.89 148.43 98.71 147.83 98.51 147.25 98.31 146.64 98.08 146.06 97.85 145.48 97.6 144.88 97.38 144.3 97.15 143.72 96.9 143.14 96.67 142.56 96.47 141.95 96.24 141.35 96.06 140.74 95.86 140.14 95.69 139.53 95.53 138.93 95.36 138.09 95.13"/><path class="cls-5" d="M176.49,21l-.09,1.27-.09,1.28-.08,1.24-.09,1.28-.08,1.28L176,28.57l-.11,1.28-.14,1.25-.14,1.27-.14,1.25-.17,1.27-.17,1.25-.17,1.25-.2,1.27-.2,1.25-.23,1.25-.22,1.25-.26,1.24-.25,1.25-.26,1.22L173,47.37l-.32,1.24-.31,1.22-.31,1.22-.34,1.22-.37,1.22L171,54.71l-.39,1.22-.4,1.19-.45,1.22-.43,1.19-.48,1.19-.48,1.16-.51,1.19-.51,1.16-.54,1.14-.6,1.16-.59,1.1-.6,1.14-.65,1.08-.68,1.07L163,72l-.71,1-.76,1-.77,1-.82,1-.82,1-.85,1-.85.94-.88.93-.91.91-.91.91-.93.88-1,.85-1,.82-1,.76-1,.74-1.08.71-1.1.62-1.14.6-1.16.54-1.19.48-1.19.45-1.22.4-1.24.37-1.25.34-1.22.28-1.28.26L135.5,91l-1.25.23-1.28.23-1.27.19.37-.48,1-.79,1-.82.91-.88.88-.94.85-.93.79-1,.77-1,.76-1,.74-1.05.74-1,.71-1,.68-1.08.68-1.08.65-1.1.59-1.11.6-1.1.57-1.14.51-1.16.51-1.16.48-1.19.45-1.19.4-1.19.4-1.22.39-1.22.34-1.22.34-1.22.31-1.22.29-1.25.28-1.24.28-1.22.26-1.25.25-1.25.23-1.24.23-1.25.22-1.25.18-1.24.19-1.28.15-1.25.14-1.27.11-1.25L152,44.5l.08-1.27.06-1.25,0-1.27,0-1.28,0-1.28V36.91l0-1.28,0-1.27-.06-1.28L152,31.83,152,30.56A109.9,109.9,0,0,1,176.49,21Z"/><path class="cls-6" d="M0,21l.09,1.27.05,1.28.09,1.24.08,1.28L.4,27.33l.11,1.24.11,1.28L.74,31.1l.14,1.27.17,1.25.14,1.27.17,1.25.2,1.25.2,1.27L2,39.91l.22,1.25.23,1.25.25,1.24.26,1.25.25,1.22.29,1.25.28,1.24.31,1.22.34,1.22.34,1.22.37,1.22.37,1.22.4,1.22.39,1.19.43,1.22.45,1.19.46,1.19.48,1.16.51,1.19.54,1.16.54,1.14.56,1.16.6,1.1.62,1.14.65,1.08.68,1.07L13.46,72l.74,1,.74,1,.79,1,.8,1,.82,1,.85,1,.88.94.88.93.87.91.94.91.94.88.93.85,1,.82,1,.76,1,.74,1.08.71,1.11.62,1.13.6,1.16.54,1.16.48,1.22.45,1.22.4,1.22.37,1.25.34,1.25.28,1.24.26L41,91l1.25.23,1.27.23,1.25.19-.34-.48-1-.79-1-.82-.93-.88-.88-.94-.82-.93-.8-1-.79-1-.74-1-.76-1.05-.71-1-.71-1-.71-1.08L34,78.46l-.65-1.1-.63-1.11-.56-1.1L31.55,74,31,72.85l-.51-1.16-.45-1.19-.46-1.19-.42-1.19-.4-1.22-.37-1.22-.34-1.22-.34-1.22L27.41,62l-.31-1.25-.28-1.24-.26-1.22-.25-1.25-.26-1.25-.23-1.24-.22-1.25-.23-1.25-.2-1.24L25,49.55l-.14-1.25L24.72,47l-.12-1.25-.08-1.28-.09-1.27L24.38,42l-.06-1.27,0-1.28V36.91l0-1.28,0-1.27,0-1.28.05-1.25.06-1.27A109.48,109.48,0,0,0,0,21Z"/></g></g></svg>