<svg xmlns="http://www.w3.org/2000/svg" viewBox="0 0 115.92 171.47"><defs><style>.cls-1{fill:#d18c11;}.cls-2{fill:#efe8c7;}</style></defs><g id="Layer_2" data-name="Layer 2"><g id="Layer_1-2" data-name="Layer 1"><path class="cls-1" d="M47.4,171.46c-29.07.13-48.56-18.94-47.35-43.63a40.29,40.29,0,0,1,11.5-26.46c2-2.08,4.06-4.11,6.22-6,7.81-7,11.22-15.65,11.47-26.12.18-7.42.65-15.12,2.83-22.12,3.12-10,11.23-16.36,20.14-21.4C60.56,21,68,15.75,71.4,5.92,73.32.35,78-.95,84.41.62c21.64,5.29,35.47,28.2,30.5,50.62a58.75,58.75,0,0,1-15.6,29.13A89.81,89.81,0,0,0,87.39,95.81c-4.18,6.77-5.1,14.39-3.61,22.32,2.08,11.12,1,21.85-4.45,32C71.82,164.14,60.17,171.26,47.4,171.46ZM23.69,152.74C39.77,139,48.86,121,58.61,102.4c.55,1.78,1,2.36.82,2.75a166.35,166.35,0,0,1-28,49.81c10.82,1.09,20.37-.48,26.65-8.9a96.44,96.44,0,0,0,12.91-22.88c1.72-4.5,0-10.42-.64-15.65-.3-2.4-1.88-4.62-2.61-7-2.75-9-2.7-9-11.66-7.32-2.07.38-4.35-.12-6.31.5C44.69,95.28,39,96.23,35,99.28a45.71,45.71,0,0,0-17.22,27.93c-.84,4.14-.16,8.81.81,13C19.5,144.27,21.7,148,23.69,152.74Zm64-118.17C75.55,50,62.22,64.53,55.36,84.52c7.44-.63,14.47.09,20.56-2,17.57-6,28.31-27.82,23.51-45.61-.65-2.4-.44-5.11-1.42-7.32-.82-1.83-2.78-4.41-4.29-4.45-6.49-.2-13.28-.63-19.46.95C54,31.28,42,57.58,50.91,77.33A141.53,141.53,0,0,1,87.68,34.57Z"/><path class="cls-2" d="M23.69,152.74c-2-4.72-4.19-8.47-5.12-12.51-1-4.21-1.65-8.88-.81-13A45.71,45.71,0,0,1,35,99.28c4-3,9.71-4,14.74-5.58,2-.62,4.24-.12,6.31-.5,9-1.64,8.91-1.68,11.66,7.32.73,2.39,2.31,4.61,2.61,7,.64,5.23,2.36,11.15.64,15.65A96.44,96.44,0,0,1,58,146.06c-6.28,8.42-15.83,10-26.65,8.9a166.35,166.35,0,0,0,28.05-49.81c.14-.39-.27-1-.82-2.75C48.86,121,39.77,139,23.69,152.74Z"/><path class="cls-2" d="M87.68,34.57A141.53,141.53,0,0,0,50.91,77.33C42,57.58,54,31.28,74.26,26.11c6.18-1.58,13-1.15,19.46-.95,1.51,0,3.47,2.62,4.29,4.45,1,2.21.77,4.92,1.42,7.32,4.8,17.79-5.94,39.62-23.51,45.61-6.09,2.07-13.12,1.35-20.56,2C62.22,64.53,75.55,50,87.68,34.57Z"/></g></g></svg>