<?xml version="1.0" encoding="utf-8"?>
<!-- Generator: Adobe Illustrator 26.0.1, SVG Export Plug-In . SVG Version: 6.00 Build 0)  -->
<svg version="1.1" id="Layer_1" xmlns="http://www.w3.org/2000/svg" xmlns:xlink="http://www.w3.org/1999/xlink" x="0px" y="0px"
	 viewBox="0 0 112.3 121.8" style="enable-background:new 0 0 112.3 121.8;" xml:space="preserve">
<style type="text/css">
	.st0{fill:#A4D924;}
	.st1{fill:#5DC917;}
</style>
<g>
	<path class="st0" d="M85.7,56.1c-13.3,1.5-26.3,4.1-37.3,12.5C41.1,74.1,36.6,81.4,34.1,90c-2.3,7.7-2.5,15.6-2.2,23.5
		c0,0.8,0.5,2.1-0.4,2.2c-1.1,0.2-1-1.2-1.3-2c-1.9-5.8-3.9-11.6-4.5-17.7c-1.3-12.4,0.7-23.9,8.3-34.1c4.6-6.2,10.8-10.3,17.5-13.9
		c9.5-5.1,19.7-8.7,29.7-12.7c6.9-2.7,13.7-5.4,19.9-9.6c1.7-1.1,3.3-2.4,4.8-3.9c0.4-0.4,0.8-0.9,1.5-0.7c0.8,0.2,0.8,0.9,0.9,1.5
		c2.9,14.2,4.6,28.5,3.8,43.1c-0.7,11.7-3.3,22.9-9.8,32.9c-7.1,10.8-17.3,17.1-29.6,20.5c-7.1,2-14.4,2.7-21.7,2.9
		c-3.7,0.1-5.1-1-6-4.6c-4.8-17.6,0-32.6,12.4-45.4c6.7-6.9,14.9-11.3,23.9-14.2C82.7,57.1,84.2,56.6,85.7,56.1z"/>
	<path class="st1" d="M22.9,71.5c0-10.8,3.4-20.4,8.8-30c-2.3,1.5-3.2,3.3-4.3,4.9C23.5,52.3,20,58.3,17.7,65
		c-4.5,13.1-3.2,25.6,4.2,37.3c2.3,3.6,2.9,7.7,4.4,11.5c0.1,0.3,0.1,0.7,0,0.9c-0.4,0.4-0.8,0-1.2-0.2C8.6,104.5-4,87.1,1.2,64.4
		c2.3-10,6.3-19.4,10.3-28.8c3.5-8,7.3-15.9,9.7-24.3c0.8-2.8,1.4-5.7,1.6-8.7c0.1-0.8-0.4-2,0.4-2.3c1.1-0.3,2.4-0.5,3.5,0.3
		c1.5,1,3,2.1,4.4,3.1C42.1,11.5,52.4,20,61,30.5c1.3,1.5,2.4,3.2,3.6,4.8c1.2,1.6,1,2-0.9,2.8c-6.3,2.6-12.5,5.4-18.3,9
		c-9.6,6-17.7,13.4-22.1,24.2C23.3,71.4,23.2,71.4,22.9,71.5z"/>
</g>
</svg>
