<svg id="Layer_1" data-name="Layer 1" xmlns="http://www.w3.org/2000/svg" xmlns:xlink="http://www.w3.org/1999/xlink" viewBox="0 0 100 100"><defs><style>.cls-1{fill:url(#linear-gradient);}.cls-2{font-size:3.4px;font-family:ManierRegular, Manier;}.cls-13,.cls-2{fill:#fff;}.cls-3{letter-spacing:-0.02em;}.cls-4{letter-spacing:-0.01em;}.cls-5{letter-spacing:-0.02em;}.cls-6{opacity:0.88;}.cls-7{fill:#8c2222;}.cls-8{opacity:0.74;}.cls-9{opacity:0.47;}.cls-10{opacity:0.35;}.cls-11{opacity:0.19;}.cls-12{opacity:0.04;}</style><linearGradient id="linear-gradient" y1="50" x2="100" y2="50" gradientUnits="userSpaceOnUse"><stop offset="0" stop-color="#6a0a1d"/><stop offset="1" stop-color="#5f060d"/></linearGradient></defs><rect class="cls-1" width="100" height="100" transform="translate(100 0) rotate(90)"/><text class="cls-2" transform="translate(32.81 91.86)">THE <tspan class="cls-3" x="8.1" y="0">D</tspan><tspan x="10.64" y="0">ELHI </tspan><tspan class="cls-4" x="19.81" y="0">LO</tspan><tspan x="24.54" y="0">U</tspan><tspan class="cls-5" x="27.04" y="0">N</tspan><tspan x="29.53" y="0">GE</tspan></text><g class="cls-6"><path class="cls-7" d="M55.75,2.57C55.92,1.28,54.83.81,54.19,0c-.69.81-1.74,1.3-1.64,2.54-1.29-.08-1.73,1-2.54,1.63.83.67,1.3,1.76,2.58,1.57-.14,1.31.94,1.78,1.59,2.59.65-.83,1.74-1.29,1.59-2.58,1.32.14,1.75-1,2.57-1.58-.81-.69-1.31-1.75-2.59-1.6M54.18.8c1.42,1.15,1.42,1.81,0,2.94C52.73,2.56,52.73,2,54.18.8M50.83,4.16c1.16-1.45,1.69-1.44,2.92,0-1,1.36-1.71,1.54-2.92,0m3.35,3.35c-1.43-1.12-1.43-1.78,0-2.93,1.43,1.1,1.43,1.86,0,2.93m.42-3.33c1.08-1.45,1.77-1.45,2.91,0-1.06,1.33-1.65,1.58-2.91,0"/><path class="cls-7" d="M64.08,2.57C64.25,1.28,63.17.81,62.52,0c-.69.81-1.74,1.3-1.64,2.54-1.29-.08-1.72,1-2.54,1.63.83.67,1.31,1.76,2.58,1.57-.14,1.31.94,1.78,1.59,2.59C63.16,7.5,64.25,7,64.1,5.75c1.32.14,1.75-1,2.57-1.58-.81-.69-1.3-1.75-2.59-1.6M62.51.8c1.42,1.15,1.42,1.81,0,2.94C61.06,2.56,61.07,2,62.51.8M59.16,4.16c1.16-1.45,1.69-1.44,2.92,0-1,1.36-1.71,1.54-2.92,0m3.35,3.35c-1.43-1.12-1.43-1.78,0-2.93,1.43,1.1,1.43,1.86,0,2.93m.42-3.33c1.08-1.45,1.77-1.45,2.92,0-1.07,1.33-1.65,1.58-2.92,0"/><path class="cls-7" d="M72.41,2.57C72.58,1.28,71.5.81,70.85,0c-.69.81-1.74,1.3-1.64,2.54-1.29-.08-1.72,1-2.54,1.63.83.67,1.31,1.76,2.58,1.57-.13,1.31.94,1.78,1.59,2.59.65-.83,1.74-1.29,1.6-2.58,1.31.14,1.75-1,2.56-1.58-.81-.69-1.3-1.75-2.59-1.6M70.84.8c1.43,1.15,1.42,1.81,0,2.94C69.4,2.56,69.4,2,70.84.8M67.49,4.16c1.17-1.45,1.69-1.44,2.92,0-1,1.36-1.71,1.54-2.92,0m3.36,3.35c-1.43-1.12-1.43-1.78,0-2.93,1.42,1.1,1.42,1.86,0,2.93m.41-3.33c1.08-1.45,1.77-1.45,2.92,0-1.06,1.33-1.65,1.58-2.92,0"/><path class="cls-7" d="M80.75,2.57C80.91,1.28,79.83.81,79.18,0c-.68.81-1.74,1.3-1.64,2.54-1.28-.08-1.72,1-2.54,1.63.84.67,1.31,1.76,2.59,1.57-.14,1.31.94,1.78,1.59,2.59.65-.83,1.74-1.29,1.59-2.58,1.31.14,1.75-1,2.57-1.58-.82-.69-1.31-1.75-2.59-1.6M79.17.8c1.43,1.15,1.43,1.81,0,2.94C77.73,2.56,77.73,2,79.17.8M75.82,4.16c1.17-1.45,1.7-1.44,2.93,0-1,1.36-1.72,1.54-2.93,0m3.36,3.35c-1.43-1.12-1.43-1.78,0-2.93,1.43,1.1,1.43,1.86,0,2.93m.41-3.33c1.08-1.45,1.77-1.45,2.92,0-1.06,1.33-1.65,1.58-2.92,0"/><path class="cls-7" d="M89.08,2.57C89.25,1.28,88.16.81,87.51,0c-.68.81-1.73,1.3-1.63,2.54-1.29-.08-1.73,1-2.54,1.63.83.67,1.3,1.76,2.58,1.57-.14,1.31.94,1.78,1.59,2.59C88.16,7.5,89.25,7,89.1,5.75c1.32.14,1.75-1,2.57-1.58-.81-.69-1.31-1.75-2.59-1.6M87.51.8c1.42,1.15,1.42,1.81,0,2.94C86.06,2.56,86.06,2,87.51.8M84.15,4.16c1.17-1.45,1.7-1.44,2.93,0-1,1.36-1.72,1.54-2.93,0m3.36,3.35c-1.43-1.12-1.43-1.78,0-2.93,1.43,1.1,1.43,1.86,0,2.93m.41-3.33c1.09-1.45,1.77-1.45,2.92,0-1.06,1.33-1.65,1.58-2.92,0"/><path class="cls-7" d="M97.41,2.57C97.58,1.28,96.49.81,95.85,0c-.69.81-1.74,1.3-1.64,2.54-1.29-.08-1.73,1-2.54,1.63.83.67,1.3,1.76,2.58,1.57-.14,1.31.94,1.78,1.59,2.59.65-.83,1.74-1.29,1.59-2.58,1.32.14,1.75-1,2.57-1.58-.81-.69-1.31-1.75-2.59-1.6M95.84.8c1.42,1.15,1.42,1.81,0,2.94C94.39,2.56,94.39,2,95.84.8M92.49,4.16c1.16-1.45,1.69-1.44,2.92,0-1,1.36-1.71,1.54-2.92,0m3.35,3.35c-1.43-1.12-1.43-1.78,0-2.93,1.43,1.1,1.43,1.86,0,2.93m.42-3.33c1.08-1.45,1.77-1.45,2.91,0-1.06,1.33-1.65,1.58-2.91,0"/><path class="cls-7" d="M5.74,2.57C5.91,1.28,4.83.81,4.18,0,3.49.81,2.44,1.3,2.54,2.54,1.25,2.46.82,3.55,0,4.17c.83.67,1.31,1.76,2.58,1.57-.14,1.31.94,1.78,1.59,2.59C4.82,7.5,5.91,7,5.77,5.75c1.31.14,1.74-1,2.56-1.58C7.52,3.48,7,2.42,5.74,2.57M4.17.8C5.59,2,5.59,2.61,4.16,3.74,2.73,2.56,2.73,2,4.17.8M.82,4.16C2,2.71,2.51,2.72,3.74,4.14,2.71,5.5,2,5.68.82,4.16M4.17,7.51c-1.43-1.12-1.43-1.78,0-2.93,1.43,1.1,1.43,1.86,0,2.93m.42-3.33c1.08-1.45,1.77-1.45,2.92,0-1.06,1.33-1.65,1.58-2.92,0"/><path class="cls-7" d="M14.07,2.57C14.24,1.28,13.16.81,12.51,0c-.69.81-1.74,1.3-1.64,2.54-1.29-.08-1.72,1-2.54,1.63.83.67,1.31,1.76,2.58,1.57-.13,1.31.94,1.78,1.6,2.59C13.15,7.5,14.25,7,14.1,5.75c1.31.14,1.75-1,2.56-1.58-.81-.69-1.3-1.75-2.59-1.6M12.5.8c1.43,1.15,1.42,1.81,0,2.94C11.06,2.56,11.06,2,12.5.8M9.15,4.16c1.17-1.45,1.7-1.44,2.92,0-1,1.36-1.71,1.54-2.92,0m3.36,3.35c-1.43-1.12-1.43-1.78,0-2.93,1.42,1.1,1.42,1.86,0,2.93m.41-3.33c1.08-1.45,1.77-1.45,2.92,0-1.06,1.33-1.65,1.58-2.92,0"/><path class="cls-7" d="M22.41,2.57C22.57,1.28,21.49.81,20.84,0c-.68.81-1.74,1.3-1.64,2.54-1.28-.08-1.72,1-2.54,1.63.84.67,1.31,1.76,2.59,1.57-.14,1.31.94,1.78,1.59,2.59.65-.83,1.74-1.29,1.59-2.58,1.32.14,1.75-1,2.57-1.58-.82-.69-1.31-1.75-2.59-1.6M20.83.8c1.43,1.15,1.43,1.81,0,2.94C19.39,2.56,19.39,2,20.83.8M17.48,4.16c1.17-1.45,1.7-1.44,2.93,0-1,1.36-1.72,1.54-2.93,0m3.36,3.35c-1.43-1.12-1.43-1.78,0-2.93,1.43,1.1,1.43,1.86,0,2.93m.41-3.33c1.08-1.45,1.77-1.45,2.92,0-1.06,1.33-1.65,1.58-2.92,0"/><path class="cls-7" d="M30.74,2.57C30.91,1.28,29.82.81,29.17,0c-.68.81-1.73,1.3-1.63,2.54-1.29-.08-1.73,1-2.54,1.63.83.67,1.3,1.76,2.58,1.57-.14,1.31.94,1.78,1.59,2.59.65-.83,1.74-1.29,1.59-2.58,1.32.14,1.75-1,2.57-1.58-.81-.69-1.31-1.75-2.59-1.6M29.17.8c1.42,1.15,1.42,1.81,0,2.94C27.72,2.56,27.72,2,29.17.8M25.81,4.16c1.17-1.45,1.7-1.44,2.93,0-1,1.36-1.71,1.54-2.93,0m3.36,3.35c-1.43-1.12-1.43-1.78,0-2.93,1.43,1.1,1.43,1.86,0,2.93m.42-3.33c1.08-1.45,1.76-1.45,2.91,0-1.06,1.33-1.65,1.58-2.91,0"/><path class="cls-7" d="M39.07,2.57C39.24,1.28,38.16.81,37.51,0c-.69.81-1.74,1.3-1.64,2.54-1.29-.08-1.73,1-2.54,1.63.83.67,1.3,1.76,2.58,1.57-.14,1.31.94,1.78,1.59,2.59.65-.83,1.74-1.29,1.59-2.58,1.32.14,1.75-1,2.57-1.58-.81-.69-1.31-1.75-2.59-1.6M37.5.8c1.42,1.15,1.42,1.81,0,2.94C36.05,2.56,36.06,2,37.5.8M34.15,4.16c1.16-1.45,1.69-1.44,2.92,0-1,1.36-1.71,1.54-2.92,0M37.5,7.51c-1.43-1.12-1.43-1.78,0-2.93,1.43,1.1,1.43,1.86,0,2.93m.42-3.33c1.08-1.45,1.77-1.45,2.91,0-1.06,1.33-1.64,1.58-2.91,0"/><path class="cls-7" d="M47.4,2.57C47.57,1.28,46.49.81,45.84,0c-.69.81-1.74,1.3-1.64,2.54-1.29-.08-1.72,1-2.54,1.63.83.67,1.31,1.76,2.58,1.57-.14,1.31.94,1.78,1.59,2.59.65-.83,1.74-1.29,1.6-2.58,1.31.14,1.74-1,2.56-1.58-.81-.69-1.3-1.75-2.59-1.6M45.83.8c1.42,1.15,1.42,1.81,0,2.94C44.39,2.56,44.39,2,45.83.8M42.48,4.16c1.16-1.45,1.69-1.44,2.92,0-1,1.36-1.71,1.54-2.92,0m3.35,3.35c-1.43-1.12-1.43-1.78,0-2.93,1.43,1.1,1.43,1.86,0,2.93m.42-3.33c1.08-1.45,1.77-1.45,2.92,0-1.06,1.33-1.65,1.58-2.92,0"/></g><g class="cls-8"><path class="cls-7" d="M55.75,10.57c.17-1.29-.92-1.76-1.56-2.57-.69.81-1.74,1.3-1.64,2.54-1.29-.08-1.73,1-2.54,1.63.83.67,1.3,1.76,2.58,1.57-.14,1.31.94,1.78,1.59,2.59.65-.83,1.74-1.29,1.59-2.58,1.32.14,1.75-1,2.57-1.58-.81-.69-1.31-1.75-2.59-1.6M54.18,8.8c1.42,1.15,1.42,1.81,0,2.94-1.44-1.18-1.44-1.79,0-2.94m-3.35,3.36c1.16-1.45,1.69-1.44,2.92,0-1,1.36-1.71,1.54-2.92,0m3.35,3.35c-1.43-1.12-1.43-1.78,0-2.93,1.43,1.1,1.43,1.86,0,2.93m.42-3.33c1.08-1.45,1.77-1.45,2.91,0-1.06,1.33-1.65,1.58-2.91,0"/><path class="cls-7" d="M64.08,10.57c.17-1.29-.91-1.76-1.56-2.57-.69.81-1.74,1.3-1.64,2.54-1.29-.08-1.72,1-2.54,1.63.83.67,1.31,1.76,2.58,1.57-.14,1.31.94,1.78,1.59,2.59.65-.83,1.74-1.29,1.59-2.58,1.32.14,1.75-1,2.57-1.58-.81-.69-1.3-1.75-2.59-1.6M62.51,8.8c1.42,1.15,1.42,1.81,0,2.94-1.44-1.18-1.43-1.79,0-2.94m-3.35,3.36c1.16-1.45,1.69-1.44,2.92,0-1,1.36-1.71,1.54-2.92,0m3.35,3.35c-1.43-1.12-1.43-1.78,0-2.93,1.43,1.1,1.43,1.86,0,2.93m.42-3.33c1.08-1.45,1.77-1.45,2.92,0-1.07,1.33-1.65,1.58-2.92,0"/><path class="cls-7" d="M72.41,10.57c.17-1.29-.91-1.76-1.56-2.57-.69.81-1.74,1.3-1.64,2.54-1.29-.08-1.72,1-2.54,1.63.83.67,1.31,1.76,2.58,1.57-.13,1.31.94,1.78,1.59,2.59.65-.83,1.74-1.29,1.6-2.58,1.31.14,1.75-1,2.56-1.58-.81-.69-1.3-1.75-2.59-1.6M70.84,8.8c1.43,1.15,1.42,1.81,0,2.94-1.43-1.18-1.43-1.79,0-2.94m-3.35,3.36c1.17-1.45,1.69-1.44,2.92,0-1,1.36-1.71,1.54-2.92,0m3.36,3.35c-1.43-1.12-1.43-1.78,0-2.93,1.42,1.1,1.42,1.86,0,2.93m.41-3.33c1.08-1.45,1.77-1.45,2.92,0-1.06,1.33-1.65,1.58-2.92,0"/><path class="cls-7" d="M80.75,10.57c.16-1.29-.92-1.76-1.57-2.57-.68.81-1.74,1.3-1.64,2.54-1.28-.08-1.72,1-2.54,1.63.84.67,1.31,1.76,2.59,1.57-.14,1.31.94,1.78,1.59,2.59.65-.83,1.74-1.29,1.59-2.58,1.31.14,1.75-1,2.57-1.58-.82-.69-1.31-1.75-2.59-1.6M79.17,8.8c1.43,1.15,1.43,1.81,0,2.94-1.44-1.18-1.44-1.79,0-2.94m-3.35,3.36c1.17-1.45,1.7-1.44,2.93,0-1,1.36-1.72,1.54-2.93,0m3.36,3.35c-1.43-1.12-1.43-1.78,0-2.93,1.43,1.1,1.43,1.86,0,2.93m.41-3.33c1.08-1.45,1.77-1.45,2.92,0-1.06,1.33-1.65,1.58-2.92,0"/><path class="cls-7" d="M89.08,10.57c.17-1.29-.92-1.76-1.57-2.57-.68.81-1.73,1.3-1.63,2.54-1.29-.08-1.73,1-2.54,1.63.83.67,1.3,1.76,2.58,1.57-.14,1.31.94,1.78,1.59,2.59.65-.83,1.74-1.29,1.59-2.58,1.32.14,1.75-1,2.57-1.58-.81-.69-1.31-1.75-2.59-1.6M87.51,8.8c1.42,1.15,1.42,1.81,0,2.94-1.44-1.18-1.44-1.79,0-2.94m-3.36,3.36c1.17-1.45,1.7-1.44,2.93,0-1,1.36-1.72,1.54-2.93,0m3.36,3.35c-1.43-1.12-1.43-1.78,0-2.93,1.43,1.1,1.43,1.86,0,2.93m.41-3.33c1.09-1.45,1.77-1.45,2.92,0-1.06,1.33-1.65,1.58-2.92,0"/><path class="cls-7" d="M97.41,10.57c.17-1.29-.92-1.76-1.56-2.57-.69.81-1.74,1.3-1.64,2.54-1.29-.08-1.73,1-2.54,1.63.83.67,1.3,1.76,2.58,1.57-.14,1.31.94,1.78,1.59,2.59.65-.83,1.74-1.29,1.59-2.58,1.32.14,1.75-1,2.57-1.58-.81-.69-1.31-1.75-2.59-1.6M95.84,8.8c1.42,1.15,1.42,1.81,0,2.94-1.44-1.18-1.44-1.79,0-2.94m-3.35,3.36c1.16-1.45,1.69-1.44,2.92,0-1,1.36-1.71,1.54-2.92,0m3.35,3.35c-1.43-1.12-1.43-1.78,0-2.93,1.43,1.1,1.43,1.86,0,2.93m.42-3.33c1.08-1.45,1.77-1.45,2.91,0-1.06,1.33-1.65,1.58-2.91,0"/><path class="cls-7" d="M5.74,10.57C5.91,9.28,4.83,8.81,4.18,8c-.69.81-1.74,1.3-1.64,2.54-1.29-.08-1.72,1-2.54,1.63.83.67,1.31,1.76,2.58,1.57-.14,1.31.94,1.78,1.59,2.59.65-.83,1.74-1.29,1.6-2.58,1.31.14,1.74-1,2.56-1.58-.81-.69-1.3-1.75-2.59-1.6M4.17,8.8c1.42,1.15,1.42,1.81,0,2.94C2.73,10.56,2.73,10,4.17,8.8M.82,12.16c1.16-1.45,1.69-1.44,2.92,0-1,1.36-1.71,1.54-2.92,0m3.35,3.35c-1.43-1.12-1.43-1.78,0-2.93,1.43,1.1,1.43,1.86,0,2.93m.42-3.33c1.08-1.45,1.77-1.45,2.92,0-1.06,1.33-1.65,1.58-2.92,0"/><path class="cls-7" d="M14.07,10.57c.17-1.29-.91-1.76-1.56-2.57-.69.81-1.74,1.3-1.64,2.54-1.29-.08-1.72,1-2.54,1.63.83.67,1.31,1.76,2.58,1.57-.13,1.31.94,1.78,1.6,2.59.64-.83,1.74-1.29,1.59-2.58,1.31.14,1.75-1,2.56-1.58-.81-.69-1.3-1.75-2.59-1.6M12.5,8.8c1.43,1.15,1.42,1.81,0,2.94-1.44-1.18-1.44-1.79,0-2.94M9.15,12.16c1.17-1.45,1.7-1.44,2.92,0-1,1.36-1.71,1.54-2.92,0m3.36,3.35c-1.43-1.12-1.43-1.78,0-2.93,1.42,1.1,1.42,1.86,0,2.93m.41-3.33c1.08-1.45,1.77-1.45,2.92,0-1.06,1.33-1.65,1.58-2.92,0"/><path class="cls-7" d="M22.41,10.57c.16-1.29-.92-1.76-1.57-2.57-.68.81-1.74,1.3-1.64,2.54-1.28-.08-1.72,1-2.54,1.63.84.67,1.31,1.76,2.59,1.57-.14,1.31.94,1.78,1.59,2.59.65-.83,1.74-1.29,1.59-2.58,1.32.14,1.75-1,2.57-1.58-.82-.69-1.31-1.75-2.59-1.6M20.83,8.8c1.43,1.15,1.43,1.81,0,2.94-1.44-1.18-1.44-1.79,0-2.94m-3.35,3.36c1.17-1.45,1.7-1.44,2.93,0-1,1.36-1.72,1.54-2.93,0m3.36,3.35c-1.43-1.12-1.43-1.78,0-2.93,1.43,1.1,1.43,1.86,0,2.93m.41-3.33c1.08-1.45,1.77-1.45,2.92,0-1.06,1.33-1.65,1.58-2.92,0"/><path class="cls-7" d="M30.74,10.57c.17-1.29-.92-1.76-1.57-2.57-.68.81-1.73,1.3-1.63,2.54-1.29-.08-1.73,1-2.54,1.63.83.67,1.3,1.76,2.58,1.57-.14,1.31.94,1.78,1.59,2.59.65-.83,1.74-1.29,1.59-2.58,1.32.14,1.75-1,2.57-1.58-.81-.69-1.31-1.75-2.59-1.6M29.17,8.8c1.42,1.15,1.42,1.81,0,2.94-1.44-1.18-1.44-1.79,0-2.94m-3.36,3.36c1.17-1.45,1.7-1.44,2.93,0-1,1.36-1.71,1.54-2.93,0m3.36,3.35c-1.43-1.12-1.43-1.78,0-2.93,1.43,1.1,1.43,1.86,0,2.93m.42-3.33c1.08-1.45,1.76-1.45,2.91,0-1.06,1.33-1.65,1.58-2.91,0"/><path class="cls-7" d="M39.07,10.57c.17-1.29-.91-1.76-1.56-2.57-.69.81-1.74,1.3-1.64,2.54-1.29-.08-1.73,1-2.54,1.63.83.67,1.3,1.76,2.58,1.57-.14,1.31.94,1.78,1.59,2.59.65-.83,1.74-1.29,1.59-2.58,1.32.14,1.75-1,2.57-1.58-.81-.69-1.31-1.75-2.59-1.6M37.5,8.8c1.42,1.15,1.42,1.81,0,2.94-1.44-1.18-1.43-1.79,0-2.94m-3.35,3.36c1.16-1.45,1.69-1.44,2.92,0-1,1.36-1.71,1.54-2.92,0m3.35,3.35c-1.43-1.12-1.43-1.78,0-2.93,1.43,1.1,1.43,1.86,0,2.93m.42-3.33c1.08-1.45,1.77-1.45,2.91,0-1.06,1.33-1.64,1.58-2.91,0"/><path class="cls-7" d="M47.4,10.57c.17-1.29-.91-1.76-1.56-2.57-.69.81-1.74,1.3-1.64,2.54-1.29-.08-1.72,1-2.54,1.63.83.67,1.31,1.76,2.58,1.57-.14,1.31.94,1.78,1.59,2.59.65-.83,1.74-1.29,1.6-2.58,1.31.14,1.74-1,2.56-1.58-.81-.69-1.3-1.75-2.59-1.6M45.83,8.8c1.42,1.15,1.42,1.81,0,2.94-1.43-1.18-1.43-1.79,0-2.94m-3.35,3.36c1.16-1.45,1.69-1.44,2.92,0-1,1.36-1.71,1.54-2.92,0m3.35,3.35c-1.43-1.12-1.43-1.78,0-2.93,1.43,1.1,1.43,1.86,0,2.93m.42-3.33c1.08-1.45,1.77-1.45,2.92,0-1.06,1.33-1.65,1.58-2.92,0"/></g><g class="cls-9"><path class="cls-7" d="M55.75,18.57c.17-1.29-.92-1.76-1.56-2.57-.69.81-1.74,1.3-1.64,2.54-1.29-.08-1.73,1-2.54,1.63.83.67,1.3,1.76,2.58,1.57-.14,1.31.94,1.78,1.59,2.59.65-.83,1.74-1.29,1.59-2.58,1.32.14,1.75-1,2.57-1.58-.81-.69-1.31-1.75-2.59-1.6M54.18,16.8c1.42,1.15,1.42,1.81,0,2.94-1.44-1.18-1.44-1.79,0-2.94m-3.35,3.36c1.16-1.45,1.69-1.44,2.92,0-1,1.36-1.71,1.54-2.92,0m3.35,3.35c-1.43-1.12-1.43-1.78,0-2.93,1.43,1.1,1.43,1.86,0,2.93m.42-3.33c1.08-1.45,1.77-1.45,2.91,0-1.06,1.33-1.65,1.58-2.91,0"/><path class="cls-7" d="M64.08,18.57c.17-1.29-.91-1.76-1.56-2.57-.69.81-1.74,1.3-1.64,2.54-1.29-.08-1.72,1-2.54,1.63.83.67,1.31,1.76,2.58,1.57-.14,1.31.94,1.78,1.59,2.59.65-.83,1.74-1.29,1.59-2.58,1.32.14,1.75-1,2.57-1.58-.81-.69-1.3-1.75-2.59-1.6M62.51,16.8c1.42,1.15,1.42,1.81,0,2.94-1.44-1.18-1.43-1.79,0-2.94m-3.35,3.36c1.16-1.45,1.69-1.44,2.92,0-1,1.36-1.71,1.54-2.92,0m3.35,3.35c-1.43-1.12-1.43-1.78,0-2.93,1.43,1.1,1.43,1.86,0,2.93m.42-3.33c1.08-1.45,1.77-1.45,2.92,0-1.07,1.33-1.65,1.58-2.92,0"/><path class="cls-7" d="M72.41,18.57c.17-1.29-.91-1.76-1.56-2.57-.69.81-1.74,1.3-1.64,2.54-1.29-.08-1.72,1-2.54,1.63.83.67,1.31,1.76,2.58,1.57-.13,1.31.94,1.78,1.59,2.59.65-.83,1.74-1.29,1.6-2.58,1.31.14,1.75-1,2.56-1.58-.81-.69-1.3-1.75-2.59-1.6M70.84,16.8c1.43,1.15,1.42,1.81,0,2.94-1.43-1.18-1.43-1.79,0-2.94m-3.35,3.36c1.17-1.45,1.69-1.44,2.92,0-1,1.36-1.71,1.54-2.92,0m3.36,3.35c-1.43-1.12-1.43-1.78,0-2.93,1.42,1.1,1.42,1.86,0,2.93m.41-3.33c1.08-1.45,1.77-1.45,2.92,0-1.06,1.33-1.65,1.58-2.92,0"/><path class="cls-7" d="M80.75,18.57c.16-1.29-.92-1.76-1.57-2.57-.68.81-1.74,1.3-1.64,2.54-1.28-.08-1.72,1-2.54,1.63.84.67,1.31,1.76,2.59,1.57-.14,1.31.94,1.78,1.59,2.59.65-.83,1.74-1.29,1.59-2.58,1.31.14,1.75-1,2.57-1.58-.82-.69-1.31-1.75-2.59-1.6M79.17,16.8c1.43,1.15,1.43,1.81,0,2.94-1.44-1.18-1.44-1.79,0-2.94m-3.35,3.36c1.17-1.45,1.7-1.44,2.93,0-1,1.36-1.72,1.54-2.93,0m3.36,3.35c-1.43-1.12-1.43-1.78,0-2.93,1.43,1.1,1.43,1.86,0,2.93m.41-3.33c1.08-1.45,1.77-1.45,2.92,0-1.06,1.33-1.65,1.58-2.92,0"/><path class="cls-7" d="M89.08,18.57c.17-1.29-.92-1.76-1.57-2.57-.68.81-1.73,1.3-1.63,2.54-1.29-.08-1.73,1-2.54,1.63.83.67,1.3,1.76,2.58,1.57-.14,1.31.94,1.78,1.59,2.59.65-.83,1.74-1.29,1.59-2.58,1.32.14,1.75-1,2.57-1.58-.81-.69-1.31-1.75-2.59-1.6M87.51,16.8c1.42,1.15,1.42,1.81,0,2.94-1.44-1.18-1.44-1.79,0-2.94m-3.36,3.36c1.17-1.45,1.7-1.44,2.93,0-1,1.36-1.72,1.54-2.93,0m3.36,3.35c-1.43-1.12-1.43-1.78,0-2.93,1.43,1.1,1.43,1.86,0,2.93m.41-3.33c1.09-1.45,1.77-1.45,2.92,0-1.06,1.33-1.65,1.58-2.92,0"/><path class="cls-7" d="M97.41,18.57c.17-1.29-.92-1.76-1.56-2.57-.69.81-1.74,1.3-1.64,2.54-1.29-.08-1.73,1-2.54,1.63.83.67,1.3,1.76,2.58,1.57-.14,1.31.94,1.78,1.59,2.59.65-.83,1.74-1.29,1.59-2.58,1.32.14,1.75-1,2.57-1.58-.81-.69-1.31-1.75-2.59-1.6M95.84,16.8c1.42,1.15,1.42,1.81,0,2.94-1.44-1.18-1.44-1.79,0-2.94m-3.35,3.36c1.16-1.45,1.69-1.44,2.92,0-1,1.36-1.71,1.54-2.92,0m3.35,3.35c-1.43-1.12-1.43-1.78,0-2.93,1.43,1.1,1.43,1.86,0,2.93m.42-3.33c1.08-1.45,1.77-1.45,2.91,0-1.06,1.33-1.65,1.58-2.91,0"/><path class="cls-7" d="M5.74,18.57c.17-1.29-.91-1.76-1.56-2.57-.69.81-1.74,1.3-1.64,2.54-1.29-.08-1.72,1-2.54,1.63.83.67,1.31,1.76,2.58,1.57-.14,1.31.94,1.78,1.59,2.59.65-.83,1.74-1.29,1.6-2.58,1.31.14,1.74-1,2.56-1.58-.81-.69-1.3-1.75-2.59-1.6M4.17,16.8c1.42,1.15,1.42,1.81,0,2.94-1.43-1.18-1.43-1.79,0-2.94M.82,20.16c1.16-1.45,1.69-1.44,2.92,0-1,1.36-1.71,1.54-2.92,0m3.35,3.35c-1.43-1.12-1.43-1.78,0-2.93,1.43,1.1,1.43,1.86,0,2.93m.42-3.33c1.08-1.45,1.77-1.45,2.92,0-1.06,1.33-1.65,1.58-2.92,0"/><path class="cls-7" d="M14.07,18.57c.17-1.29-.91-1.76-1.56-2.57-.69.81-1.74,1.3-1.64,2.54-1.29-.08-1.72,1-2.54,1.63.83.67,1.31,1.76,2.58,1.57-.13,1.31.94,1.78,1.6,2.59.64-.83,1.74-1.29,1.59-2.58,1.31.14,1.75-1,2.56-1.58-.81-.69-1.3-1.75-2.59-1.6M12.5,16.8c1.43,1.15,1.42,1.81,0,2.94-1.44-1.18-1.44-1.79,0-2.94M9.15,20.16c1.17-1.45,1.7-1.44,2.92,0-1,1.36-1.71,1.54-2.92,0m3.36,3.35c-1.43-1.12-1.43-1.78,0-2.93,1.42,1.1,1.42,1.86,0,2.93m.41-3.33c1.08-1.45,1.77-1.45,2.92,0-1.06,1.33-1.65,1.58-2.92,0"/><path class="cls-7" d="M22.41,18.57c.16-1.29-.92-1.76-1.57-2.57-.68.81-1.74,1.3-1.64,2.54-1.28-.08-1.72,1-2.54,1.63.84.67,1.31,1.76,2.59,1.57-.14,1.31.94,1.78,1.59,2.59.65-.83,1.74-1.29,1.59-2.58,1.32.14,1.75-1,2.57-1.58-.82-.69-1.31-1.75-2.59-1.6M20.83,16.8c1.43,1.15,1.43,1.81,0,2.94-1.44-1.18-1.44-1.79,0-2.94m-3.35,3.36c1.17-1.45,1.7-1.44,2.93,0-1,1.36-1.72,1.54-2.93,0m3.36,3.35c-1.43-1.12-1.43-1.78,0-2.93,1.43,1.1,1.43,1.86,0,2.93m.41-3.33c1.08-1.45,1.77-1.45,2.92,0-1.06,1.33-1.65,1.58-2.92,0"/><path class="cls-7" d="M30.74,18.57c.17-1.29-.92-1.76-1.57-2.57-.68.81-1.73,1.3-1.63,2.54-1.29-.08-1.73,1-2.54,1.63.83.67,1.3,1.76,2.58,1.57-.14,1.31.94,1.78,1.59,2.59.65-.83,1.74-1.29,1.59-2.58,1.32.14,1.75-1,2.57-1.58-.81-.69-1.31-1.75-2.59-1.6M29.17,16.8c1.42,1.15,1.42,1.81,0,2.94-1.44-1.18-1.44-1.79,0-2.94m-3.36,3.36c1.17-1.45,1.7-1.44,2.93,0-1,1.36-1.71,1.54-2.93,0m3.36,3.35c-1.43-1.12-1.43-1.78,0-2.93,1.43,1.1,1.43,1.86,0,2.93m.42-3.33c1.08-1.45,1.76-1.45,2.91,0-1.06,1.33-1.65,1.58-2.91,0"/><path class="cls-7" d="M39.07,18.57c.17-1.29-.91-1.76-1.56-2.57-.69.81-1.74,1.3-1.64,2.54-1.29-.08-1.73,1-2.54,1.63.83.67,1.3,1.76,2.58,1.57-.14,1.31.94,1.78,1.59,2.59.65-.83,1.74-1.29,1.59-2.58,1.32.14,1.75-1,2.57-1.58-.81-.69-1.31-1.75-2.59-1.6M37.5,16.8c1.42,1.15,1.42,1.81,0,2.94-1.44-1.18-1.43-1.79,0-2.94m-3.35,3.36c1.16-1.45,1.69-1.44,2.92,0-1,1.36-1.71,1.54-2.92,0m3.35,3.35c-1.43-1.12-1.43-1.78,0-2.93,1.43,1.1,1.43,1.86,0,2.93m.42-3.33c1.08-1.45,1.77-1.45,2.91,0-1.06,1.33-1.64,1.58-2.91,0"/><path class="cls-7" d="M47.4,18.57c.17-1.29-.91-1.76-1.56-2.57-.69.81-1.74,1.3-1.64,2.54-1.29-.08-1.72,1-2.54,1.63.83.67,1.31,1.76,2.58,1.57-.14,1.31.94,1.78,1.59,2.59.65-.83,1.74-1.29,1.6-2.58,1.31.14,1.74-1,2.56-1.58-.81-.69-1.3-1.75-2.59-1.6M45.83,16.8c1.42,1.15,1.42,1.81,0,2.94-1.43-1.18-1.43-1.79,0-2.94m-3.35,3.36c1.16-1.45,1.69-1.44,2.92,0-1,1.36-1.71,1.54-2.92,0m3.35,3.35c-1.43-1.12-1.43-1.78,0-2.93,1.43,1.1,1.43,1.86,0,2.93m.42-3.33c1.08-1.45,1.77-1.45,2.92,0-1.06,1.33-1.65,1.58-2.92,0"/></g><g class="cls-10"><path class="cls-7" d="M55.75,26.57c.17-1.29-.92-1.76-1.56-2.57-.69.81-1.74,1.3-1.64,2.54-1.29-.08-1.73,1-2.54,1.63.83.67,1.3,1.76,2.58,1.57-.14,1.31.94,1.78,1.59,2.59.65-.83,1.74-1.29,1.59-2.58,1.32.14,1.75-1,2.57-1.58-.81-.69-1.31-1.75-2.59-1.6M54.18,24.8c1.42,1.15,1.42,1.81,0,2.94-1.44-1.18-1.44-1.79,0-2.94m-3.35,3.36c1.16-1.45,1.69-1.44,2.92,0-1,1.36-1.71,1.54-2.92,0m3.35,3.35c-1.43-1.12-1.43-1.78,0-2.93,1.43,1.1,1.43,1.86,0,2.93m.42-3.33c1.08-1.45,1.77-1.45,2.91,0-1.06,1.33-1.65,1.58-2.91,0"/><path class="cls-7" d="M64.08,26.57c.17-1.29-.91-1.76-1.56-2.57-.69.81-1.74,1.3-1.64,2.54-1.29-.08-1.72,1-2.54,1.63.83.67,1.31,1.76,2.58,1.57-.14,1.31.94,1.78,1.59,2.59.65-.83,1.74-1.29,1.59-2.58,1.32.14,1.75-1,2.57-1.58-.81-.69-1.3-1.75-2.59-1.6M62.51,24.8c1.42,1.15,1.42,1.81,0,2.94-1.44-1.18-1.43-1.79,0-2.94m-3.35,3.36c1.16-1.45,1.69-1.44,2.92,0-1,1.36-1.71,1.54-2.92,0m3.35,3.35c-1.43-1.12-1.43-1.78,0-2.93,1.43,1.1,1.43,1.86,0,2.93m.42-3.33c1.08-1.45,1.77-1.45,2.92,0-1.07,1.33-1.65,1.58-2.92,0"/><path class="cls-7" d="M72.41,26.57c.17-1.29-.91-1.76-1.56-2.57-.69.81-1.74,1.3-1.64,2.54-1.29-.08-1.72,1-2.54,1.63.83.67,1.31,1.76,2.58,1.57-.13,1.31.94,1.78,1.59,2.59.65-.83,1.74-1.29,1.6-2.58,1.31.14,1.75-1,2.56-1.58-.81-.69-1.3-1.75-2.59-1.6M70.84,24.8c1.43,1.15,1.42,1.81,0,2.94-1.43-1.18-1.43-1.79,0-2.94m-3.35,3.36c1.17-1.45,1.69-1.44,2.92,0-1,1.36-1.71,1.54-2.92,0m3.36,3.35c-1.43-1.12-1.43-1.78,0-2.93,1.42,1.1,1.42,1.86,0,2.93m.41-3.33c1.08-1.45,1.77-1.45,2.92,0-1.06,1.33-1.65,1.58-2.92,0"/><path class="cls-7" d="M80.75,26.57c.16-1.29-.92-1.76-1.57-2.57-.68.81-1.74,1.3-1.64,2.54-1.28-.08-1.72,1-2.54,1.63.84.67,1.31,1.76,2.59,1.57-.14,1.31.94,1.78,1.59,2.59.65-.83,1.74-1.29,1.59-2.58,1.31.14,1.75-1,2.57-1.58-.82-.69-1.31-1.75-2.59-1.6M79.17,24.8c1.43,1.15,1.43,1.81,0,2.94-1.44-1.18-1.44-1.79,0-2.94m-3.35,3.36c1.17-1.45,1.7-1.44,2.93,0-1,1.36-1.72,1.54-2.93,0m3.36,3.35c-1.43-1.12-1.43-1.78,0-2.93,1.43,1.1,1.43,1.86,0,2.93m.41-3.33c1.08-1.45,1.77-1.45,2.92,0-1.06,1.33-1.65,1.58-2.92,0"/><path class="cls-7" d="M89.08,26.57c.17-1.29-.92-1.76-1.57-2.57-.68.81-1.73,1.3-1.63,2.54-1.29-.08-1.73,1-2.54,1.63.83.67,1.3,1.76,2.58,1.57-.14,1.31.94,1.78,1.59,2.59.65-.83,1.74-1.29,1.59-2.58,1.32.14,1.75-1,2.57-1.58-.81-.69-1.31-1.75-2.59-1.6M87.51,24.8c1.42,1.15,1.42,1.81,0,2.94-1.44-1.18-1.44-1.79,0-2.94m-3.36,3.36c1.17-1.45,1.7-1.44,2.93,0-1,1.36-1.72,1.54-2.93,0m3.36,3.35c-1.43-1.12-1.43-1.78,0-2.93,1.43,1.1,1.43,1.86,0,2.93m.41-3.33c1.09-1.45,1.77-1.45,2.92,0-1.06,1.33-1.65,1.58-2.92,0"/><path class="cls-7" d="M97.41,26.57c.17-1.29-.92-1.76-1.56-2.57-.69.81-1.74,1.3-1.64,2.54-1.29-.08-1.73,1-2.54,1.63.83.67,1.3,1.76,2.58,1.57-.14,1.31.94,1.78,1.59,2.59.65-.83,1.74-1.29,1.59-2.58,1.32.14,1.75-1,2.57-1.58-.81-.69-1.31-1.75-2.59-1.6M95.84,24.8c1.42,1.15,1.42,1.81,0,2.94-1.44-1.18-1.44-1.79,0-2.94m-3.35,3.36c1.16-1.45,1.69-1.44,2.92,0-1,1.36-1.71,1.54-2.92,0m3.35,3.35c-1.43-1.12-1.43-1.78,0-2.93,1.43,1.1,1.43,1.86,0,2.93m.42-3.33c1.08-1.45,1.77-1.45,2.91,0-1.06,1.33-1.65,1.58-2.91,0"/><path class="cls-7" d="M5.74,26.57c.17-1.29-.91-1.76-1.56-2.57-.69.81-1.74,1.3-1.64,2.54-1.29-.08-1.72,1-2.54,1.63.83.67,1.31,1.76,2.58,1.57-.14,1.31.94,1.78,1.59,2.59.65-.83,1.74-1.29,1.6-2.58,1.31.14,1.74-1,2.56-1.58-.81-.69-1.3-1.75-2.59-1.6M4.17,24.8c1.42,1.15,1.42,1.81,0,2.94-1.43-1.18-1.43-1.79,0-2.94M.82,28.16c1.16-1.45,1.69-1.44,2.92,0-1,1.36-1.71,1.54-2.92,0m3.35,3.35c-1.43-1.12-1.43-1.78,0-2.93,1.43,1.1,1.43,1.86,0,2.93m.42-3.33c1.08-1.45,1.77-1.45,2.92,0-1.06,1.33-1.65,1.58-2.92,0"/><path class="cls-7" d="M14.07,26.57c.17-1.29-.91-1.76-1.56-2.57-.69.81-1.74,1.3-1.64,2.54-1.29-.08-1.72,1-2.54,1.63.83.67,1.31,1.76,2.58,1.57-.13,1.31.94,1.78,1.6,2.59.64-.83,1.74-1.29,1.59-2.58,1.31.14,1.75-1,2.56-1.58-.81-.69-1.3-1.75-2.59-1.6M12.5,24.8c1.43,1.15,1.42,1.81,0,2.94-1.44-1.18-1.44-1.79,0-2.94M9.15,28.16c1.17-1.45,1.7-1.44,2.92,0-1,1.36-1.71,1.54-2.92,0m3.36,3.35c-1.43-1.12-1.43-1.78,0-2.93,1.42,1.1,1.42,1.86,0,2.93m.41-3.33c1.08-1.45,1.77-1.45,2.92,0-1.06,1.33-1.65,1.58-2.92,0"/><path class="cls-7" d="M22.41,26.57c.16-1.29-.92-1.76-1.57-2.57-.68.81-1.74,1.3-1.64,2.54-1.28-.08-1.72,1-2.54,1.63.84.67,1.31,1.76,2.59,1.57-.14,1.31.94,1.78,1.59,2.59.65-.83,1.74-1.29,1.59-2.58,1.32.14,1.75-1,2.57-1.58-.82-.69-1.31-1.75-2.59-1.6M20.83,24.8c1.43,1.15,1.43,1.81,0,2.94-1.44-1.18-1.44-1.79,0-2.94m-3.35,3.36c1.17-1.45,1.7-1.44,2.93,0-1,1.36-1.72,1.54-2.93,0m3.36,3.35c-1.43-1.12-1.43-1.78,0-2.93,1.43,1.1,1.43,1.86,0,2.93m.41-3.33c1.08-1.45,1.77-1.45,2.92,0-1.06,1.33-1.65,1.58-2.92,0"/><path class="cls-7" d="M30.74,26.57c.17-1.29-.92-1.76-1.57-2.57-.68.81-1.73,1.3-1.63,2.54-1.29-.08-1.73,1-2.54,1.63.83.67,1.3,1.76,2.58,1.57-.14,1.31.94,1.78,1.59,2.59.65-.83,1.74-1.29,1.59-2.58,1.32.14,1.75-1,2.57-1.58-.81-.69-1.31-1.75-2.59-1.6M29.17,24.8c1.42,1.15,1.42,1.81,0,2.94-1.44-1.18-1.44-1.79,0-2.94m-3.36,3.36c1.17-1.45,1.7-1.44,2.93,0-1,1.36-1.71,1.54-2.93,0m3.36,3.35c-1.43-1.12-1.43-1.78,0-2.93,1.43,1.1,1.43,1.86,0,2.93m.42-3.33c1.08-1.45,1.76-1.45,2.91,0-1.06,1.33-1.65,1.58-2.91,0"/><path class="cls-7" d="M39.07,26.57c.17-1.29-.91-1.76-1.56-2.57-.69.81-1.74,1.3-1.64,2.54-1.29-.08-1.73,1-2.54,1.63.83.67,1.3,1.76,2.58,1.57-.14,1.31.94,1.78,1.59,2.59.65-.83,1.74-1.29,1.59-2.58,1.32.14,1.75-1,2.57-1.58-.81-.69-1.31-1.75-2.59-1.6M37.5,24.8c1.42,1.15,1.42,1.81,0,2.94-1.44-1.18-1.43-1.79,0-2.94m-3.35,3.36c1.16-1.45,1.69-1.44,2.92,0-1,1.36-1.71,1.54-2.92,0m3.35,3.35c-1.43-1.12-1.43-1.78,0-2.93,1.43,1.1,1.43,1.86,0,2.93m.42-3.33c1.08-1.45,1.77-1.45,2.91,0-1.06,1.33-1.64,1.58-2.91,0"/><path class="cls-7" d="M47.4,26.57c.17-1.29-.91-1.76-1.56-2.57-.69.81-1.74,1.3-1.64,2.54-1.29-.08-1.72,1-2.54,1.63.83.67,1.31,1.76,2.58,1.57-.14,1.31.94,1.78,1.59,2.59.65-.83,1.74-1.29,1.6-2.58,1.31.14,1.74-1,2.56-1.58-.81-.69-1.3-1.75-2.59-1.6M45.83,24.8c1.42,1.15,1.42,1.81,0,2.94-1.43-1.18-1.43-1.79,0-2.94m-3.35,3.36c1.16-1.45,1.69-1.44,2.92,0-1,1.36-1.71,1.54-2.92,0m3.35,3.35c-1.43-1.12-1.43-1.78,0-2.93,1.43,1.1,1.43,1.86,0,2.93m.42-3.33c1.08-1.45,1.77-1.45,2.92,0-1.06,1.33-1.65,1.58-2.92,0"/></g><g class="cls-11"><path class="cls-7" d="M55.75,34.57c.17-1.29-.92-1.76-1.56-2.57-.69.81-1.74,1.3-1.64,2.54-1.29-.08-1.73,1-2.54,1.63.83.67,1.3,1.76,2.58,1.57-.14,1.31.94,1.78,1.59,2.59.65-.83,1.74-1.29,1.59-2.58,1.32.14,1.75-1,2.57-1.58-.81-.69-1.31-1.75-2.59-1.6M54.18,32.8c1.42,1.15,1.42,1.81,0,2.94-1.44-1.18-1.44-1.79,0-2.94m-3.35,3.36c1.16-1.45,1.69-1.44,2.92,0-1,1.36-1.71,1.54-2.92,0m3.35,3.35c-1.43-1.12-1.43-1.78,0-2.93,1.43,1.1,1.43,1.86,0,2.93m.42-3.33c1.08-1.45,1.77-1.45,2.91,0-1.06,1.33-1.65,1.58-2.91,0"/><path class="cls-7" d="M64.08,34.57c.17-1.29-.91-1.76-1.56-2.57-.69.81-1.74,1.3-1.64,2.54-1.29-.08-1.72,1-2.54,1.63.83.67,1.31,1.76,2.58,1.57-.14,1.31.94,1.78,1.59,2.59.65-.83,1.74-1.29,1.59-2.58,1.32.14,1.75-1,2.57-1.58-.81-.69-1.3-1.75-2.59-1.6M62.51,32.8c1.42,1.15,1.42,1.81,0,2.94-1.44-1.18-1.43-1.79,0-2.94m-3.35,3.36c1.16-1.45,1.69-1.44,2.92,0-1,1.36-1.71,1.54-2.92,0m3.35,3.35c-1.43-1.12-1.43-1.78,0-2.93,1.43,1.1,1.43,1.86,0,2.93m.42-3.33c1.08-1.45,1.77-1.45,2.92,0-1.07,1.33-1.65,1.58-2.92,0"/><path class="cls-7" d="M72.41,34.57c.17-1.29-.91-1.76-1.56-2.57-.69.81-1.74,1.3-1.64,2.54-1.29-.08-1.72,1-2.54,1.63.83.67,1.31,1.76,2.58,1.57-.13,1.31.94,1.78,1.59,2.59.65-.83,1.74-1.29,1.6-2.58,1.31.14,1.75-1,2.56-1.58-.81-.69-1.3-1.75-2.59-1.6M70.84,32.8c1.43,1.15,1.42,1.81,0,2.94-1.43-1.18-1.43-1.79,0-2.94m-3.35,3.36c1.17-1.45,1.69-1.44,2.92,0-1,1.36-1.71,1.54-2.92,0m3.36,3.35c-1.43-1.12-1.43-1.78,0-2.93,1.42,1.1,1.42,1.86,0,2.93m.41-3.33c1.08-1.45,1.77-1.45,2.92,0-1.06,1.33-1.65,1.58-2.92,0"/><path class="cls-7" d="M80.75,34.57c.16-1.29-.92-1.76-1.57-2.57-.68.81-1.74,1.3-1.64,2.54-1.28-.08-1.72,1-2.54,1.63.84.67,1.31,1.76,2.59,1.57-.14,1.31.94,1.78,1.59,2.59.65-.83,1.74-1.29,1.59-2.58,1.31.14,1.75-1,2.57-1.58-.82-.69-1.31-1.75-2.59-1.6M79.17,32.8c1.43,1.15,1.43,1.81,0,2.94-1.44-1.18-1.44-1.79,0-2.94m-3.35,3.36c1.17-1.45,1.7-1.44,2.93,0-1,1.36-1.72,1.54-2.93,0m3.36,3.35c-1.43-1.12-1.43-1.78,0-2.93,1.43,1.1,1.43,1.86,0,2.93m.41-3.33c1.08-1.45,1.77-1.45,2.92,0-1.06,1.33-1.65,1.58-2.92,0"/><path class="cls-7" d="M89.08,34.57c.17-1.29-.92-1.76-1.57-2.57-.68.81-1.73,1.3-1.63,2.54-1.29-.08-1.73,1-2.54,1.63.83.67,1.3,1.76,2.58,1.57-.14,1.31.94,1.78,1.59,2.59.65-.83,1.74-1.29,1.59-2.58,1.32.14,1.75-1,2.57-1.58-.81-.69-1.31-1.75-2.59-1.6M87.51,32.8c1.42,1.15,1.42,1.81,0,2.94-1.44-1.18-1.44-1.79,0-2.94m-3.36,3.36c1.17-1.45,1.7-1.44,2.93,0-1,1.36-1.72,1.54-2.93,0m3.36,3.35c-1.43-1.12-1.43-1.78,0-2.93,1.43,1.1,1.43,1.86,0,2.93m.41-3.33c1.09-1.45,1.77-1.45,2.92,0-1.06,1.33-1.65,1.58-2.92,0"/><path class="cls-7" d="M97.41,34.57c.17-1.29-.92-1.76-1.56-2.57-.69.81-1.74,1.3-1.64,2.54-1.29-.08-1.73,1-2.54,1.63.83.67,1.3,1.76,2.58,1.57-.14,1.31.94,1.78,1.59,2.59.65-.83,1.74-1.29,1.59-2.58,1.32.14,1.75-1,2.57-1.58-.81-.69-1.31-1.75-2.59-1.6M95.84,32.8c1.42,1.15,1.42,1.81,0,2.94-1.44-1.18-1.44-1.79,0-2.94m-3.35,3.36c1.16-1.45,1.69-1.44,2.92,0-1,1.36-1.71,1.54-2.92,0m3.35,3.35c-1.43-1.12-1.43-1.78,0-2.93,1.43,1.1,1.43,1.86,0,2.93m.42-3.33c1.08-1.45,1.77-1.45,2.91,0-1.06,1.33-1.65,1.58-2.91,0"/><path class="cls-7" d="M5.74,34.57c.17-1.29-.91-1.76-1.56-2.57-.69.81-1.74,1.3-1.64,2.54-1.29-.08-1.72,1-2.54,1.63.83.67,1.31,1.76,2.58,1.57-.14,1.31.94,1.78,1.59,2.59.65-.83,1.74-1.29,1.6-2.58,1.31.14,1.74-1,2.56-1.58-.81-.69-1.3-1.75-2.59-1.6M4.17,32.8c1.42,1.15,1.42,1.81,0,2.94-1.43-1.18-1.43-1.79,0-2.94M.82,36.16c1.16-1.45,1.69-1.44,2.92,0-1,1.36-1.71,1.54-2.92,0m3.35,3.35c-1.43-1.12-1.43-1.78,0-2.93,1.43,1.1,1.43,1.86,0,2.93m.42-3.33c1.08-1.45,1.77-1.45,2.92,0-1.06,1.33-1.65,1.58-2.92,0"/><path class="cls-7" d="M14.07,34.57c.17-1.29-.91-1.76-1.56-2.57-.69.81-1.74,1.3-1.64,2.54-1.29-.08-1.72,1-2.54,1.63.83.67,1.31,1.76,2.58,1.57-.13,1.31.94,1.78,1.6,2.59.64-.83,1.74-1.29,1.59-2.58,1.31.14,1.75-1,2.56-1.58-.81-.69-1.3-1.75-2.59-1.6M12.5,32.8c1.43,1.15,1.42,1.81,0,2.94-1.44-1.18-1.44-1.79,0-2.94M9.15,36.16c1.17-1.45,1.7-1.44,2.92,0-1,1.36-1.71,1.54-2.92,0m3.36,3.35c-1.43-1.12-1.43-1.78,0-2.93,1.42,1.1,1.42,1.86,0,2.93m.41-3.33c1.08-1.45,1.77-1.45,2.92,0-1.06,1.33-1.65,1.58-2.92,0"/><path class="cls-7" d="M22.41,34.57c.16-1.29-.92-1.76-1.57-2.57-.68.81-1.74,1.3-1.64,2.54-1.28-.08-1.72,1-2.54,1.63.84.67,1.31,1.76,2.59,1.57-.14,1.31.94,1.78,1.59,2.59.65-.83,1.74-1.29,1.59-2.58,1.32.14,1.75-1,2.57-1.58-.82-.69-1.31-1.75-2.59-1.6M20.83,32.8c1.43,1.15,1.43,1.81,0,2.94-1.44-1.18-1.44-1.79,0-2.94m-3.35,3.36c1.17-1.45,1.7-1.44,2.93,0-1,1.36-1.72,1.54-2.93,0m3.36,3.35c-1.43-1.12-1.43-1.78,0-2.93,1.43,1.1,1.43,1.86,0,2.93m.41-3.33c1.08-1.45,1.77-1.45,2.92,0-1.06,1.33-1.65,1.58-2.92,0"/><path class="cls-7" d="M30.74,34.57c.17-1.29-.92-1.76-1.57-2.57-.68.81-1.73,1.3-1.63,2.54-1.29-.08-1.73,1-2.54,1.63.83.67,1.3,1.76,2.58,1.57-.14,1.31.94,1.78,1.59,2.59.65-.83,1.74-1.29,1.59-2.58,1.32.14,1.75-1,2.57-1.58-.81-.69-1.31-1.75-2.59-1.6M29.17,32.8c1.42,1.15,1.42,1.81,0,2.94-1.44-1.18-1.44-1.79,0-2.94m-3.36,3.36c1.17-1.45,1.7-1.44,2.93,0-1,1.36-1.71,1.54-2.93,0m3.36,3.35c-1.43-1.12-1.43-1.78,0-2.93,1.43,1.1,1.43,1.86,0,2.93m.42-3.33c1.08-1.45,1.76-1.45,2.91,0-1.06,1.33-1.65,1.58-2.91,0"/><path class="cls-7" d="M39.07,34.57c.17-1.29-.91-1.76-1.56-2.57-.69.81-1.74,1.3-1.64,2.54-1.29-.08-1.73,1-2.54,1.63.83.67,1.3,1.76,2.58,1.57-.14,1.31.94,1.78,1.59,2.59.65-.83,1.74-1.29,1.59-2.58,1.32.14,1.75-1,2.57-1.58-.81-.69-1.31-1.75-2.59-1.6M37.5,32.8c1.42,1.15,1.42,1.81,0,2.94-1.44-1.18-1.43-1.79,0-2.94m-3.35,3.36c1.16-1.45,1.69-1.44,2.92,0-1,1.36-1.71,1.54-2.92,0m3.35,3.35c-1.43-1.12-1.43-1.78,0-2.93,1.43,1.1,1.43,1.86,0,2.93m.42-3.33c1.08-1.45,1.77-1.45,2.91,0-1.06,1.33-1.64,1.58-2.91,0"/><path class="cls-7" d="M47.4,34.57c.17-1.29-.91-1.76-1.56-2.57-.69.81-1.74,1.3-1.64,2.54-1.29-.08-1.72,1-2.54,1.63.83.67,1.31,1.76,2.58,1.57-.14,1.31.94,1.78,1.59,2.59.65-.83,1.74-1.29,1.6-2.58,1.31.14,1.74-1,2.56-1.58-.81-.69-1.3-1.75-2.59-1.6M45.83,32.8c1.42,1.15,1.42,1.81,0,2.94-1.43-1.18-1.43-1.79,0-2.94m-3.35,3.36c1.16-1.45,1.69-1.44,2.92,0-1,1.36-1.71,1.54-2.92,0m3.35,3.35c-1.43-1.12-1.43-1.78,0-2.93,1.43,1.1,1.43,1.86,0,2.93m.42-3.33c1.08-1.45,1.77-1.45,2.92,0-1.06,1.33-1.65,1.58-2.92,0"/></g><g class="cls-12"><path class="cls-7" d="M55.75,42.57c.17-1.29-.92-1.76-1.56-2.57-.69.81-1.74,1.3-1.64,2.54-1.29-.08-1.73,1-2.54,1.63.83.67,1.3,1.76,2.58,1.57-.14,1.31.94,1.78,1.59,2.59.65-.83,1.74-1.29,1.59-2.58,1.32.14,1.75-1,2.57-1.58-.81-.69-1.31-1.75-2.59-1.6M54.18,40.8c1.42,1.15,1.42,1.81,0,2.94-1.44-1.18-1.44-1.79,0-2.94m-3.35,3.36c1.16-1.45,1.69-1.44,2.92,0-1,1.36-1.71,1.54-2.92,0m3.35,3.35c-1.43-1.12-1.43-1.78,0-2.93,1.43,1.1,1.43,1.86,0,2.93m.42-3.33c1.08-1.45,1.77-1.45,2.91,0-1.06,1.33-1.65,1.58-2.91,0"/><path class="cls-7" d="M64.08,42.57c.17-1.29-.91-1.76-1.56-2.57-.69.81-1.74,1.3-1.64,2.54-1.29-.08-1.72,1-2.54,1.63.83.67,1.31,1.76,2.58,1.57-.14,1.31.94,1.78,1.59,2.59.65-.83,1.74-1.29,1.59-2.58,1.32.14,1.75-1,2.57-1.58-.81-.69-1.3-1.75-2.59-1.6M62.51,40.8c1.42,1.15,1.42,1.81,0,2.94-1.44-1.18-1.43-1.79,0-2.94m-3.35,3.36c1.16-1.45,1.69-1.44,2.92,0-1,1.36-1.71,1.54-2.92,0m3.35,3.35c-1.43-1.12-1.43-1.78,0-2.93,1.43,1.1,1.43,1.86,0,2.93m.42-3.33c1.08-1.45,1.77-1.45,2.92,0-1.07,1.33-1.65,1.58-2.92,0"/><path class="cls-7" d="M72.41,42.57c.17-1.29-.91-1.76-1.56-2.57-.69.81-1.74,1.3-1.64,2.54-1.29-.08-1.72,1-2.54,1.63.83.67,1.31,1.76,2.58,1.57-.13,1.31.94,1.78,1.59,2.59.65-.83,1.74-1.29,1.6-2.58,1.31.14,1.75-1,2.56-1.58-.81-.69-1.3-1.75-2.59-1.6M70.84,40.8c1.43,1.15,1.42,1.81,0,2.94-1.43-1.18-1.43-1.79,0-2.94m-3.35,3.36c1.17-1.45,1.69-1.44,2.92,0-1,1.36-1.71,1.54-2.92,0m3.36,3.35c-1.43-1.12-1.43-1.78,0-2.93,1.42,1.1,1.42,1.86,0,2.93m.41-3.33c1.08-1.45,1.77-1.45,2.92,0-1.06,1.33-1.65,1.58-2.92,0"/><path class="cls-7" d="M80.75,42.57c.16-1.29-.92-1.76-1.57-2.57-.68.81-1.74,1.3-1.64,2.54-1.28-.08-1.72,1-2.54,1.63.84.67,1.31,1.76,2.59,1.57-.14,1.31.94,1.78,1.59,2.59.65-.83,1.74-1.29,1.59-2.58,1.31.14,1.75-1,2.57-1.58-.82-.69-1.31-1.75-2.59-1.6M79.17,40.8c1.43,1.15,1.43,1.81,0,2.94-1.44-1.18-1.44-1.79,0-2.94m-3.35,3.36c1.17-1.45,1.7-1.44,2.93,0-1,1.36-1.72,1.54-2.93,0m3.36,3.35c-1.43-1.12-1.43-1.78,0-2.93,1.43,1.1,1.43,1.86,0,2.93m.41-3.33c1.08-1.45,1.77-1.45,2.92,0-1.06,1.33-1.65,1.58-2.92,0"/><path class="cls-7" d="M89.08,42.57c.17-1.29-.92-1.76-1.57-2.57-.68.81-1.73,1.3-1.63,2.54-1.29-.08-1.73,1-2.54,1.63.83.67,1.3,1.76,2.58,1.57-.14,1.31.94,1.78,1.59,2.59.65-.83,1.74-1.29,1.59-2.58,1.32.14,1.75-1,2.57-1.58-.81-.69-1.31-1.75-2.59-1.6M87.51,40.8c1.42,1.15,1.42,1.81,0,2.94-1.44-1.18-1.44-1.79,0-2.94m-3.36,3.36c1.17-1.45,1.7-1.44,2.93,0-1,1.36-1.72,1.54-2.93,0m3.36,3.35c-1.43-1.12-1.43-1.78,0-2.93,1.43,1.1,1.43,1.86,0,2.93m.41-3.33c1.09-1.45,1.77-1.45,2.92,0-1.06,1.33-1.65,1.58-2.92,0"/><path class="cls-7" d="M97.41,42.57c.17-1.29-.92-1.76-1.56-2.57-.69.81-1.74,1.3-1.64,2.54-1.29-.08-1.73,1-2.54,1.63.83.67,1.3,1.76,2.58,1.57-.14,1.31.94,1.78,1.59,2.59.65-.83,1.74-1.29,1.59-2.58,1.32.14,1.75-1,2.57-1.58-.81-.69-1.31-1.75-2.59-1.6M95.84,40.8c1.42,1.15,1.42,1.81,0,2.94-1.44-1.18-1.44-1.79,0-2.94m-3.35,3.36c1.16-1.45,1.69-1.44,2.92,0-1,1.36-1.71,1.54-2.92,0m3.35,3.35c-1.43-1.12-1.43-1.78,0-2.93,1.43,1.1,1.43,1.86,0,2.93m.42-3.33c1.08-1.45,1.77-1.45,2.91,0-1.06,1.33-1.65,1.58-2.91,0"/><path class="cls-7" d="M5.74,42.57c.17-1.29-.91-1.76-1.56-2.57-.69.81-1.74,1.3-1.64,2.54-1.29-.08-1.72,1-2.54,1.63.83.67,1.31,1.76,2.58,1.57-.14,1.31.94,1.78,1.59,2.59.65-.83,1.74-1.29,1.6-2.58,1.31.14,1.74-1,2.56-1.58-.81-.69-1.3-1.75-2.59-1.6M4.17,40.8c1.42,1.15,1.42,1.81,0,2.94-1.43-1.18-1.43-1.79,0-2.94M.82,44.16c1.16-1.45,1.69-1.44,2.92,0-1,1.36-1.71,1.54-2.92,0m3.35,3.35c-1.43-1.12-1.43-1.78,0-2.93,1.43,1.1,1.43,1.86,0,2.93m.42-3.33c1.08-1.45,1.77-1.45,2.92,0-1.06,1.33-1.65,1.58-2.92,0"/><path class="cls-7" d="M14.07,42.57c.17-1.29-.91-1.76-1.56-2.57-.69.81-1.74,1.3-1.64,2.54-1.29-.08-1.72,1-2.54,1.63.83.67,1.31,1.76,2.58,1.57-.13,1.31.94,1.78,1.6,2.59.64-.83,1.74-1.29,1.59-2.58,1.31.14,1.75-1,2.56-1.58-.81-.69-1.3-1.75-2.59-1.6M12.5,40.8c1.43,1.15,1.42,1.81,0,2.94-1.44-1.18-1.44-1.79,0-2.94M9.15,44.16c1.17-1.45,1.7-1.44,2.92,0-1,1.36-1.71,1.54-2.92,0m3.36,3.35c-1.43-1.12-1.43-1.78,0-2.93,1.42,1.1,1.42,1.86,0,2.93m.41-3.33c1.08-1.45,1.77-1.45,2.92,0-1.06,1.33-1.65,1.58-2.92,0"/><path class="cls-7" d="M22.41,42.57c.16-1.29-.92-1.76-1.57-2.57-.68.81-1.74,1.3-1.64,2.54-1.28-.08-1.72,1-2.54,1.63.84.67,1.31,1.76,2.59,1.57-.14,1.31.94,1.78,1.59,2.59.65-.83,1.74-1.29,1.59-2.58,1.32.14,1.75-1,2.57-1.58-.82-.69-1.31-1.75-2.59-1.6M20.83,40.8c1.43,1.15,1.43,1.81,0,2.94-1.44-1.18-1.44-1.79,0-2.94m-3.35,3.36c1.17-1.45,1.7-1.44,2.93,0-1,1.36-1.72,1.54-2.93,0m3.36,3.35c-1.43-1.12-1.43-1.78,0-2.93,1.43,1.1,1.43,1.86,0,2.93m.41-3.33c1.08-1.45,1.77-1.45,2.92,0-1.06,1.33-1.65,1.58-2.92,0"/><path class="cls-7" d="M30.74,42.57c.17-1.29-.92-1.76-1.57-2.57-.68.81-1.73,1.3-1.63,2.54-1.29-.08-1.73,1-2.54,1.63.83.67,1.3,1.76,2.58,1.57-.14,1.31.94,1.78,1.59,2.59.65-.83,1.74-1.29,1.59-2.58,1.32.14,1.75-1,2.57-1.58-.81-.69-1.31-1.75-2.59-1.6M29.17,40.8c1.42,1.15,1.42,1.81,0,2.94-1.44-1.18-1.44-1.79,0-2.94m-3.36,3.36c1.17-1.45,1.7-1.44,2.93,0-1,1.36-1.71,1.54-2.93,0m3.36,3.35c-1.43-1.12-1.43-1.78,0-2.93,1.43,1.1,1.43,1.86,0,2.93m.42-3.33c1.08-1.45,1.76-1.45,2.91,0-1.06,1.33-1.65,1.58-2.91,0"/><path class="cls-7" d="M39.07,42.57c.17-1.29-.91-1.76-1.56-2.57-.69.81-1.74,1.3-1.64,2.54-1.29-.08-1.73,1-2.54,1.63.83.67,1.3,1.76,2.58,1.57-.14,1.31.94,1.78,1.59,2.59.65-.83,1.74-1.29,1.59-2.58,1.32.14,1.75-1,2.57-1.58-.81-.69-1.31-1.75-2.59-1.6M37.5,40.8c1.42,1.15,1.42,1.81,0,2.94-1.44-1.18-1.43-1.79,0-2.94m-3.35,3.36c1.16-1.45,1.69-1.44,2.92,0-1,1.36-1.71,1.54-2.92,0m3.35,3.35c-1.43-1.12-1.43-1.78,0-2.93,1.43,1.1,1.43,1.86,0,2.93m.42-3.33c1.08-1.45,1.77-1.45,2.91,0-1.06,1.33-1.64,1.58-2.91,0"/><path class="cls-7" d="M47.4,42.57c.17-1.29-.91-1.76-1.56-2.57-.69.81-1.74,1.3-1.64,2.54-1.29-.08-1.72,1-2.54,1.63.83.67,1.31,1.76,2.58,1.57-.14,1.31.94,1.78,1.59,2.59.65-.83,1.74-1.29,1.6-2.58,1.31.14,1.74-1,2.56-1.58-.81-.69-1.3-1.75-2.59-1.6M45.83,40.8c1.42,1.15,1.42,1.81,0,2.94-1.43-1.18-1.43-1.79,0-2.94m-3.35,3.36c1.16-1.45,1.69-1.44,2.92,0-1,1.36-1.71,1.54-2.92,0m3.35,3.35c-1.43-1.12-1.43-1.78,0-2.93,1.43,1.1,1.43,1.86,0,2.93m.42-3.33c1.08-1.45,1.77-1.45,2.92,0-1.06,1.33-1.65,1.58-2.92,0"/></g><path class="cls-13" d="M17.46,50.64V34h8.76v1.8H19.43V40.6h6.79v1.84H19.43v8.2Z"/><path class="cls-13" d="M46.24,42.37a8.6,8.6,0,0,1-.66,3.36,8.34,8.34,0,0,1-1.92,2.8,8.87,8.87,0,0,1-2.9,1.89,9,9,0,0,1-3.4.67,9.05,9.05,0,0,1-6.28-2.56,8.57,8.57,0,0,1,0-12.34A8.81,8.81,0,0,1,34,34.31a9.24,9.24,0,0,1,6.81,0,8.85,8.85,0,0,1,2.89,1.88A8.34,8.34,0,0,1,45.58,39,8.74,8.74,0,0,1,46.24,42.37Zm-8.88,6.85A6.68,6.68,0,0,0,40,48.71a7,7,0,0,0,2.22-1.51A6.69,6.69,0,0,0,43.66,45a6.8,6.8,0,0,0,.51-2.62,7,7,0,0,0-.51-2.65,6.72,6.72,0,0,0-1.49-2.23A6.84,6.84,0,0,0,40,36a6.73,6.73,0,0,0-2.6-.51,6.85,6.85,0,0,0-2.63.51,6.76,6.76,0,0,0-2.19,1.49,7,7,0,0,0-1.49,2.24,6.9,6.9,0,0,0-.51,2.64,6.74,6.74,0,0,0,2,4.83,6.9,6.9,0,0,0,2.22,1.51A6.7,6.7,0,0,0,37.36,49.22Z"/><path class="cls-13" d="M66.46,42.37a8.6,8.6,0,0,1-.66,3.36,8.34,8.34,0,0,1-1.92,2.8A8.76,8.76,0,0,1,61,50.42a8.94,8.94,0,0,1-6.79,0,8.82,8.82,0,0,1-2.89-1.89,8.57,8.57,0,0,1,0-12.34,8.75,8.75,0,0,1,2.89-1.88,9.22,9.22,0,0,1,6.8,0,8.75,8.75,0,0,1,2.89,1.88A8.34,8.34,0,0,1,65.8,39,8.74,8.74,0,0,1,66.46,42.37Zm-8.88,6.85a6.77,6.77,0,0,0,2.6-.51A7,7,0,0,0,62.4,47.2,6.66,6.66,0,0,0,63.88,45a6.8,6.8,0,0,0,.51-2.62,7,7,0,0,0-.51-2.65,6.85,6.85,0,0,0-1.48-2.23A7.06,7.06,0,0,0,60.19,36a6.81,6.81,0,0,0-8.91,3.73,6.9,6.9,0,0,0-.51,2.64,6.74,6.74,0,0,0,.5,2.61,6.94,6.94,0,0,0,1.49,2.22A6.83,6.83,0,0,0,55,48.71,6.61,6.61,0,0,0,57.58,49.22Z"/><path class="cls-13" d="M69.68,50.64V34h3.19a23.62,23.62,0,0,1,5,.36,6.84,6.84,0,0,1,2.54,1.19,7,7,0,0,1,2.16,2.82,10.93,10.93,0,0,1,0,7.88,6.88,6.88,0,0,1-4.65,4,19.6,19.6,0,0,1-4.33.35H69.68Zm2-1.86h1.26a23.24,23.24,0,0,0,4.24-.26,4.74,4.74,0,0,0,2-.92,5.37,5.37,0,0,0,1.55-2.19,9.27,9.27,0,0,0,0-6.15,5.45,5.45,0,0,0-1.56-2.19,4.65,4.65,0,0,0-2-.93,21.31,21.31,0,0,0-4.22-.28H71.68Z"/><path class="cls-13" d="M27.64,68.92,22.72,57.53l-2,10.78H18.88L22.1,51.82l5.54,13.12,5.55-13.12L36.4,68.31H34.56l-2-10.78Z"/><path class="cls-13" d="M38.84,68.31V52.45H47.2v1.72H40.72v4.55H47.2v1.76H40.72v6.07H47.2v1.76Z"/><path class="cls-13" d="M50.39,68.31V51.82L62,64.49v-12h1.8V68.92L52.19,56.39V68.31Z"/><path class="cls-13" d="M67.51,52.45h1.91v9.87a5.15,5.15,0,0,0,1,3.53,5.17,5.17,0,0,0,6.43,0,5.15,5.15,0,0,0,1-3.53V52.45h1.92v9.87a6.71,6.71,0,0,1-1.54,4.81,6.09,6.09,0,0,1-4.61,1.6,6.07,6.07,0,0,1-4.61-1.6,6.71,6.71,0,0,1-1.54-4.81Z"/><path class="cls-13" d="M44.12,26.27a1.65,1.65,0,0,1-1.65-1.65,2,2,0,0,1,2-2A2.5,2.5,0,0,1,47,25.09a.16.16,0,0,1-.16.15.15.15,0,0,1-.15-.15,2.19,2.19,0,0,0-2.19-2.19,1.72,1.72,0,0,0-1.71,1.72A1.35,1.35,0,0,0,44.12,26a1,1,0,0,0,1-1,.8.8,0,0,0-.8-.8.16.16,0,0,1-.15-.16.15.15,0,0,1,.15-.15,1.11,1.11,0,0,1,1.11,1.11,1.34,1.34,0,0,1-1.35,1.35"/><path class="cls-13" d="M44.12,26.44a1.82,1.82,0,0,1-1.82-1.82,2.19,2.19,0,0,1,2.19-2.19,2.67,2.67,0,0,1,2.67,2.66.32.32,0,0,1-.33.32.32.32,0,0,1-.32-.32,2,2,0,0,0-2-2A1.55,1.55,0,0,0,43,24.62a1.17,1.17,0,0,0,1.17,1.17.87.87,0,0,0,.87-.87.63.63,0,0,0-.63-.63A.32.32,0,0,1,44,24a.32.32,0,0,1,.32-.32,1.28,1.28,0,0,1,1.28,1.28,1.52,1.52,0,0,1-1.52,1.52"/><path class="cls-13" d="M48.19,25a2.07,2.07,0,0,1-1.45-.6,2.52,2.52,0,0,1,0-3.57,3.13,3.13,0,0,1,2.2-.91.16.16,0,0,1,.16.16.16.16,0,0,1-.16.15,2.78,2.78,0,0,0-2,.82,2.21,2.21,0,0,0-.65,1.57A2.19,2.19,0,0,0,47,24.21a1.74,1.74,0,0,0,2.46,0,1.35,1.35,0,0,0,.4-1,1.31,1.31,0,0,0-.4-1,1.06,1.06,0,0,0-1.5,0,.14.14,0,0,1-.21,0,.16.16,0,0,1,0-.22,1.33,1.33,0,0,1,1-.4,1.35,1.35,0,0,1,1,.4,1.66,1.66,0,0,1,.49,1.18,1.7,1.7,0,0,1-.49,1.18,2.07,2.07,0,0,1-1.45.6"/><path class="cls-13" d="M48.19,25.2a2.21,2.21,0,0,1-1.57-.65,2.69,2.69,0,0,1,0-3.81,3.27,3.27,0,0,1,2.32-1,.33.33,0,0,1,.33.33.32.32,0,0,1-.33.32,2.61,2.61,0,0,0-1.86.77,2,2,0,0,0,0,2.89,1.61,1.61,0,0,0,2.22,0,1.18,1.18,0,0,0,0-1.68.91.91,0,0,0-1.26,0,.33.33,0,0,1-.45,0,.32.32,0,0,1,0-.46,1.57,1.57,0,0,1,2.17,0,1.83,1.83,0,0,1,0,2.6,2.21,2.21,0,0,1-1.57.65"/><path class="cls-13" d="M56,26.13a1.36,1.36,0,0,1-1.35-1.35,1.11,1.11,0,0,1,1.11-1.11.15.15,0,0,1,.15.15.15.15,0,0,1-.15.16.8.8,0,0,0-.8.8,1,1,0,0,0,1,1,1.34,1.34,0,0,0,1.34-1.34,1.72,1.72,0,0,0-1.71-1.72A2.19,2.19,0,0,0,53.39,25a.15.15,0,0,1-.15.15.15.15,0,0,1-.15-.15,2.48,2.48,0,0,1,2.49-2.49,2,2,0,0,1,2,2A1.65,1.65,0,0,1,56,26.13"/><path class="cls-13" d="M56,26.3a1.52,1.52,0,0,1-1.52-1.52,1.28,1.28,0,0,1,1.28-1.28.32.32,0,0,1,.33.32.33.33,0,0,1-.33.33.63.63,0,0,0-.63.63.87.87,0,0,0,.87.87,1.17,1.17,0,0,0,1.17-1.17,1.55,1.55,0,0,0-1.54-1.55,2,2,0,0,0-2,2,.32.32,0,0,1-.64,0,2.66,2.66,0,0,1,2.66-2.66,2.19,2.19,0,0,1,2.19,2.19A1.83,1.83,0,0,1,56,26.3"/><path class="cls-13" d="M51.75,25a2,2,0,0,1-1.44-.6,1.67,1.67,0,0,1,0-2.36,1.33,1.33,0,0,1,1-.4,1.37,1.37,0,0,1,1,.4.16.16,0,0,1-.22.22,1.06,1.06,0,0,0-1.5,0,1.36,1.36,0,0,0,0,1.92,1.74,1.74,0,0,0,2.46,0,2.19,2.19,0,0,0,.65-1.56A2.21,2.21,0,0,0,53,21.08a2.79,2.79,0,0,0-1.85-.82A.15.15,0,0,1,51,20.1a.14.14,0,0,1,.16-.14,3.07,3.07,0,0,1,2.06.9,2.52,2.52,0,0,1,0,3.57,2.07,2.07,0,0,1-1.45.6"/><path class="cls-13" d="M51.75,25.2a2.21,2.21,0,0,1-1.57-.65,1.86,1.86,0,0,1,0-2.6,1.58,1.58,0,0,1,2.18,0,.33.33,0,0,1-.46.46.91.91,0,0,0-1.26,0,1.2,1.2,0,0,0,0,1.68,1.61,1.61,0,0,0,2.22,0,2,2,0,0,0,0-2.89,2.63,2.63,0,0,0-1.74-.77.32.32,0,0,1-.31-.33.31.31,0,0,1,.35-.31,3.23,3.23,0,0,1,2.16.95,2.69,2.69,0,0,1,0,3.81,2.21,2.21,0,0,1-1.57.65"/><path class="cls-13" d="M43.91,28.31a.15.15,0,0,1-.1-.27,9.67,9.67,0,0,1,12.32,0,.15.15,0,0,1-.19.23,9.4,9.4,0,0,0-11.93,0,.14.14,0,0,1-.1,0"/><path class="cls-13" d="M43.91,28.48a.3.3,0,0,1-.25-.12.33.33,0,0,1,0-.45,9.84,9.84,0,0,1,12.54,0,.3.3,0,0,1,.12.21.33.33,0,0,1-.08.24.3.3,0,0,1-.21.12.38.38,0,0,1-.24-.07,9.21,9.21,0,0,0-11.71,0,.32.32,0,0,1-.21.08"/><path class="cls-13" d="M38.7,28.33a3,3,0,0,1-2.9-3,2.39,2.39,0,0,1,2.35-2.41,1.94,1.94,0,0,1,1.92,2,1.58,1.58,0,0,1-1.56,1.6,1.3,1.3,0,0,1-1.28-1.31.15.15,0,1,1,.3,0,1,1,0,0,0,1,1,1.27,1.27,0,0,0,1.25-1.29,1.63,1.63,0,0,0-1.61-1.65,2.07,2.07,0,0,0-2,2.1A2.63,2.63,0,0,0,38.7,28a.16.16,0,0,1,.16.15.16.16,0,0,1-.16.16"/><path class="cls-13" d="M38.7,28.5a3.11,3.11,0,0,1-3.07-3.15,2.55,2.55,0,0,1,2.52-2.58,2.11,2.11,0,0,1,2.09,2.13,1.76,1.76,0,0,1-1.74,1.77,1.47,1.47,0,0,1-1.44-1.48.32.32,0,1,1,.64,0,.82.82,0,0,0,.8.83,1.11,1.11,0,0,0,1.09-1.12,1.46,1.46,0,0,0-1.44-1.48,1.9,1.9,0,0,0-1.87,1.93,2.47,2.47,0,0,0,2.42,2.5.32.32,0,0,1,.33.32.33.33,0,0,1-.33.33"/><path class="cls-13" d="M61.3,28.33a.16.16,0,0,1-.16-.16A.16.16,0,0,1,61.3,28a2.63,2.63,0,0,0,2.59-2.67,2.07,2.07,0,0,0-2-2.1,1.63,1.63,0,0,0-1.61,1.65,1.27,1.27,0,0,0,1.25,1.29,1,1,0,0,0,1-1,.15.15,0,1,1,.3,0,1.3,1.3,0,0,1-1.28,1.31,1.58,1.58,0,0,1-1.56-1.6,1.94,1.94,0,0,1,1.92-2,2.39,2.39,0,0,1,2.35,2.41,3,3,0,0,1-2.9,3"/><path class="cls-13" d="M61.3,28.5a.33.33,0,0,1-.33-.33.32.32,0,0,1,.33-.32,2.47,2.47,0,0,0,2.42-2.5,1.9,1.9,0,0,0-1.87-1.93,1.46,1.46,0,0,0-1.44,1.48A1.1,1.1,0,0,0,61.49,26a.82.82,0,0,0,.81-.83.32.32,0,1,1,.64,0,1.47,1.47,0,0,1-1.45,1.48,1.76,1.76,0,0,1-1.73-1.77,2.11,2.11,0,0,1,2.09-2.13,2.55,2.55,0,0,1,2.52,2.58A3.11,3.11,0,0,1,61.3,28.5"/><path class="cls-13" d="M61.69,28.33H38.37s-.07-.07-.07-.16,0-.15.07-.15H61.69s.07.07.07.15,0,.16-.07.16"/><path class="cls-13" d="M61.69,28.5H38.37c-.14,0-.24-.13-.24-.33s.1-.32.24-.32H61.69c.14,0,.24.13.24.32s-.1.33-.24.33"/><path class="cls-13" d="M50,23.23l-.15-.43a23.15,23.15,0,0,1-.88-3.1,1,1,0,0,1,2.06,0,23.15,23.15,0,0,1-.88,3.1ZM50,19a.72.72,0,0,0-.72.72A18,18,0,0,0,50,22.27a18,18,0,0,0,.72-2.57A.72.72,0,0,0,50,19"/><path class="cls-13" d="M50,23.75l-.31-.89a22,22,0,0,1-.89-3.16,1.2,1.2,0,0,1,2.4,0,22,22,0,0,1-.89,3.16Zm0-4.6a.55.55,0,0,0-.55.55,12.78,12.78,0,0,0,.55,2,12.78,12.78,0,0,0,.55-2,.55.55,0,0,0-.55-.55"/></svg>