<svg xmlns="http://www.w3.org/2000/svg" viewBox="0 0 436.58 98.03"><defs><style>.cls-1{fill:#fae5d1;}.cls-2{fill:#1d2e18;}.cls-3{fill:#5f8345;}</style></defs><g id="Layer_2" data-name="Layer 2"><g id="Layer_1-2" data-name="Layer 1"><path class="cls-1" d="M350.71,4c-.82-1.71-2.3-3.52-4.25-4-2.13-.47-3.63,1.17-4.41,3-2.08,4.76-1.22,10.29-.13,15.18a59.42,59.42,0,0,0,3.24,10.24c1.37,3.25,3.27,6.33,3.12,10,0,.3.28.41.53.34a.84.84,0,0,0,1.37-.48,121.23,121.23,0,0,0,2.05-18.62C352.37,14.75,352.93,8.64,350.71,4Z"/><path class="cls-1" d="M356.09,34.2a50.44,50.44,0,0,1,4-4.5c2.76-2.84,6-5.84,7.48-9.6A8.39,8.39,0,0,0,367.9,14c-.76-1.88-2.17-2.7-4.08-1.89-4.05,1.71-6,6.42-7.41,10.24-1.06,2.78-2.05,5.59-3.07,8.39-.54,1.45-1,2.92-1.54,4.39a15.67,15.67,0,0,0-1.08,4.08c0,.35.35.43.59.28.46.64,1.45.89,1.86,0A26.44,26.44,0,0,1,356.09,34.2Z"/><path class="cls-1" d="M374.35,25.4c-3.79-.36-7.19,2.44-9.87,4.76-2,1.68-3.86,3.42-5.79,5.13-1,.89-2,1.81-3,2.72a13.19,13.19,0,0,0-2.5,2.67c-.16.26.09.47.33.45.09.68.74,1.28,1.43.76a23.33,23.33,0,0,1,4.38-2.81,45,45,0,0,1,4.92-1.77c3.28-1,7-2,9.65-4.24a7.26,7.26,0,0,0,2.76-4.55C376.88,26.77,376.14,25.57,374.35,25.4Z"/><path class="cls-1" d="M343.79,30.26c-1.61-2.5-3.2-5-4.85-7.5-2.26-3.41-5.17-7.57-9.49-8.35-2.05-.37-3.24.74-3.56,2.74a8.43,8.43,0,0,0,1.65,5.92c2.29,3.34,6.1,5.55,9.42,7.7a51.68,51.68,0,0,1,4.93,3.5,26.22,26.22,0,0,1,4,4.48c.6.78,1.51.32,1.82-.41.26.1.61-.06.51-.4a15.35,15.35,0,0,0-2-3.74C345.45,32.88,344.63,31.56,343.79,30.26Z"/><path class="cls-1" d="M343.09,37.9c-1.16-.67-2.33-1.34-3.5-2-2.26-1.24-4.51-2.51-6.79-3.72-3.12-1.66-7.06-3.64-10.67-2.46-1.71.57-2.16,1.9-1.59,3.56a7.32,7.32,0,0,0,3.7,3.83c3.11,1.6,6.93,1.72,10.35,2a43,43,0,0,1,5.19.64,23.11,23.11,0,0,1,4.9,1.76c.78.36,1.29-.37,1.22-1.05.24,0,.44-.3.22-.52A13.35,13.35,0,0,0,343.09,37.9Z"/><path class="cls-2" d="M345.29,40.72a.3.3,0,0,1-.23-.11,8,8,0,0,0-3.36-2.12,118.45,118.45,0,0,0-15.24-5.09.29.29,0,1,1,.15-.57A120.24,120.24,0,0,1,341.93,38a8.51,8.51,0,0,1,3.59,2.29.29.29,0,0,1,0,.41A.26.26,0,0,1,345.29,40.72Z"/><path class="cls-2" d="M354.57,39.55a.3.3,0,0,1-.25-.14.32.32,0,0,1,.1-.41c5.28-3.12,10.7-6.25,16.11-9.31a.29.29,0,1,1,.29.51c-5.41,3.05-10.82,6.18-16.1,9.31A.24.24,0,0,1,354.57,39.55Z"/><path class="cls-2" d="M352.66,37.6l-.11,0a.29.29,0,0,1-.16-.38,54.89,54.89,0,0,1,8.79-14.44.31.31,0,0,1,.42,0,.29.29,0,0,1,0,.41,54.13,54.13,0,0,0-8.7,14.28A.28.28,0,0,1,352.66,37.6Z"/><path class="cls-2" d="M349.57,36.61a.29.29,0,0,1-.29-.27c-.45-6.94-1-14-1.65-20.92a.29.29,0,0,1,.26-.32.3.3,0,0,1,.32.26c.65,7,1.21,14,1.66,20.94a.29.29,0,0,1-.28.31Z"/><path class="cls-2" d="M347.24,38.59a.28.28,0,0,1-.22-.11c-4.59-5.61-9.13-11.41-13.48-17.24a.3.3,0,0,1,.06-.41.29.29,0,0,1,.41.06c4.35,5.82,8.88,11.62,13.46,17.22a.3.3,0,0,1,0,.41A.28.28,0,0,1,347.24,38.59Z"/><path class="cls-1" d="M433.88,66.86a6,6,0,0,0,2.69-4.23c.07-1.88-1.55-2.89-3.19-3.28-4.37-1-8.92.57-12.9,2.26A51.78,51.78,0,0,0,412.29,66c-2.55,1.67-4.87,3.76-8,4.2a.33.33,0,0,0-.21.51.73.73,0,0,0,.62,1.09,103.55,103.55,0,0,0,16.12-1.17C425.05,70,430.33,69.46,433.88,66.86Z"/><path class="cls-1" d="M409.13,76.13a42.88,42.88,0,0,1,4.44,2.72c2.84,1.9,5.89,4.17,9.32,4.84a7.2,7.2,0,0,0,5.25-.7c1.48-.93,1.95-2.25,1-3.75-2.09-3.17-6.38-4.06-9.85-4.7-2.53-.46-5.07-.86-7.6-1.29-1.32-.22-2.64-.42-4-.62a13.42,13.42,0,0,0-3.63-.27c-.3,0-.31.36-.15.54-.47.49-.53,1.37.3,1.58A22.6,22.6,0,0,1,409.13,76.13Z"/><path class="cls-1" d="M419.44,90.26c-.28-3.28-3.19-5.72-5.57-7.63-1.74-1.4-3.51-2.75-5.27-4.12-.91-.71-1.84-1.4-2.76-2.1a11.71,11.71,0,0,0-2.66-1.71c-.25-.09-.39.15-.34.36-.56.17-1,.82-.42,1.32a19.93,19.93,0,0,1,3.07,3.29,36.87,36.87,0,0,1,2.27,3.89c1.39,2.62,2.78,5.61,5.11,7.53a6.24,6.24,0,0,0,4.29,1.63C418.67,92.62,419.58,91.81,419.44,90.26Z"/><path class="cls-1" d="M410.55,65.08c1.87-1.76,3.76-3.5,5.61-5.29,2.53-2.45,5.62-5.57,5.6-9.36,0-1.8-1.14-2.63-2.88-2.59a7.25,7.25,0,0,0-4.77,2.33c-2.47,2.46-3.75,6-5.06,9.19a45.13,45.13,0,0,1-2.2,4.73,22.54,22.54,0,0,1-3.18,4.09c-.57.64,0,1.34.63,1.49,0,.24.15.5.42.37a13.58,13.58,0,0,0,2.87-2.25C408.58,66.89,409.58,66,410.55,65.08Z"/><path class="cls-1" d="M404,65.68c.38-1.09.77-2.18,1.13-3.28.71-2.12,1.43-4.22,2.11-6.35.92-2.91,2-6.55.41-9.44-.74-1.36-1.95-1.54-3.26-.79a6.28,6.28,0,0,0-2.68,3.74c-.87,2.89-.37,6.15-.08,9.1a35.64,35.64,0,0,1,.27,4.5,19.53,19.53,0,0,1-.73,4.43c-.18.72.52,1,1.09.88.07.19.32.32.47.1A11.87,11.87,0,0,0,404,65.68Z"/><path class="cls-2" d="M402.81,67.65h0a.29.29,0,0,1-.26-.32,101.11,101.11,0,0,1,2.92-16.47.28.28,0,0,1,.36-.21A.3.3,0,0,1,406,51a99.91,99.91,0,0,0-2.91,16.37A.29.29,0,0,1,402.81,67.65Z"/><path class="cls-2" d="M405.44,69.13a.26.26,0,0,1-.2-.08.29.29,0,0,1,0-.41,80.71,80.71,0,0,0,10.25-13.59.28.28,0,0,1,.4-.1.29.29,0,0,1,.1.4A80.93,80.93,0,0,1,405.65,69,.29.29,0,0,1,405.44,69.13Z"/><path class="cls-2" d="M405.22,71.79a.29.29,0,0,1-.28-.21.29.29,0,0,1,.19-.37l20.09-6.44a.29.29,0,1,1,.18.56l-20.09,6.44Z"/><path class="cls-2" d="M420.21,79.47l-.08,0A92,92,0,0,1,406,73.84a.29.29,0,0,1-.14-.39.3.3,0,0,1,.4-.14,90.86,90.86,0,0,0,14.08,5.58.3.3,0,0,1,.19.37A.29.29,0,0,1,420.21,79.47Z"/><path class="cls-2" d="M414.79,86.75a.42.42,0,0,1-.15,0A20.63,20.63,0,0,1,410.38,83l-6.62-6.87a.29.29,0,0,1,0-.41.3.3,0,0,1,.42,0l6.62,6.87a19.89,19.89,0,0,0,4.14,3.58.29.29,0,0,1,.1.4A.27.27,0,0,1,414.79,86.75Z"/><path class="cls-1" d="M402.23,28.21a40.59,40.59,0,0,0,7-10.37,6.75,6.75,0,0,0,0-6,4.14,4.14,0,0,0-5.41-2c-4.22,2-6.33,7.61-7.69,11.72a75.37,75.37,0,0,0-3.79,15.77.68.68,0,0,0,.22.55.79.79,0,0,0,1.4.63l0,0c.65-1,1.42-2.06,2-3.14C398,32.83,400.15,30.54,402.23,28.21Z"/><path class="cls-1" d="M419.31,26.16c-.71-1.9-3.33-2.05-5-1.8-3.87.59-7.67,2.93-10.74,5.26A42.9,42.9,0,0,0,398.71,34a19.29,19.29,0,0,0-4.09,5.36c-.21.46.24.79.64.71a.59.59,0,0,0,.26.1,6.73,6.73,0,0,0,2.63-.79c1.07-.4,2.18-.74,3.28-1,2-.55,4-1.05,6-1.66a21.14,21.14,0,0,0,9.67-5.63C418.18,29.88,420,27.86,419.31,26.16Z"/><path class="cls-1" d="M414.12,39.31c-2.37-1.09-5.52-.3-8,0a54.45,54.45,0,0,0-10,2c-.09,0-.13.1-.19.16a.77.77,0,0,0-.13,1.49,18.66,18.66,0,0,0,4.35.41c1.51.07,3,.08,4.53.06s3-.08,4.52-.15a33.22,33.22,0,0,0,4.11-.25,2.46,2.46,0,0,0,2.06-1.46A2,2,0,0,0,414.12,39.31Z"/><path class="cls-1" d="M377.87,24.91c0,2.6,2,5.15,3.33,7.24a55.77,55.77,0,0,0,5.94,8.28.37.37,0,0,0,.22.1.76.76,0,0,0,1.41-.5,19.22,19.22,0,0,0-1.42-4.13c-.56-1.4-1.18-2.77-1.82-4.14s-1.32-2.72-2-4.06a34,34,0,0,0-1.93-3.63,2.44,2.44,0,0,0-2.17-1.28A2,2,0,0,0,377.87,24.91Z"/><path class="cls-1" d="M391.92,24.15c-.13-4.1-.28-8.7-2.15-12.45-.71-1.43-1.82-3.27-3.5-3.65-1.87-.42-2.74,1.23-3.06,2.77a24,24,0,0,0,1,13c.86,2.35,2,4.58,2.83,7a34.13,34.13,0,0,1,1.1,4.08,12.27,12.27,0,0,0,.91,3.62c.31.54,1.31.75,1.53,0a4.18,4.18,0,0,0,.17-1,5.27,5.27,0,0,0,.65-2.1,37.47,37.47,0,0,0,.39-4.09Q392,27.69,391.92,24.15Z"/><path class="cls-2" d="M386.62,39.48a.31.31,0,0,1-.28-.18l-2-5.2a21.46,21.46,0,0,0-3-5.88.3.3,0,0,1,0-.42.29.29,0,0,1,.41.05,22.1,22.1,0,0,1,3.08,6l2,5.2a.3.3,0,0,1-.17.38Z"/><path class="cls-2" d="M390.07,36.66a.29.29,0,0,1-.29-.25l-1.2-8A105.71,105.71,0,0,0,385.73,14a.28.28,0,0,1,.19-.36.3.3,0,0,1,.37.19,104.6,104.6,0,0,1,2.86,14.43l1.21,8a.31.31,0,0,1-.25.34Z"/><path class="cls-2" d="M393.38,38.06a.25.25,0,0,1-.14,0,.28.28,0,0,1-.12-.39,191.74,191.74,0,0,1,12.22-20.26.28.28,0,0,1,.4-.08.29.29,0,0,1,.08.41,193.29,193.29,0,0,0-12.18,20.2A.3.3,0,0,1,393.38,38.06Z"/><path class="cls-2" d="M394.78,40.33a.28.28,0,0,1-.24-.13.29.29,0,0,1,.07-.4,88.28,88.28,0,0,1,18.25-9.65.29.29,0,1,1,.21.55A87.5,87.5,0,0,0,395,40.28.34.34,0,0,1,394.78,40.33Z"/><path class="cls-2" d="M395.38,43.05a.29.29,0,0,1-.07-.58,49.75,49.75,0,0,1,14.08-1.24.28.28,0,0,1,.28.3.28.28,0,0,1-.31.28A49.29,49.29,0,0,0,395.45,43Z"/><path class="cls-3" d="M408.38,69.32a6.42,6.42,0,0,0-1.33-2.41,2.65,2.65,0,0,0-.41-.41l0,0a1,1,0,0,0-.09-.13,3.44,3.44,0,0,0-.36-.28,1.24,1.24,0,0,0-.14-.18,4.51,4.51,0,0,0-1.82-1,5.4,5.4,0,0,0-.91-.15,7.49,7.49,0,0,0-2.11.06,3.9,3.9,0,0,0-.57.13,7,7,0,0,0-1.35.58,5.89,5.89,0,0,0-1.63,1.44,8.25,8.25,0,0,0-.82,1.12,2.91,2.91,0,0,0-.38,1l0,.26h0a4.76,4.76,0,0,0-.23.82,3.49,3.49,0,0,0,0,1,5.15,5.15,0,0,0,0,.68,52.37,52.37,0,0,1-14.91,4.31,76.94,76.94,0,0,1-21.95-.94A79,79,0,0,1,333.22,65a73,73,0,0,0,7.55.64,117.63,117.63,0,0,0,22-1.1c10.45-1.51,25.57-5.3,28.62-17.14a5.63,5.63,0,0,0,1.65-.5,6.1,6.1,0,0,0,3.51-3,6.2,6.2,0,0,0,1.17-2.49,5.33,5.33,0,0,0-.74-4.1,6.06,6.06,0,0,0-3.13-2.29,5.68,5.68,0,0,0-2.23-.23,4.09,4.09,0,0,0-1.56.15,6,6,0,0,0-2.83,2.11,7.92,7.92,0,0,0-1.72,3.39,6,6,0,0,0,.58,4.17,5.87,5.87,0,0,0,3.2,2.62l.22,0C384.33,58.08,372.24,61.1,361,62.6a126.66,126.66,0,0,1-19.75,1.08,51,51,0,0,1-9.93-1.06,34.48,34.48,0,0,1-3.86-1.2c-2.32-1.54-4.61-3.16-6.87-4.81a19,19,0,0,0,5.5,1.06,41,41,0,0,0,10.3-.8c3.2-.58,6.4-1.36,9-3.45,1.4-1.14,3.36-3.29,3.76-5.36l.29,0a5.59,5.59,0,0,0,2.64-.6,5.34,5.34,0,0,0,1.5-1l.16-.07a6.09,6.09,0,0,0,2.63-2.47,5.74,5.74,0,0,0,.6-1.62,6.83,6.83,0,0,0,0-2.51A6.14,6.14,0,0,0,352.26,35a6.66,6.66,0,0,0-6.62,2.13A7.39,7.39,0,0,0,344,40.27a7,7,0,0,0,.16,3.79,5.94,5.94,0,0,0,2.8,3.38,8.09,8.09,0,0,0,.84.33c-.3.54-.55,1.11-.91,1.64a13,13,0,0,1-2.74,3c-2.5,1.94-5.68,2.56-8.72,3.09a41.18,41.18,0,0,1-8.87.71c-3.06-.13-5.72-1.24-8.66-1.89a.23.23,0,0,0-.27.12c-2.74-2.06-5.45-4.14-8.18-6.2-3-2.27-6.05-5.11-9.46-6.88l-.74-.6c7.16-8.58,9.38-21.86,4.56-31.74a16.55,16.55,0,0,0-7.72-7.8c-2.66-1.23-6.78-2.18-8.89.51-1.69,2.15-1.14,5.37.42,7.43,2.56,3.37,7.18,4.13,9.64,7.69,4.38,6.35,2.7,14.94-1.91,20.74l-.85-.7a70.13,70.13,0,0,0-9.37-6.71,47.35,47.35,0,0,0-21.58-7.07c-1.46-.08-2.91-.08-4.36,0a18,18,0,0,0-11.75-4.74c-9-.2-16.46,6.81-21.33,13.73a42.66,42.66,0,0,0-7.85,23.19,13.53,13.53,0,0,0-.23,5.78.36.36,0,0,0,.66.09,20.09,20.09,0,0,0,.95-2.13.43.43,0,0,0,.22-.2c4.42-7.5,13-13.55,22-13.39,8.3.15,14.25,6,19.13,12.21a14.32,14.32,0,0,0-6.61-2c-3.83,0-5.11,5.07-5.52,8-1.21,8.86,3.83,18.11,9.75,24.38a22.69,22.69,0,0,0,11.09,6.24,112.68,112.68,0,0,0,15.39,3.28c9,1.15,17.81,0,25.73-4.45,7.31-4.13,13.83-11,16.33-19.14.13-.09.27-.16.4-.26a1,1,0,0,0-1-1.74,40.73,40.73,0,0,1-11,3.9c-4.27.88-8.88,1.82-13.2.77-6.82-1.66-11.24-7.61-15.44-12.77-3.86-4.76-8.32-9.71-14.43-11.45-2.65-.76-5.84-1-8.18.76a6.26,6.26,0,0,0-1.94,2.47C256.2,48.28,249,42.53,239.1,43.87c-6.34.85-13.5,4.45-17.66,9.83.1-.29.18-.57.29-.86a42.31,42.31,0,0,1,4.63-9.09A41,41,0,0,1,241,30.45a40.12,40.12,0,0,1,18.27-4.75c3.73,4.08,6.13,9.64,9.28,14.18a12.74,12.74,0,0,0,3.28,4c4.13,4.1,9.46,6.42,15.63,4.75a23.11,23.11,0,0,0,10.52-6.36c2.44,3,6.06,5.29,9.08,7.63s6.23,4.82,9.39,7.18a153.83,153.83,0,0,0,19.51,12.85A79,79,0,0,0,380.86,79c5.34-.55,11.26-1.71,16.06-4.53.05.1.09.2.14.29a6.27,6.27,0,0,0,2.12,2.07,5.1,5.1,0,0,0,3.8.52,3.78,3.78,0,0,0,.79-.3l.3,0a5.42,5.42,0,0,0,1.45-.55,5.89,5.89,0,0,0,1.14-.84,4.47,4.47,0,0,0,.64-.73,4.39,4.39,0,0,0,.54-.81,7,7,0,0,0,.75-2.73A5.83,5.83,0,0,0,408.38,69.32ZM225.84,40.1a44.83,44.83,0,0,0-5.33,9,43.2,43.2,0,0,1,7-16.21c5.39-7.55,13.95-14.92,23.85-12.19a15.49,15.49,0,0,1,5.21,2.57A43.72,43.72,0,0,0,225.84,40.1Zm67,.19c-6.62,5.63-15.44,4.86-21.67-.36a107,107,0,0,1-5.76-9.19,36.84,36.84,0,0,0-3.56-5A46,46,0,0,1,282.68,32c3.6,2.07,7,4.47,10.45,6.74l.79.55C293.56,39.6,293.19,40,292.8,40.29Z"/><path class="cls-2" d="M296.45,85.77a22.21,22.21,0,0,1-3-.19,28.58,28.58,0,0,1-8.24-2.52,44.74,44.74,0,0,1-23.61-26.67.29.29,0,0,1,.19-.37.28.28,0,0,1,.36.19,44.21,44.21,0,0,0,23.31,26.32A28.26,28.26,0,0,0,293.5,85a33.06,33.06,0,0,0,11.67-1,69.84,69.84,0,0,0,13.61-4.79.29.29,0,0,1,.39.14.29.29,0,0,1-.14.39,70.74,70.74,0,0,1-13.72,4.83A39.09,39.09,0,0,1,296.45,85.77Z"/><path class="cls-2" d="M292.57,40.76a.25.25,0,0,1-.22-.11.28.28,0,0,1,0-.41,17.33,17.33,0,0,0,4.2-4.9.29.29,0,1,1,.51.29,18.21,18.21,0,0,1-4.34,5.07A.33.33,0,0,1,292.57,40.76Z"/><path class="cls-2" d="M295.36,45.13a.29.29,0,0,1-.18-.53,23.58,23.58,0,0,0,6.94-8.26.29.29,0,0,1,.39-.13.31.31,0,0,1,.13.4,24.21,24.21,0,0,1-7.11,8.46A.27.27,0,0,1,295.36,45.13Z"/><path class="cls-2" d="M324.42,59.43a.28.28,0,0,1-.15,0,57.47,57.47,0,0,1-8.64-6.4.29.29,0,1,1,.39-.43,58.16,58.16,0,0,0,8.55,6.33.29.29,0,0,1,.1.4A.29.29,0,0,1,324.42,59.43Z"/><path class="cls-2" d="M334.9,66.19h0a7.74,7.74,0,0,1-2.68-1.05,28.56,28.56,0,0,1-5.1-3.69.29.29,0,0,1,0-.41.3.3,0,0,1,.42,0,28.19,28.19,0,0,0,5,3.61,7.31,7.31,0,0,0,2.48,1,.3.3,0,0,1-.05.59Z"/><path class="cls-2" d="M397.75,76.09a.3.3,0,0,1-.25-.14,9.51,9.51,0,0,1-1.16-7.25.29.29,0,0,1,.35-.21.29.29,0,0,1,.22.35,8.92,8.92,0,0,0,1.09,6.8.31.31,0,0,1-.09.41A.32.32,0,0,1,397.75,76.09Z"/><path class="cls-2" d="M390.5,47.73a6.12,6.12,0,0,1-1.66-.22,3.85,3.85,0,0,1-2.25-1.68.29.29,0,0,1,.1-.4.29.29,0,0,1,.4.11,3.26,3.26,0,0,0,1.91,1.4,6.3,6.3,0,0,0,2.51.14,2.77,2.77,0,0,0,2-.86.29.29,0,1,1,.46.35,3.37,3.37,0,0,1-2.38,1.09A10.46,10.46,0,0,1,390.5,47.73Z"/><path class="cls-2" d="M349.86,48.31a7.22,7.22,0,0,1-2.87-.58,1.87,1.87,0,0,1-1.21-1.13.29.29,0,1,1,.56-.16c.08.29.37.54.88.76a6.88,6.88,0,0,0,5.86-.27.3.3,0,0,1,.28.52A7.43,7.43,0,0,1,349.86,48.31Z"/><path class="cls-2" d="M264.53,26.29h-.08a9.93,9.93,0,0,0-2.72-.19L256,26.2h0a.3.3,0,0,1-.3-.28.29.29,0,0,1,.29-.3l5.72-.12a10.55,10.55,0,0,1,2.88.22.29.29,0,0,1,.21.35A.28.28,0,0,1,264.53,26.29Z"/><path class="cls-2" d="M252.36,24.24a.29.29,0,0,1-.29-.25.28.28,0,0,1,.24-.33c4.81-.77,9.77-1.57,14.71-.73a.29.29,0,0,1-.1.58c-4.84-.83-9.76,0-14.51.73Z"/><path class="cls-2" d="M218.33,60.45h0a.29.29,0,0,1-.27-.31A42.11,42.11,0,0,1,221.5,46a.29.29,0,0,1,.39-.15.3.3,0,0,1,.15.39,41.65,41.65,0,0,0-3.42,13.93A.29.29,0,0,1,218.33,60.45Z"/><path class="cls-2" d="M218.3,61.66h-.07a.29.29,0,0,1-.22-.35,33.89,33.89,0,0,1,3.48-8.74.29.29,0,1,1,.51.29,33.59,33.59,0,0,0-3.42,8.59A.29.29,0,0,1,218.3,61.66Z"/><path class="cls-2" d="M274.46,79.38a.31.31,0,0,1-.18-.07,53.94,53.94,0,0,1-16.35-21.69.29.29,0,0,1,.54-.22,53.35,53.35,0,0,0,16.17,21.45.29.29,0,0,1,.05.41A.28.28,0,0,1,274.46,79.38Z"/><path class="cls-2" d="M268.3,79.57a.27.27,0,0,1-.2-.08,53.62,53.62,0,0,1-13.63-20.87.29.29,0,0,1,.18-.37.28.28,0,0,1,.37.17A53.15,53.15,0,0,0,268.5,79.07a.29.29,0,0,1,0,.41A.31.31,0,0,1,268.3,79.57Z"/><path class="cls-2" d="M259.1,75.31a.3.3,0,0,1-.24-.12,62.49,62.49,0,0,1-7.55-14.64.29.29,0,0,1,.55-.19,61.82,61.82,0,0,0,7.48,14.49.3.3,0,0,1-.07.41A.34.34,0,0,1,259.1,75.31Z"/><path class="cls-2" d="M253.07,72.34a.3.3,0,0,1-.26-.16l-2.6-5.24a.3.3,0,0,1,.14-.4.29.29,0,0,1,.39.14l2.6,5.24a.29.29,0,0,1-.14.39A.28.28,0,0,1,253.07,72.34Z"/><path class="cls-2" d="M273.29,67.1a.33.33,0,0,1-.23-.12l-9.38-12.69a.29.29,0,0,1,.47-.35l9.38,12.69a.29.29,0,0,1-.06.41A.28.28,0,0,1,273.29,67.1Z"/><path class="cls-2" d="M273.67,61.11a.31.31,0,0,1-.23-.11,58.93,58.93,0,0,0-6.27-6.76.3.3,0,0,1,0-.41.29.29,0,0,1,.41,0,60,60,0,0,1,6.33,6.82.31.31,0,0,1,0,.42A.33.33,0,0,1,273.67,61.11Z"/><path class="cls-2" d="M277.48,60.67a.28.28,0,0,1-.2-.08l-5.34-5.13a.29.29,0,1,1,.4-.42l5.34,5.12a.3.3,0,0,1,0,.42A.29.29,0,0,1,277.48,60.67Z"/><path class="cls-1" d="M85.87,4c.82-1.71,2.3-3.52,4.25-4,2.13-.47,3.62,1.17,4.41,3,2.07,4.76,1.22,10.29.12,15.18a60.27,60.27,0,0,1-3.23,10.24c-1.37,3.25-3.27,6.33-3.12,10,0,.3-.28.41-.53.34a.85.85,0,0,1-1.38-.48,122.48,122.48,0,0,1-2-18.62C84.2,14.75,83.65,8.64,85.87,4Z"/><path class="cls-1" d="M80.49,34.2a49,49,0,0,0-4-4.5c-2.76-2.84-6-5.84-7.47-9.6A8.39,8.39,0,0,1,68.68,14c.76-1.88,2.16-2.7,4.08-1.89,4,1.71,6,6.42,7.41,10.24,1.06,2.78,2,5.59,3.07,8.39.53,1.45,1,2.92,1.54,4.39a15.26,15.26,0,0,1,1.07,4.08c0,.35-.35.43-.58.28-.46.64-1.45.89-1.87,0A26.39,26.39,0,0,0,80.49,34.2Z"/><path class="cls-1" d="M62.23,25.4C66,25,69.41,27.84,72.1,30.16c2,1.68,3.86,3.42,5.79,5.13,1,.89,2,1.81,3,2.72a13.24,13.24,0,0,1,2.51,2.67c.16.26-.09.47-.34.45-.08.68-.73,1.28-1.42.76a24,24,0,0,0-4.38-2.81,44.47,44.47,0,0,0-4.93-1.77c-3.27-1-7-2-9.65-4.24a7.3,7.3,0,0,1-2.76-4.55C59.7,26.77,60.43,25.57,62.23,25.4Z"/><path class="cls-1" d="M92.78,30.26c1.62-2.5,3.2-5,4.85-7.5,2.27-3.41,5.18-7.57,9.5-8.35,2.05-.37,3.24.74,3.56,2.74A8.39,8.39,0,0,1,109,23.07c-2.28,3.34-6.1,5.55-9.42,7.7a52.84,52.84,0,0,0-4.92,3.5,26.22,26.22,0,0,0-4,4.48c-.6.78-1.52.32-1.82-.41-.27.1-.61-.06-.51-.4a15.67,15.67,0,0,1,2-3.74C91.13,32.88,91.94,31.56,92.78,30.26Z"/><path class="cls-1" d="M93.48,37.9c1.17-.67,2.33-1.34,3.51-2,2.26-1.24,4.51-2.51,6.78-3.72,3.13-1.66,7.06-3.64,10.68-2.46,1.71.57,2.16,1.9,1.58,3.56a7.25,7.25,0,0,1-3.7,3.83c-3.11,1.6-6.93,1.72-10.35,2a43.27,43.27,0,0,0-5.19.64,22.84,22.84,0,0,0-4.89,1.76c-.79.36-1.29-.37-1.23-1.05-.24,0-.43-.3-.22-.52A13.58,13.58,0,0,1,93.48,37.9Z"/><path class="cls-2" d="M91.29,40.72a.28.28,0,0,1-.19-.07.3.3,0,0,1,0-.41A8.44,8.44,0,0,1,94.65,38,119.71,119.71,0,0,1,110,32.83a.3.3,0,0,1,.36.21.3.3,0,0,1-.21.36,117.94,117.94,0,0,0-15.24,5.09,8,8,0,0,0-3.36,2.12A.31.31,0,0,1,91.29,40.72Z"/><path class="cls-2" d="M82,39.55a.28.28,0,0,1-.15,0c-5.3-3.14-10.72-6.27-16.09-9.31a.29.29,0,0,1,.29-.51c5.38,3,10.79,6.17,16.1,9.31a.3.3,0,0,1,.1.41A.29.29,0,0,1,82,39.55Z"/><path class="cls-2" d="M83.91,37.6a.3.3,0,0,1-.27-.18A54.1,54.1,0,0,0,75,23.14a.29.29,0,0,1,0-.41.3.3,0,0,1,.41,0A54.36,54.36,0,0,1,84.18,37.2a.28.28,0,0,1-.15.38Z"/><path class="cls-2" d="M87,36.61h0a.29.29,0,0,1-.27-.31c.45-6.93,1-14,1.66-20.94a.29.29,0,0,1,.32-.26.29.29,0,0,1,.26.32c-.65,7-1.21,14-1.66,20.92A.29.29,0,0,1,87,36.61Z"/><path class="cls-2" d="M89.33,38.59a.26.26,0,0,1-.18-.07.28.28,0,0,1,0-.41c4.59-5.61,9.11-11.4,13.45-17.22a.29.29,0,1,1,.47.35c-4.34,5.83-8.87,11.63-13.47,17.24A.3.3,0,0,1,89.33,38.59Z"/><path class="cls-1" d="M2.69,66.86A6,6,0,0,1,0,62.63c-.06-1.88,1.55-2.89,3.2-3.28,4.37-1,8.92.57,12.9,2.26A51.78,51.78,0,0,1,24.29,66c2.54,1.67,4.87,3.76,8,4.2.26,0,.3.31.21.51a.73.73,0,0,1-.62,1.09,103.68,103.68,0,0,1-16.13-1.17C11.52,70,6.25,69.46,2.69,66.86Z"/><path class="cls-1" d="M27.45,76.13A44.11,44.11,0,0,0,23,78.85c-2.84,1.9-5.89,4.17-9.31,4.84A7.23,7.23,0,0,1,8.43,83c-1.47-.93-1.95-2.25-1-3.75,2.09-3.17,6.38-4.06,9.85-4.7,2.53-.46,5.07-.86,7.6-1.29,1.32-.22,2.64-.42,4-.62a13.53,13.53,0,0,1,3.64-.27c.3,0,.31.36.15.54.47.49.53,1.37-.3,1.58A22.43,22.43,0,0,0,27.45,76.13Z"/><path class="cls-1" d="M17.13,90.26c.29-3.28,3.2-5.72,5.58-7.63,1.74-1.4,3.51-2.75,5.26-4.12.92-.71,1.84-1.4,2.77-2.1A11.71,11.71,0,0,1,33.4,74.7c.24-.09.39.15.33.36.56.17,1,.82.43,1.32a19.52,19.52,0,0,0-3.07,3.29,36.87,36.87,0,0,0-2.27,3.89c-1.39,2.62-2.78,5.61-5.11,7.53a6.26,6.26,0,0,1-4.3,1.63C17.9,92.62,17,91.81,17.13,90.26Z"/><path class="cls-1" d="M26,65.08c-1.88-1.76-3.77-3.5-5.61-5.29-2.54-2.45-5.62-5.57-5.6-9.36,0-1.8,1.13-2.63,2.88-2.59a7.21,7.21,0,0,1,4.76,2.33c2.48,2.46,3.76,6,5.07,9.19a43.19,43.19,0,0,0,2.2,4.73,22.11,22.11,0,0,0,3.18,4.09c.57.64,0,1.34-.63,1.49,0,.24-.15.5-.42.37A13.89,13.89,0,0,1,29,67.79C28,66.89,27,66,26,65.08Z"/><path class="cls-1" d="M32.62,65.68c-.38-1.09-.77-2.18-1.14-3.28-.7-2.12-1.42-4.22-2.1-6.35-.92-2.91-2-6.55-.41-9.44.74-1.36,2-1.54,3.26-.79a6.23,6.23,0,0,1,2.67,3.74c.88,2.89.38,6.15.08,9.1a39.81,39.81,0,0,0-.27,4.5,20.11,20.11,0,0,0,.74,4.43c.18.72-.52,1-1.09.88-.07.19-.32.32-.47.1A11.5,11.5,0,0,1,32.62,65.68Z"/><path class="cls-2" d="M33.77,67.65a.29.29,0,0,1-.29-.27A102.07,102.07,0,0,0,30.57,51a.29.29,0,0,1,.21-.36.28.28,0,0,1,.36.21,102,102,0,0,1,2.92,16.47.29.29,0,0,1-.26.32Z"/><path class="cls-2" d="M31.14,69.13a.27.27,0,0,1-.21-.09A80.28,80.28,0,0,1,20.61,55.35a.28.28,0,0,1,.1-.4.29.29,0,0,1,.4.1A80.12,80.12,0,0,0,31.35,68.64a.29.29,0,0,1,0,.41A.27.27,0,0,1,31.14,69.13Z"/><path class="cls-2" d="M31.36,71.79l-.09,0L11.18,65.33A.29.29,0,0,1,11,65a.3.3,0,0,1,.37-.19l20.09,6.44a.3.3,0,0,1-.09.58Z"/><path class="cls-2" d="M16.37,79.47a.28.28,0,0,1-.28-.21.3.3,0,0,1,.19-.37,90.86,90.86,0,0,0,14.08-5.58.29.29,0,0,1,.39.14.28.28,0,0,1-.13.39,92,92,0,0,1-14.17,5.61Z"/><path class="cls-2" d="M21.79,86.75a.3.3,0,0,1-.26-.15.29.29,0,0,1,.11-.4,19.89,19.89,0,0,0,4.14-3.58l6.62-6.86a.28.28,0,0,1,.41,0,.29.29,0,0,1,0,.41L26.2,83a20.69,20.69,0,0,1-4.27,3.68A.33.33,0,0,1,21.79,86.75Z"/><path class="cls-1" d="M34.35,28.21a40.59,40.59,0,0,1-7-10.37,6.75,6.75,0,0,1,0-6,4.15,4.15,0,0,1,5.42-2c4.21,2,6.33,7.61,7.68,11.72a76,76,0,0,1,3.8,15.77.68.68,0,0,1-.22.55.8.8,0,0,1-1.41.63l0,0c-.64-1-1.41-2.06-2-3.14C38.63,32.83,36.43,30.54,34.35,28.21Z"/><path class="cls-1" d="M17.27,26.16c.71-1.9,3.32-2.05,5-1.8,3.88.59,7.67,2.93,10.75,5.26A42.9,42.9,0,0,1,37.87,34,19.48,19.48,0,0,1,42,39.37c.2.46-.24.79-.65.71a.51.51,0,0,1-.25.1,6.68,6.68,0,0,1-2.63-.79c-1.08-.4-2.18-.74-3.29-1-2-.55-4-1.05-6-1.66a21.23,21.23,0,0,1-9.68-5.63C18.4,29.88,16.63,27.86,17.27,26.16Z"/><path class="cls-1" d="M22.46,39.31c2.37-1.09,5.52-.3,8,0a54.72,54.72,0,0,1,10,2c.09,0,.13.1.19.16A.76.76,0,0,1,40.73,43a18.56,18.56,0,0,1-4.35.41c-1.5.07-3,.08-4.52.06s-3-.08-4.52-.15a33.1,33.1,0,0,1-4.11-.25,2.44,2.44,0,0,1-2.06-1.46A2,2,0,0,1,22.46,39.31Z"/><path class="cls-1" d="M58.71,24.91c0,2.6-2,5.15-3.34,7.24a55.71,55.71,0,0,1-5.93,8.28.4.4,0,0,1-.23.1A.76.76,0,0,1,47.8,40a19.25,19.25,0,0,1,1.43-4.13c.56-1.4,1.17-2.77,1.82-4.14s1.31-2.72,2-4.06A32.28,32.28,0,0,1,55,24.07a2.43,2.43,0,0,1,2.17-1.28A2,2,0,0,1,58.71,24.91Z"/><path class="cls-1" d="M44.65,24.15c.13-4.1.29-8.7,2.16-12.45.71-1.43,1.81-3.27,3.5-3.65,1.87-.42,2.73,1.23,3.06,2.77a24,24,0,0,1-1,13c-.86,2.35-2,4.58-2.82,7a36.17,36.17,0,0,0-1.11,4.08,11.68,11.68,0,0,1-.91,3.62c-.31.54-1.31.75-1.53,0a5.46,5.46,0,0,1-.17-1,5.43,5.43,0,0,1-.64-2.1,40.15,40.15,0,0,1-.4-4.09C44.6,28.87,44.58,26.51,44.65,24.15Z"/><path class="cls-2" d="M50,39.48h-.11a.3.3,0,0,1-.17-.38l2-5.2a21.82,21.82,0,0,1,3.08-6,.29.29,0,0,1,.41-.05.3.3,0,0,1,0,.42,21.49,21.49,0,0,0-3,5.88l-2,5.2A.28.28,0,0,1,50,39.48Z"/><path class="cls-2" d="M46.51,36.66h0a.29.29,0,0,1-.24-.34l1.2-8a105.07,105.07,0,0,1,2.87-14.44.28.28,0,0,1,.36-.19.28.28,0,0,1,.2.36A104.8,104.8,0,0,0,48,28.4l-1.2,8A.29.29,0,0,1,46.51,36.66Z"/><path class="cls-2" d="M43.2,38.06a.29.29,0,0,1-.26-.16A196.79,196.79,0,0,0,30.76,17.7a.3.3,0,0,1,.07-.41.29.29,0,0,1,.41.08A195.16,195.16,0,0,1,43.46,37.63a.28.28,0,0,1-.12.39A.25.25,0,0,1,43.2,38.06Z"/><path class="cls-2" d="M41.8,40.33a.34.34,0,0,1-.17,0A87.5,87.5,0,0,0,23.51,30.7a.29.29,0,0,1,.21-.55A88,88,0,0,1,42,39.8a.29.29,0,0,1-.16.53Z"/><path class="cls-2" d="M41.2,43.05h-.07a49,49,0,0,0-13.91-1.23.29.29,0,1,1,0-.58,49.68,49.68,0,0,1,14.07,1.24.3.3,0,0,1,.22.36A.29.29,0,0,1,41.2,43.05Z"/><path class="cls-3" d="M28,71.31a7.31,7.31,0,0,0,.74,2.74,9.44,9.44,0,0,0,1.18,1.54,5.91,5.91,0,0,0,1.15.83,5.81,5.81,0,0,0,1.45.56c.11,0,.2,0,.3,0a4.16,4.16,0,0,0,.79.3,5.11,5.11,0,0,0,3.79-.52,6.29,6.29,0,0,0,2.12-2.08c.06-.09.1-.19.15-.28,4.79,2.81,10.72,4,16.06,4.53a79,79,0,0,0,44.94-9.07,153.39,153.39,0,0,0,19.51-12.84c3.15-2.36,6.27-4.77,9.39-7.19s6.64-4.61,9.08-7.62a23.09,23.09,0,0,0,10.52,6.35c6.17,1.68,11.49-.64,15.63-4.75a12.59,12.59,0,0,0,3.28-4c3.15-4.55,5.55-10.1,9.28-14.18a39.87,39.87,0,0,1,18.27,4.75,40.85,40.85,0,0,1,14.6,13.29,42.77,42.77,0,0,1,4.63,9.09l.29.87c-4.17-5.38-11.32-9-17.67-9.84-9.92-1.33-17.09,4.41-23.2,11.83a6.23,6.23,0,0,0-1.94-2.48c-2.34-1.71-5.53-1.51-8.18-.76-6.11,1.75-10.57,6.69-14.44,11.46-4.19,5.16-8.61,11.1-15.43,12.76-4.33,1.06-8.94.11-13.21-.76a40.81,40.81,0,0,1-11-3.91,1,1,0,0,0-1,1.74c.13.1.27.18.4.27,2.5,8.18,9,15,16.33,19.13,7.92,4.47,16.78,5.61,25.73,4.46a115.76,115.76,0,0,0,15.39-3.28A22.71,22.71,0,0,0,178,88.08c5.92-6.26,11-15.52,9.74-24.37-.41-3-1.68-8.09-5.51-8.05a14.28,14.28,0,0,0-6.61,2c4.88-6.2,10.83-12.06,19.13-12.2,9-.16,17.55,5.88,22,13.39a.69.69,0,0,0,.22.2c.28.71.59,1.42,1,2.13a.38.38,0,0,0,.67-.09,13.57,13.57,0,0,0-.23-5.79,42.85,42.85,0,0,0-7.85-23.19c-4.88-6.92-12.33-13.92-21.34-13.72a18,18,0,0,0-11.75,4.73c-1.44-.05-2.9-.06-4.36,0a47.07,47.07,0,0,0-21.57,7.07,68.8,68.8,0,0,0-9.37,6.7c-.28.24-.57.47-.86.7-4.61-5.79-6.29-14.38-1.9-20.73,2.46-3.56,7.08-4.33,9.63-7.7,1.56-2.06,2.11-5.27.42-7.43-2.1-2.68-6.23-1.74-8.88-.51A16.48,16.48,0,0,0,132.75,9c-4.82,9.87-2.6,23.15,4.56,31.73l-.75.6c-3.4,1.77-6.46,4.62-9.45,6.88-2.73,2.07-5.44,4.15-8.18,6.2a.24.24,0,0,0-.27-.12c-2.94.66-5.6,1.76-8.67,1.9a41.29,41.29,0,0,1-8.87-.72c-3-.53-6.22-1.14-8.71-3.09a12.58,12.58,0,0,1-2.74-3c-.36-.54-.62-1.11-.91-1.65a5.21,5.21,0,0,0,.84-.33,5.87,5.87,0,0,0,2.79-3.37,7,7,0,0,0,.17-3.8,7.43,7.43,0,0,0-1.63-3.15,6.69,6.69,0,0,0-3-2,6.87,6.87,0,0,0-3.6-.13,6.13,6.13,0,0,0-4.67,4.83,6.89,6.89,0,0,0,0,2.52,5.39,5.39,0,0,0,.6,1.61,6.11,6.11,0,0,0,2.63,2.48l.15.07a5.58,5.58,0,0,0,1.51,1,5.35,5.35,0,0,0,2.63.6,2.54,2.54,0,0,0,.29,0c.4,2.07,2.37,4.21,3.77,5.35,2.58,2.1,5.78,2.88,9,3.46a41.43,41.43,0,0,0,10.3.8,19.08,19.08,0,0,0,5.5-1.07c-2.27,1.66-4.55,3.27-6.88,4.81a31.81,31.81,0,0,1-3.85,1.2,50.22,50.22,0,0,1-9.93,1.07A125.51,125.51,0,0,1,75.59,62.6C64.34,61.1,52.25,58.08,47,47.32a1.6,1.6,0,0,0,.21,0,5.87,5.87,0,0,0,3.2-2.62A6,6,0,0,0,51,40.49a8,8,0,0,0-1.72-3.4A6.12,6.12,0,0,0,46.48,35a4.28,4.28,0,0,0-1.56-.15,5.87,5.87,0,0,0-2.23.23,6.08,6.08,0,0,0-3.13,2.3,5.3,5.3,0,0,0-.74,4.09A6.14,6.14,0,0,0,40,43.94a6.12,6.12,0,0,0,2.39,2.5A6.3,6.3,0,0,0,43.5,47a5.58,5.58,0,0,0,1.66.49c3,11.84,18.16,15.63,28.61,17.15a116.89,116.89,0,0,0,22,1.09,70.37,70.37,0,0,0,7.54-.64A78.84,78.84,0,0,1,77.28,75.19a77,77,0,0,1-22,.94,51.73,51.73,0,0,1-14.91-4.31c0-.22,0-.45,0-.68a3.79,3.79,0,0,0,0-1,6,6,0,0,0-.22-.83h0l0-.25a3,3,0,0,0-.38-1,8.93,8.93,0,0,0-.82-1.12,6.08,6.08,0,0,0-1.63-1.44A7,7,0,0,0,36,64.91a3.9,3.9,0,0,0-.57-.13,7.13,7.13,0,0,0-2.11-.06,5.4,5.4,0,0,0-.91.14,4.53,4.53,0,0,0-1.82,1,2.09,2.09,0,0,0-.14.17,2.54,2.54,0,0,0-.36.29.94.94,0,0,0-.09.12l0,0a2.71,2.71,0,0,0-.41.42,6.27,6.27,0,0,0-1.33,2.41A5.74,5.74,0,0,0,28,71.31Zm152-48a15.44,15.44,0,0,1,5.2-2.57c9.91-2.73,18.47,4.64,23.85,12.19a42.88,42.88,0,0,1,7,16.21,44.36,44.36,0,0,0-5.33-9A43.68,43.68,0,0,0,180,23.27Zm-37.37,16,.8-.55C146.91,36.42,150.3,34,153.9,32a46,46,0,0,1,20.87-6.2,36.84,36.84,0,0,0-3.56,5c-1.74,2.88-3.56,6.25-5.76,9.19-6.23,5.22-15.06,6-21.67.36C143.39,40,143,39.6,142.65,39.24Z"/><path class="cls-2" d="M140.12,85.77a39,39,0,0,1-8.85-1.19,71.07,71.07,0,0,1-13.73-4.83.3.3,0,0,1-.14-.39.29.29,0,0,1,.39-.14A69.84,69.84,0,0,0,131.4,84a33.12,33.12,0,0,0,11.68,1,28.44,28.44,0,0,0,8.07-2.47,44.17,44.17,0,0,0,23.3-26.32.3.3,0,0,1,.37-.19.29.29,0,0,1,.19.37,44.72,44.72,0,0,1-23.62,26.67,28.48,28.48,0,0,1-8.24,2.52A22.11,22.11,0,0,1,140.12,85.77Z"/><path class="cls-2" d="M144,40.76a.3.3,0,0,1-.18-.06,18.21,18.21,0,0,1-4.34-5.07.29.29,0,1,1,.51-.29,17.33,17.33,0,0,0,4.2,4.9.3.3,0,0,1,0,.41A.27.27,0,0,1,144,40.76Z"/><path class="cls-2" d="M141.22,45.13a.32.32,0,0,1-.18-.06,24.29,24.29,0,0,1-7.1-8.46.29.29,0,0,1,.13-.4.3.3,0,0,1,.39.13,23.65,23.65,0,0,0,6.93,8.26.29.29,0,0,1,.06.41A.27.27,0,0,1,141.22,45.13Z"/><path class="cls-2" d="M112.16,59.43a.29.29,0,0,1-.25-.14.29.29,0,0,1,.09-.4,57.63,57.63,0,0,0,8.55-6.33.3.3,0,0,1,.42,0,.29.29,0,0,1,0,.41,58,58,0,0,1-8.64,6.4A.28.28,0,0,1,112.16,59.43Z"/><path class="cls-2" d="M101.67,66.19a.3.3,0,0,1-.29-.25.31.31,0,0,1,.25-.34,7.48,7.48,0,0,0,2.48-1,28.19,28.19,0,0,0,5-3.61.29.29,0,1,1,.39.43,28.21,28.21,0,0,1-5.1,3.69,7.69,7.69,0,0,1-2.67,1.05Z"/><path class="cls-2" d="M38.83,76.09a.29.29,0,0,1-.25-.45,8.92,8.92,0,0,0,1.09-6.8.29.29,0,0,1,.21-.35.3.3,0,0,1,.36.21A9.51,9.51,0,0,1,39.08,76,.3.3,0,0,1,38.83,76.09Z"/><path class="cls-2" d="M46.08,47.73A10.46,10.46,0,0,1,45,47.66a3.39,3.39,0,0,1-2.39-1.09.3.3,0,0,1,.06-.41.29.29,0,0,1,.41.06,2.74,2.74,0,0,0,2,.86,6.36,6.36,0,0,0,2.52-.14,3.24,3.24,0,0,0,1.9-1.4.29.29,0,0,1,.51.29,3.85,3.85,0,0,1-2.25,1.68A6.12,6.12,0,0,1,46.08,47.73Z"/><path class="cls-2" d="M86.72,48.31a7.43,7.43,0,0,1-3.5-.86.3.3,0,0,1-.12-.4.31.31,0,0,1,.4-.12,6.88,6.88,0,0,0,5.86.27c.51-.22.79-.47.88-.76a.28.28,0,0,1,.36-.2.29.29,0,0,1,.2.36,1.87,1.87,0,0,1-1.21,1.13A7.25,7.25,0,0,1,86.72,48.31Z"/><path class="cls-2" d="M172.05,26.29a.3.3,0,0,1-.29-.22.29.29,0,0,1,.21-.35,10.6,10.6,0,0,1,2.89-.22l5.71.12a.29.29,0,0,1,.29.3.28.28,0,0,1-.29.28h0l-5.71-.11a10,10,0,0,0-2.73.19Z"/><path class="cls-2" d="M184.22,24.24h-.05c-4.76-.77-9.67-1.56-14.51-.73a.3.3,0,0,1-.34-.24.29.29,0,0,1,.24-.34c4.93-.84,9.9,0,14.7.73a.29.29,0,0,1,.25.33A.3.3,0,0,1,184.22,24.24Z"/><path class="cls-2" d="M218.25,60.45a.29.29,0,0,1-.3-.27,41.4,41.4,0,0,0-3.41-13.93.29.29,0,0,1,.15-.39.3.3,0,0,1,.39.15,42.35,42.35,0,0,1,3.46,14.13.29.29,0,0,1-.27.31Z"/><path class="cls-2" d="M218.28,61.66a.29.29,0,0,1-.28-.22,33.59,33.59,0,0,0-3.42-8.59.29.29,0,1,1,.51-.29,33.89,33.89,0,0,1,3.48,8.74.29.29,0,0,1-.22.35Z"/><path class="cls-2" d="M162.11,79.38a.29.29,0,0,1-.23-.12.29.29,0,0,1,.05-.41A53.26,53.26,0,0,0,178.1,57.4a.31.31,0,0,1,.39-.16.29.29,0,0,1,.16.38A54,54,0,0,1,162.3,79.31.34.34,0,0,1,162.11,79.38Z"/><path class="cls-2" d="M168.27,79.57a.3.3,0,0,1-.21-.09.3.3,0,0,1,0-.41,53.15,53.15,0,0,0,13.48-20.65.3.3,0,0,1,.56.2,53.73,53.73,0,0,1-13.63,20.87A.28.28,0,0,1,168.27,79.57Z"/><path class="cls-2" d="M177.48,75.31a.34.34,0,0,1-.17,0,.29.29,0,0,1-.07-.41,62,62,0,0,0,7.48-14.49.28.28,0,0,1,.37-.18.29.29,0,0,1,.18.37,62.49,62.49,0,0,1-7.55,14.64A.3.3,0,0,1,177.48,75.31Z"/><path class="cls-2" d="M183.5,72.34a.31.31,0,0,1-.13,0,.3.3,0,0,1-.13-.39l2.6-5.24a.29.29,0,0,1,.39-.14.3.3,0,0,1,.14.4l-2.6,5.24A.32.32,0,0,1,183.5,72.34Z"/><path class="cls-2" d="M163.28,67.1a.27.27,0,0,1-.17-.06.29.29,0,0,1-.06-.41l9.37-12.69a.3.3,0,0,1,.48.35L163.52,67A.33.33,0,0,1,163.28,67.1Z"/><path class="cls-2" d="M162.9,61.11a.32.32,0,0,1-.18-.06.3.3,0,0,1-.05-.42A62.81,62.81,0,0,1,169,53.81a.3.3,0,0,1,.42,0,.29.29,0,0,1,0,.41A61.68,61.68,0,0,0,163.13,61,.28.28,0,0,1,162.9,61.11Z"/><path class="cls-2" d="M159.1,60.67a.27.27,0,0,1-.21-.09.29.29,0,0,1,0-.42L164.24,55a.29.29,0,0,1,.4.42l-5.34,5.13A.3.3,0,0,1,159.1,60.67Z"/></g></g></svg>