<svg xmlns="http://www.w3.org/2000/svg" viewBox="0 0 1278.7 1559.91"><defs><style>.cls-1{fill:#466c44;opacity:0.15;}</style></defs><g id="Layer_2" data-name="Layer 2"><g id="Layer_1-2" data-name="Layer 1"><path class="cls-1" d="M638.49,1559.91l-1.54-1.2c-.58-.45-58.46-44.68-151-37.29-38,3-92.35,2.93-135.86-14.82s-67.4-49.23-70.81-93.49c-2.93-38-20.91-43.89-41.72-50.68-30-9.77-63.9-20.84-63.9-123.46v-34.73c-85.46-38.64-95.4-168.57-95.4-263.2C78.28,827.12,4.7,782.71,4,782.27L0,780l4-2.33c.75-.44,74.33-45,74.33-158.78,0-94.62,9.94-224.54,95.4-263.18V320.94c0-102.62,33.95-113.69,63.9-123.46,20.81-6.79,38.79-12.66,41.72-50.68,3.41-44.26,27.23-75.71,70.81-93.49S448,35.45,486,38.49c92.52,7.4,150.4-36.84,151-37.29L638.49,0,640,1.2c.58.45,58.47,44.68,151,37.29,38-3,92.37-2.93,135.88,14.82s67.39,49.23,70.8,93.49c2.93,38,20.91,43.89,41.72,50.68,29.95,9.77,63.9,20.84,63.9,123.46v34c87,37.65,97.13,168.52,97.13,263.94,0,113.77,73.59,158.34,74.33,158.78l3.94,2.32-3.94,2.32c-.74.44-74.33,45-74.33,158.77,0,95.43-10.11,226.31-97.13,264v34c0,102.62-34,113.69-63.9,123.46-20.81,6.79-38.79,12.66-41.72,50.68-3.41,44.26-27.23,75.71-70.8,93.49S829,1524.46,791,1521.42c-92.61-7.38-150.4,36.84-151,37.29Zm-131.8-44.65c74.24,0,122.72,31.63,131.8,38.06,9.91-7,66.81-44.07,152.91-37.21,71.71,5.74,193.21-.09,201.16-103.42,3.21-41.61,23.66-48.28,45.31-55.35,28.26-9.21,60.29-19.66,60.29-118.37V1201.4l1.62-.67c85.61-35.52,95.51-165.22,95.51-259.69,0-102.47,58.44-150.45,73.46-161.09-15-10.64-73.46-58.62-73.46-161.1,0-94.46-9.9-224.15-95.51-259.67l-1.62-.67V320.94c0-98.71-32-109.15-60.29-118.37-21.65-7.07-42.1-13.74-45.31-55.35C984.6,43.89,863.1,38.08,791.4,43.8c-86.08,6.88-143-30.19-152.91-37.21C629.41,13,580.93,44.65,506.71,44.65c-6.84,0-13.87-.26-21.13-.85-71.71-5.73-193.21.09-201.16,103.42-3.2,41.61-23.65,48.28-45.31,55.35-28.26,9.22-60.29,19.67-60.29,118.37V359.2l-1.58.69c-84.1,36.51-93.83,165.28-93.83,259C83.41,721.33,25,769.31,10,780,25,790.59,83.41,838.57,83.41,941c0,93.69,9.73,222.46,93.83,259l1.58.69V1239c0,98.7,32,109.16,60.29,118.37,21.66,7.07,42.11,13.74,45.31,55.35,7.95,103.33,129.46,109.15,201.16,103.42C492.83,1515.53,499.87,1515.26,506.69,1515.26Z"/></g></g></svg>