<svg xmlns="http://www.w3.org/2000/svg" viewBox="0 0 1640.28 2360"><defs><style>.cls-1{fill:#e1f0e5;}.cls-2{font-size:22px;fill:#898989;font-family:Montserrat-Regular, Montserrat;}.cls-3{letter-spacing:-0.02em;}.cls-4{letter-spacing:-0.01em;}.cls-5{letter-spacing:0em;}.cls-6{letter-spacing:-0.02em;}.cls-7{letter-spacing:-0.01em;}.cls-8{letter-spacing:0em;}.cls-9{letter-spacing:-0.02em;}.cls-10{letter-spacing:0.02em;}.cls-11{letter-spacing:0em;}.cls-12{letter-spacing:-0.02em;}.cls-13{letter-spacing:-0.01em;}.cls-14{letter-spacing:-0.01em;}.cls-15{letter-spacing:0em;}.cls-16{letter-spacing:0.01em;}.cls-17{letter-spacing:-0.02em;}.cls-18{letter-spacing:0em;}.cls-19{letter-spacing:0em;}.cls-20{letter-spacing:-0.01em;}.cls-21{letter-spacing:0em;}.cls-22{letter-spacing:0em;}.cls-23{font-size:29.07px;font-family:Montserrat-SemiBold, Montserrat;font-weight:600;letter-spacing:0.2em;}.cls-23,.cls-25{fill:#a28031;}.cls-24{fill:#466c44;opacity:0.15;}</style></defs><g id="Layer_2" data-name="Layer 2"><g id="Layer_1-2" data-name="Layer 1"><rect class="cls-1" width="1640.28" height="2360"/><text class="cls-2" transform="translate(505.31 2051.26)"><tspan class="cls-3">P</tspan><tspan class="cls-4" x="15.29" y="0">r</tspan><tspan class="cls-5" x="23.83" y="0">ess</tspan><tspan class="cls-6" x="58.63" y="0">/</tspan><tspan x="65.56" y="0">Cli</tspan><tspan class="cls-7" x="93.21" y="0">c</tspan><tspan class="cls-8" x="105.42" y="0">k ca</tspan><tspan class="cls-9" x="149.77" y="0">t</tspan><tspan x="158.29" y="0">ego</tspan><tspan class="cls-10" x="200.46" y="0">r</tspan><tspan x="209.61" y="0">y na</tspan><tspan class="cls-11" x="255.17" y="0">m</tspan><tspan x="278.56" y="0">e </tspan><tspan class="cls-12" x="297.61" y="0">t</tspan><tspan x="306.13" y="0">o n</tspan><tspan class="cls-13" x="340.58" y="0">a</tspan><tspan x="353.34" y="0">viga</tspan><tspan class="cls-12" x="399.25" y="0">t</tspan><tspan x="407.76" y="0">e </tspan><tspan class="cls-12" x="426.82" y="0">t</tspan><tspan x="435.33" y="0">o </tspan><tspan class="cls-14" x="454.89" y="0">r</tspan><tspan class="cls-15" x="463.42" y="0">espe</tspan><tspan class="cls-16" x="515.67" y="0">c</tspan><tspan x="528.19" y="0">ti</tspan><tspan class="cls-17" x="543.04" y="0">v</tspan><tspan x="554.63" y="0">e </tspan><tspan class="cls-18" x="573.69" y="0">p</tspan><tspan class="cls-19" x="588.54" y="0">a</tspan><tspan x="601.56" y="0">ge</tspan></text><text class="cls-2" transform="translate(493.08 2092.26)">Cli<tspan class="cls-7" x="27.65" y="0">c</tspan><tspan class="cls-8" x="39.86" y="0">k on IND</tspan><tspan class="cls-20" x="136" y="0">E</tspan><tspan x="150.52" y="0">X </tspan><tspan class="cls-21" x="170.72" y="0">p</tspan><tspan class="cls-11" x="185.57" y="0">a</tspan><tspan x="198.59" y="0">ge on </tspan><tspan class="cls-12" x="267.19" y="0">t</tspan><tspan x="275.7" y="0">op of </tspan><tspan class="cls-13" x="337.19" y="0">e</tspan><tspan class="cls-17" x="350.26" y="0">v</tspan><tspan x="361.85" y="0">e</tspan><tspan class="cls-10" x="375.14" y="0">r</tspan><tspan x="384.29" y="0">y </tspan><tspan class="cls-11" x="401.98" y="0">m</tspan><tspan x="425.36" y="0">enu </tspan><tspan class="cls-12" x="474.12" y="0">t</tspan><tspan x="482.63" y="0">o get </tspan><tspan class="cls-18" x="545.26" y="0">b</tspan><tspan class="cls-11" x="560.11" y="0">a</tspan><tspan class="cls-7" x="573.14" y="0">c</tspan><tspan class="cls-22" x="585.35" y="0">k </tspan><tspan class="cls-11" x="604.33" y="0">h</tspan><tspan x="619.27" y="0">e</tspan><tspan class="cls-4" x="632.56" y="0">r</tspan><tspan x="641.09" y="0">e</tspan></text><text class="cls-23" transform="translate(778.47 1999.26)">TIPS</text><path class="cls-24" d="M819.41,1869l-1.54-1.21c-.57-.44-58.46-44.67-151-37.28-38,3-92.36,2.93-135.87-14.82s-67.4-49.23-70.81-93.49c-2.92-38-20.9-43.89-41.72-50.68-29.95-9.77-63.89-20.84-63.89-123.46v-34.73c-85.47-38.64-95.41-168.57-95.41-263.2,0-113.92-73.58-158.33-74.32-158.77l-4-2.32,4-2.32c.74-.44,74.32-45,74.32-158.78,0-94.62,9.94-224.54,95.41-263.19V630c0-102.62,33.94-113.69,63.89-123.46,20.82-6.79,38.8-12.66,41.72-50.68,3.41-44.26,27.23-75.71,70.81-93.49s97.9-17.86,135.87-14.82c92.51,7.4,150.4-36.84,151-37.29l1.54-1.2,1.54,1.2c.58.45,58.47,44.68,151,37.29,38-3,92.36-2.93,135.87,14.82s67.39,49.23,70.8,93.49c2.93,38,20.91,43.89,41.73,50.68,30,9.77,63.89,20.84,63.89,123.46v34c87,37.65,97.13,168.52,97.13,263.94,0,113.77,73.59,158.34,74.33,158.78l4,2.32-4,2.32c-.74.44-74.33,45-74.33,158.77,0,95.43-10.11,226.31-97.13,263.95v34c0,102.62-33.94,113.69-63.89,123.46-20.82,6.79-38.8,12.66-41.73,50.68-3.41,44.26-27.23,75.71-70.8,93.49s-97.89,17.85-135.87,14.82c-92.62-7.39-150.4,36.84-151,37.28Zm-131.79-44.65c74.24,0,122.71,31.63,131.79,38.06,9.91-7,66.81-44.07,152.91-37.21,71.71,5.73,193.21-.09,201.16-103.42,3.21-41.61,23.66-48.28,45.31-55.35,28.26-9.22,60.3-19.66,60.3-118.37v-37.57l1.61-.67c85.62-35.52,95.52-165.22,95.52-259.69,0-102.47,58.43-150.45,73.45-161.09-15-10.64-73.45-58.62-73.45-161.1,0-94.46-9.9-224.15-95.52-259.67l-1.61-.67V630c0-98.71-32-109.16-60.3-118.38-21.65-7.06-42.1-13.73-45.31-55.34C1165.53,353,1044,347.17,972.32,352.89c-86.07,6.88-143-30.19-152.91-37.21-9.07,6.43-57.56,38.06-131.78,38.06-6.83,0-13.87-.27-21.13-.85-71.7-5.73-193.21.09-201.16,103.42-3.2,41.61-23.65,48.28-45.3,55.35-28.27,9.22-60.3,19.66-60.3,118.37v38.26l-1.58.68c-84.1,36.52-93.83,165.29-93.83,259,0,102.48-58.42,150.46-73.45,161.1,15,10.64,73.45,58.62,73.45,161.09,0,93.69,9.73,222.46,93.83,259l1.58.68v38.27c0,98.7,32,109.15,60.3,118.37,21.65,7.07,42.1,13.74,45.3,55.35,8,103.33,129.46,109.14,201.16,103.42C673.75,1824.62,680.79,1824.35,687.62,1824.35Z"/><rect class="cls-25" x="809.07" y="1851.14" width="22.41" height="22.41" rx="3.19" transform="translate(2717.18 2599.2) rotate(135)"/></g></g></svg>