<svg id="Layer_1" data-name="Layer 1" xmlns="http://www.w3.org/2000/svg" viewBox="0 0 810 1080"><defs><style>.cls-1{fill:#fff;}.cls-2{font-size:30.36px;letter-spacing:0.03em;}.cls-2,.cls-7,.cls-8{fill:#a28031;}.cls-14,.cls-15,.cls-19,.cls-2{font-family:BellinaBold-Bold, Bellina Bold;font-weight:700;}.cls-3{letter-spacing:0.01em;}.cls-4{letter-spacing:0.02em;}.cls-5{opacity:0.63;}.cls-6{opacity:0.6;}.cls-8{font-size:12.21px;font-family:Montserrat-Regular, Montserrat;letter-spacing:0.3em;}.cls-9{letter-spacing:0.32em;}.cls-10{letter-spacing:0.29em;}.cls-11{letter-spacing:0.3em;}.cls-12{letter-spacing:0.26em;}.cls-13{letter-spacing:0.29em;}.cls-14,.cls-15,.cls-19{font-size:15px;fill:#4c4944;}.cls-14,.cls-16{letter-spacing:0.03em;}.cls-15{letter-spacing:0.02em;}.cls-17{letter-spacing:0.02em;}.cls-18{fill:none;stroke:#231f20;stroke-miterlimit:10;stroke-width:0.5px;}.cls-19{letter-spacing:0.01em;}.cls-20{letter-spacing:0.01em;}.cls-21{letter-spacing:0.02em;}.cls-22{letter-spacing:0.03em;}.cls-23{letter-spacing:0.01em;}.cls-24{letter-spacing:0.02em;}</style></defs><rect class="cls-1" width="810" height="1082"/><text class="cls-2" transform="translate(276.79 104.12)">KABAB &amp; <tspan class="cls-3" x="155.41" y="0">K</tspan><tspan class="cls-4" x="177.03" y="0">ORMAS</tspan></text><g class="cls-5"><g class="cls-6"><rect class="cls-7" x="51" y="127.88" width="708" height="0.25"/></g><g class="cls-6"><rect class="cls-7" x="51" y="180.88" width="708" height="0.25"/></g></g><text class="cls-8" transform="translate(327.91 151.07)">M<tspan class="cls-9" x="15.33" y="0">A</tspan><tspan x="27.93" y="0">JE</tspan><tspan class="cls-10" x="49.55" y="0">S</tspan><tspan class="cls-11" x="60.6" y="0">TIC </tspan><tspan class="cls-12" x="97.94" y="0">T</tspan><tspan x="108.19" y="0">A</tspan><tspan class="cls-10" x="120.61" y="0">S</tspan><tspan x="131.66" y="0">TE</tspan><tspan x="-16.13" y="14.66">FROM </tspan><tspan class="cls-13" x="43.86" y="14.66">J</tspan><tspan x="53.46" y="14.66">AMA MASJID</tspan></text><rect class="cls-7" x="401.42" y="124.48" width="7.17" height="7.17" transform="translate(209.18 -248.87) rotate(45)"/><text class="cls-14" transform="translate(75.8 215.41)">Gosht Shorba</text><text class="cls-14" transform="translate(564.39 215.41)">19</text><text class="cls-15" transform="translate(75.8 256.41)">J<tspan class="cls-16" x="7.09" y="0">ama Ma</tspan><tspan x="64.05" y="0">s</tspan><tspan class="cls-17" x="72.46" y="0">jid Murg Tikka</tspan></text><text class="cls-14" transform="translate(564.39 256.41)">19</text><rect class="cls-18" x="616.5" y="194.5" width="101" height="30" rx="15"/><text class="cls-14" transform="translate(665.87 215.41)">4</text><text class="cls-14" transform="translate(628.23 215.31)">-</text><text class="cls-14" transform="translate(700.22 215.31)">+</text><rect class="cls-18" x="616.5" y="233.5" width="101" height="30" rx="15"/><text class="cls-14" transform="translate(665.87 254.41)">4</text><text class="cls-14" transform="translate(628.23 254.31)">-</text><text class="cls-14" transform="translate(700.22 254.31)">+</text><text class="cls-14" transform="translate(75.8 293.41)">Murgh Malai Tikka</text><text class="cls-14" transform="translate(564.39 293.41)">19</text><text class="cls-14" transform="translate(75.8 334.41)">Murgh Reshmi Seekh</text><text class="cls-14" transform="translate(564.39 334.41)">19</text><rect class="cls-18" x="616.5" y="272.5" width="101" height="30" rx="15"/><text class="cls-14" transform="translate(665.87 293.41)">4</text><text class="cls-14" transform="translate(628.23 293.31)">-</text><text class="cls-14" transform="translate(700.22 293.31)">+</text><rect class="cls-18" x="616.5" y="311.5" width="101" height="30" rx="15"/><text class="cls-14" transform="translate(665.87 332.41)">4</text><text class="cls-14" transform="translate(628.23 332.31)">-</text><text class="cls-14" transform="translate(700.22 332.31)">+</text><text class="cls-19" transform="translate(75.8 371.41)">T<tspan class="cls-16" x="10.65" y="0">andoori Chic</tspan><tspan class="cls-20" x="107.05" y="0">k</tspan><tspan class="cls-17" x="115.74" y="0">en</tspan></text><text class="cls-14" transform="translate(564.39 371.41)">19</text><text class="cls-14" transform="translate(75.8 412.41)">Mutton Seekh Gilafi</text><text class="cls-14" transform="translate(564.39 412.41)">19</text><rect class="cls-18" x="616.5" y="350.5" width="101" height="30" rx="15"/><text class="cls-14" transform="translate(665.87 371.41)">4</text><text class="cls-14" transform="translate(628.23 371.31)">-</text><text class="cls-14" transform="translate(700.22 371.31)">+</text><rect class="cls-18" x="616.5" y="389.5" width="101" height="30" rx="15"/><text class="cls-14" transform="translate(665.87 410.41)">4</text><text class="cls-14" transform="translate(628.23 410.31)">-</text><text class="cls-14" transform="translate(700.22 410.31)">+</text><text class="cls-14" transform="translate(75.8 449.41)">Mutton Galouti Kebab</text><text class="cls-14" transform="translate(564.39 449.41)">19</text><text class="cls-19" transform="translate(75.8 490.41)">T<tspan class="cls-16" x="10.65" y="0">andoori Lamb Chops</tspan></text><text class="cls-14" transform="translate(564.39 490.41)">19</text><rect class="cls-18" x="616.5" y="428.5" width="101" height="30" rx="15"/><text class="cls-14" transform="translate(665.87 449.41)">4</text><text class="cls-14" transform="translate(628.23 449.31)">-</text><text class="cls-14" transform="translate(700.22 449.31)">+</text><rect class="cls-18" x="616.5" y="467.5" width="101" height="30" rx="15"/><text class="cls-14" transform="translate(665.87 488.41)">4</text><text class="cls-14" transform="translate(628.23 488.31)">-</text><text class="cls-14" transform="translate(700.22 488.31)">+</text><text class="cls-14" transform="translate(75.8 527.41)">Ka<tspan class="cls-20" x="18.78" y="0">k</tspan><tspan x="27.46" y="0">ori Kebab</tspan></text><text class="cls-14" transform="translate(564.39 527.41)">19</text><text class="cls-14" transform="translate(75.8 568.41)">Sikandari Raan</text><text class="cls-14" transform="translate(564.39 568.41)">19</text><rect class="cls-18" x="616.5" y="506.5" width="101" height="30" rx="15"/><text class="cls-14" transform="translate(665.87 527.41)">4</text><text class="cls-14" transform="translate(628.23 527.31)">-</text><text class="cls-14" transform="translate(700.22 527.31)">+</text><rect class="cls-18" x="616.5" y="545.5" width="101" height="30" rx="15"/><text class="cls-14" transform="translate(665.87 566.41)">4</text><text class="cls-14" transform="translate(628.23 566.31)">-</text><text class="cls-14" transform="translate(700.22 566.31)">+</text><text class="cls-14" transform="translate(75.8 605.41)">Daryaga<tspan class="cls-21" x="61.89" y="0">n</tspan><tspan class="cls-22" x="71.71" y="0">j Butter Chic</tspan><tspan class="cls-23" x="169.63" y="0">k</tspan><tspan x="178.32" y="0">en</tspan></text><text class="cls-14" transform="translate(564.39 605.41)">19</text><text class="cls-14" transform="translate(75.8 646.41)">Pandara Road Chic<tspan class="cls-20" x="141.24" y="0">k</tspan><tspan class="cls-17" x="149.92" y="0">en Tikka Masala</tspan></text><text class="cls-14" transform="translate(564.39 646.41)">19</text><rect class="cls-18" x="616.5" y="584.5" width="101" height="30" rx="15"/><text class="cls-14" transform="translate(665.87 605.41)">4</text><text class="cls-14" transform="translate(628.23 605.31)">-</text><text class="cls-14" transform="translate(700.22 605.31)">+</text><rect class="cls-18" x="616.5" y="623.5" width="101" height="30" rx="15"/><text class="cls-14" transform="translate(665.87 644.41)">4</text><text class="cls-14" transform="translate(628.23 644.31)">-</text><text class="cls-14" transform="translate(700.22 644.31)">+</text><text class="cls-14" transform="translate(75.8 683.41)">Murgh K<tspan class="cls-24" x="66.33" y="0">h</tspan><tspan x="75.84" y="0">urchan</tspan></text><text class="cls-14" transform="translate(564.39 683.41)">19</text><text class="cls-14" transform="translate(75.8 724.41)">Murgh Kali Mirch</text><text class="cls-14" transform="translate(564.39 724.41)">19</text><rect class="cls-18" x="616.5" y="662.5" width="101" height="30" rx="15"/><text class="cls-14" transform="translate(665.87 683.41)">4</text><text class="cls-14" transform="translate(628.23 683.31)">-</text><text class="cls-14" transform="translate(700.22 683.31)">+</text><rect class="cls-18" x="616.5" y="701.5" width="101" height="30" rx="15"/><text class="cls-14" transform="translate(665.87 722.41)">4</text><text class="cls-14" transform="translate(628.23 722.31)">-</text><text class="cls-14" transform="translate(700.22 722.31)">+</text><text class="cls-14" transform="translate(75.8 761.41)">Cream Chic<tspan class="cls-20" x="88.8" y="0">k</tspan><tspan x="97.48" y="0">en</tspan></text><text class="cls-14" transform="translate(564.39 761.41)">19</text><text class="cls-14" transform="translate(75.8 802.41)">Murgh Korma</text><text class="cls-14" transform="translate(564.39 802.41)">19</text><rect class="cls-18" x="616.5" y="740.5" width="101" height="30" rx="15"/><text class="cls-14" transform="translate(665.87 761.41)">4</text><text class="cls-14" transform="translate(628.23 761.31)">-</text><text class="cls-14" transform="translate(700.22 761.31)">+</text><rect class="cls-18" x="616.5" y="779.5" width="101" height="30" rx="15"/><text class="cls-14" transform="translate(665.87 800.41)">4</text><text class="cls-14" transform="translate(628.23 800.31)">-</text><text class="cls-14" transform="translate(700.22 800.31)">+</text></svg>