<svg xmlns="http://www.w3.org/2000/svg" viewBox="0 0 485.18 188.63"><defs><style>.cls-1{fill:#466c44;}</style></defs><g id="Layer_2" data-name="Layer 2"><g id="Layer_1-2" data-name="Layer 1"><path class="cls-1" d="M180.26,1.38Q180.77,0,183,0h25.62q2.25,0,2.76,1.38l3.45,8.27a.23.23,0,0,1,.05.17v.06c0,.08-.22.27-.68.58a2,2,0,0,1-.75.11c-.61,0-1-.07-1.09-.23h.05l-1.2-1.55a30.75,30.75,0,0,0-4.43-4.88h.06a13.55,13.55,0,0,0-7.93-2.36h-.4V36.71c0,1.54.31,2.53.92,3a4.34,4.34,0,0,0,2.7,1h-.06c1.07,0,1.61.27,1.61.8s-.54.81-1.61.81H189.57c-1.08,0-1.61-.27-1.61-.81s.53-.8,1.61-.8h-.06a4.34,4.34,0,0,0,2.7-1c.61-.46.92-1.45.92-3V1.55h-.4a13.55,13.55,0,0,0-7.93,2.36h.06a30.75,30.75,0,0,0-4.43,4.88l-1.2,1.55a1.55,1.55,0,0,1-1,.23,1.7,1.7,0,0,1-.69-.11c-.46-.31-.69-.5-.69-.58V9.65Z"/><path class="cls-1" d="M218.47.86c0-.53.53-.8,1.61-.8h14.19c1.07,0,1.61.27,1.61.8s-.54.81-1.61.81h0a12.05,12.05,0,0,0-1.69.2,3.41,3.41,0,0,0-1.32.51,2.38,2.38,0,0,0-.84,1.12,5.83,5.83,0,0,0-.28,2V19.36h21.43V5.23a4.47,4.47,0,0,0-.32-1.84,2.67,2.67,0,0,0-.89-1.09,3.08,3.08,0,0,0-1.32-.52,9.84,9.84,0,0,0-1.55-.11c-1.07,0-1.61-.27-1.61-.81s.54-.8,1.61-.8h14.13c1.07,0,1.61.27,1.61.8s-.54.81-1.61.81h.06a11.41,11.41,0,0,0-1.67.2,3.52,3.52,0,0,0-1.29.51,2.36,2.36,0,0,0-.83,1.12,5.8,5.8,0,0,0-.29,2V36.94a5.7,5.7,0,0,0,.29,2,2.27,2.27,0,0,0,.83,1.12,3.37,3.37,0,0,0,1.29.52,11.41,11.41,0,0,0,1.67.2h-.06c1.07,0,1.61.27,1.61.81s-.54.8-1.61.8H247.54c-1.07,0-1.61-.27-1.61-.8s.54-.81,1.61-.81h-.06a11.63,11.63,0,0,0,1.73-.2,3.37,3.37,0,0,0,1.29-.52,2.27,2.27,0,0,0,.83-1.12,5.7,5.7,0,0,0,.29-2V21.14H230.19v15.8a5.73,5.73,0,0,0,.28,2,2.29,2.29,0,0,0,.84,1.12,3.26,3.26,0,0,0,1.32.52,12.05,12.05,0,0,0,1.69.2h0c1.07,0,1.61.27,1.61.81s-.54.8-1.61.8H220.08c-1.08,0-1.61-.27-1.61-.8s.53-.81,1.61-.81H220a11.48,11.48,0,0,0,1.72-.2,3.25,3.25,0,0,0,1.29-.52,2.29,2.29,0,0,0,.84-1.12,5.73,5.73,0,0,0,.28-2V5.23a4.48,4.48,0,0,0-.31-1.84A2.67,2.67,0,0,0,223,2.3a3.18,3.18,0,0,0-1.32-.52,9.84,9.84,0,0,0-1.55-.11C219,1.67,218.47,1.4,218.47.86Z"/><path class="cls-1" d="M269.66,40.68a4.34,4.34,0,0,0,2.7-1c.61-.46.92-1.45.92-3V5.29a3.88,3.88,0,0,0-.83-2.82,4.45,4.45,0,0,0-2.85-.92h.06c-1,0-1.55-.27-1.55-.8s.52-.75,1.55-.75h28.27q2.24,0,2.76,1.38l3.38,8.27c.08.08.12.14.12.17l.06.06-.75.58a1.9,1.9,0,0,1-.75.11,1.64,1.64,0,0,1-1.09-.23h.06l-1.26-1.55a23.71,23.71,0,0,0-4.37-4.88h.06a13.57,13.57,0,0,0-7.93-2.36h-9.48V19.36h8a6.13,6.13,0,0,0,2.64-.49,3.94,3.94,0,0,0,1.64-1.37,6,6,0,0,0,.86-2.1,15.14,15.14,0,0,0,.32-2.65c0-.49.52-.74,1.55-.74s1.55.25,1.55.74V27.87c0,.49-.52.74-1.55.74s-1.55-.25-1.55-.74c-.08-2.42-.56-4.06-1.44-4.95a5.09,5.09,0,0,0-4-1.78h-8V36.71c0,1.54.26,2.53.8,3a4.84,4.84,0,0,0,3,1H288a16.28,16.28,0,0,0,4.69-.63,14.7,14.7,0,0,0,3.82-1.78,17.85,17.85,0,0,0,3.22-2.79,36.65,36.65,0,0,0,2.93-3.71,2.31,2.31,0,0,1,1.2-.23,2,2,0,0,1,.81.12c.49.3.74.5.74.57l-3.33,8.68a2.13,2.13,0,0,1-1,1,3.83,3.83,0,0,1-1.73.38H269.72c-1.08,0-1.61-.27-1.61-.81s.53-.8,1.61-.8Z"/><path class="cls-1" d="M0,184.09C0,182.73,1.37,182,4.1,182H4q5.41-.28,7.1-2.63c1.12-1.56,1.69-4,1.69-7.47V90.25q0-5-2.13-6.44c-1.41-1-3.68-1.56-6.8-1.76H4C1.32,82.05,0,81.37,0,80s1.32-1.9,4-1.9h28l33.23,88.57L98.24,78.1h25.62c2.63,0,4,.68,4,2.05s-1.32,1.9-4,1.9q-5,.3-7.47,1.9h.15q-1.47,1.32-1.47,6.3v81.69q0,4.83,1.83,7.32t7,2.78h-.15c2.73,0,4.1.69,4.1,2.05s-1.37,2-4.1,2H89.6q-4.09,0-4.1-2c0-1.36,1.37-2.05,4.1-2.05h-.15c3.71-.19,6.37-1,8-2.41s2.42-4,2.42-7.69V96.4L65.73,187.17H57.24l-35.86-95v79.79a18.54,18.54,0,0,0,.51,4.83,6.38,6.38,0,0,0,1.75,3.08,6.73,6.73,0,0,0,3.22,1.61,29.7,29.7,0,0,0,4.91.58h-.15c2.73,0,4.1.69,4.1,2.05s-1.37,2-4.1,2H4.1Q0,186.14,0,184.09Z"/><path class="cls-1" d="M144.79,181.75a10.86,10.86,0,0,0,6.88-2.49c1.56-1.17,2.35-3.71,2.35-7.61V91.57q0-5.13-2.13-7.18c-1.41-1.36-3.83-2.14-7.24-2.34h.14c-2.63,0-3.95-.68-3.95-2s1.32-1.9,3.95-1.9h72q5.72,0,7,3.51l8.64,21.08c.19.2.29.35.29.44l.15.15L231,104.74a4.42,4.42,0,0,1-1.9.3c-1.46,0-2.39-.2-2.78-.59h.14l-3.22-4q-7-9.52-11.12-12.45h.14a34.52,34.52,0,0,0-20.2-6H167.92v45.39h20.5a15.76,15.76,0,0,0,6.73-1.25,10.21,10.21,0,0,0,4.18-3.51,15.15,15.15,0,0,0,2.19-5.35,39.88,39.88,0,0,0,.81-6.73c0-1.27,1.32-1.9,3.95-1.9s3.95.63,3.95,1.9v38.5c0,1.27-1.31,1.91-3.95,1.91s-3.95-.64-3.95-1.91q-.3-9.21-3.66-12.59A13,13,0,0,0,188.42,132h-20.5v39.68c0,3.9.69,6.44,2.05,7.61a12.33,12.33,0,0,0,7.76,2.49h13.91a41,41,0,0,0,11.93-1.61,36.07,36.07,0,0,0,9.74-4.54,44.58,44.58,0,0,0,8.2-7.1,92.23,92.23,0,0,0,7.46-9.44,5.87,5.87,0,0,1,3.08-.59,4.94,4.94,0,0,1,2,.3c1.27.78,1.9,1.27,1.9,1.46l-8.49,22.11a5.4,5.4,0,0,1-2.64,2.56,9.62,9.62,0,0,1-4.39.95H144.94c-2.74,0-4.1-.68-4.1-2s1.36-2.05,4.1-2.05Z"/><path class="cls-1" d="M273.48,78.1l64.42,85.06V90.25a9,9,0,0,0-.81-4.17,6.18,6.18,0,0,0-2.19-2.42,8.64,8.64,0,0,0-3.08-1.17c-1.12-.19-2.27-.34-3.44-.44h.15q-4,0-4-2c0-1.27,1.32-1.9,4-1.9H355.9q4,0,4,2.05c0,1.27-1.32,1.9-4,1.9h.15c-1.07.1-2.17.25-3.29.44a7.79,7.79,0,0,0-3,1.17,7,7,0,0,0-2.2,2.49,8.47,8.47,0,0,0-.88,4.1v96.33h-8.34L270.55,96.4v75.54q0,6.3,1.91,7.76,2.34,2.06,7.31,2.34h-.14c2.73,0,4.1.69,4.1,2.05s-1.37,2-4.1,2H252.54q-4.09,0-4.1-2c0-1.36,1.37-2.05,4.1-2.05h-.14q4.68-.28,7-2.34c1.46-1.17,2.19-3.75,2.19-7.76V92.3q0-5.42-2.12-7.69c-1.42-1.51-3.83-2.36-7.25-2.56h.15q-4,0-4-2c0-1.27,1.32-1.9,4-1.9Z"/><path class="cls-1" d="M412.27,78.24c2.73,0,4.1.69,4.1,2.05s-1.37,2-4.1,2h.15a17.72,17.72,0,0,0-8.5,2h.15c-1.37.79-2.05,3-2.05,6.74v61.49a33.3,33.3,0,0,0,2.27,12.52,29.28,29.28,0,0,0,6.3,9.73,27.18,27.18,0,0,0,9.73,6.3,34.89,34.89,0,0,0,12.59,2.19A33.19,33.19,0,0,0,453.85,176q8.49-6.73,8.49-24V91.13c0-3.71-.69-5.95-2-6.74q-2.64-1.76-8.2-2-4.09,0-4.1-2c0-1.36,1.37-2.05,4.1-2.05h29c2.73,0,4.1.69,4.1,2.05s-1.37,2-4.1,2q-5.56.3-8.2,2c-1.37.79-2.05,3-2.05,6.74v61.78a36.9,36.9,0,0,1-3,15.3,30.27,30.27,0,0,1-8.57,11.2,38.15,38.15,0,0,1-13.39,6.88,61.56,61.56,0,0,1-17.64,2.34,51.49,51.49,0,0,1-16.11-2.49,39.08,39.08,0,0,1-13.25-7.24,34.14,34.14,0,0,1-8.93-11.79,37.59,37.59,0,0,1-3.29-16.1V91.13c0-3.61-.64-5.86-1.9-6.74q-2.5-1.76-8.5-2-4.1,0-4.1-2c0-1.36,1.37-2.05,4.1-2.05Z"/></g></g></svg>