<svg xmlns="http://www.w3.org/2000/svg" xmlns:xlink="http://www.w3.org/1999/xlink" viewBox="0 0 591 814.02"><defs><style>.cls-1{fill:#f4f1e9;}.cls-2{fill:#f7cd24;}.cls-3{fill:#dbb721;}.cls-4{opacity:0.05;}.cls-5,.cls-6,.cls-7,.cls-8,.cls-9{fill-rule:evenodd;}.cls-5{fill:url(#linear-gradient);}.cls-6{fill:url(#linear-gradient-2);}.cls-7{fill:url(#linear-gradient-3);}.cls-8{fill:url(#linear-gradient-4);}.cls-9{fill:url(#linear-gradient-5);}.cls-10{fill:#c6a518;}</style><linearGradient id="linear-gradient" x1="294.95" y1="770" x2="294.95" y2="495" gradientUnits="userSpaceOnUse"><stop offset="0" stop-color="#f4f1e9"/><stop offset="0.12" stop-color="#efe4bd"/><stop offset="0.28" stop-color="#e9d78e"/><stop offset="0.43" stop-color="#e4cb67"/><stop offset="0.58" stop-color="#e0c248"/><stop offset="0.73" stop-color="#ddbc33"/><stop offset="0.87" stop-color="#dcb825"/><stop offset="1" stop-color="#dbb721"/></linearGradient><linearGradient id="linear-gradient-2" x1="166.58" x2="166.58" y2="547.32" xlink:href="#linear-gradient"/><linearGradient id="linear-gradient-3" x1="423.43" x2="423.43" y2="547.32" xlink:href="#linear-gradient"/><linearGradient id="linear-gradient-4" x1="523.07" x2="523.07" y2="573.21" xlink:href="#linear-gradient"/><linearGradient id="linear-gradient-5" x1="71.92" x2="71.92" y2="573.21" xlink:href="#linear-gradient"/></defs><g id="Layer_2" data-name="Layer 2"><g id="Layer_1-2" data-name="Layer 1"><rect class="cls-1" width="591" height="770"/><rect class="cls-2" x="0.28" y="356" width="590.72" height="14"/><rect class="cls-3" x="0.28" y="356" width="590.72" height="7"/><g class="cls-4"><path class="cls-5" d="M373.79,696.34v12.58l-.1,3.06-.1,3.17-.11,3.17-.21,3.07-.22,3.16-.21,3.07-.32,3.17-.41,3.07-.43,3.16-.52,3.07-.54,3.06-.53,3.07-.73,3.07-.64,3.06-.85,3.07-.84,3-.85,3.07-.95,3-1.05,3-.94,2.64H226.77l-.94-2.64-1.06-3-1-3-.84-3.07-.84-3-.86-3.07-.73-3.06-.64-3.07-.63-3.07-.53-3.06-.42-3.07-.43-3.16-.42-3.07-.32-3.17-.2-3.07-.32-3.16-.11-3.07-.21-3.17-.11-3.17v-3.06l-.11-3.18v-3.16l.11-3.18v-3.06l.11-3.17.1-3.17.11-3.18.21-3.07.22-3.16.2-3.17.21-3.17.32-3.07L218,668l.32-3.07.31-3.16.43-3.07.42-3.17.52-3.07.43-3.06.63-3.17.53-3.06.63-3.07.64-3.07.74-2.95.74-3.07.74-3.06.85-3,.84-3.07.84-2.95.95-3,1-3.06,1.06-3,1-2.86,1.06-3,1.05-3,1.16-3,1.18-2.86,1.16-2.95,2.32-5.82,2.54-5.81,2.54-5.81,2.53-5.71,2.54-5.7,1.37-2.86,1.38-2.86,1.36-2.85,1.38-2.85,1.37-2.75,1.48-2.86,1.49-2.75,1.58-2.75,1.47-2.63,1.59-2.75,3.39-5.28,1.69-2.65,1.8-2.64,1.79-2.54,1.91-2.53,1.89-2.43,1.91-2.54,7.82-9.93,1.9-2.43,1.91-2.54,1.79-2.54.95-1.27.53-.53.21-.31A2.18,2.18,0,0,1,295,495a2.26,2.26,0,0,1,1.38.53l.21.31.52.53.85,1.27,1.9,2.54,1.91,2.54,1.9,2.43,7.82,9.93,1.9,2.54,1.9,2.43,1.9,2.53,1.8,2.54,1.79,2.64,1.7,2.65,1.69,2.64,1.69,2.64,1.58,2.75,1.49,2.63,1.58,2.75,1.49,2.75,1.36,2.86,1.48,2.75,1.38,2.85,1.37,2.85,1.38,2.86,1.26,2.86,2.65,5.7,2.53,5.71,2.54,5.81,2.43,5.81,2.43,5.82,1.16,2.95,1.16,2.86,1.17,3,1.05,3,1.07,3,1.05,2.86,1.06,3,.95,3.06.94,3,.86,2.95.84,3.07.84,3,.75,3.06.73,3.07.75,2.95.63,3.07.64,3.07.52,3.06.53,3.17.52,3.06.54,3.07.42,3.17.42,3.07.32,3.16L372,668l.32,3.17.31,3.07.21,3.17.21,3.17.22,3.16.1,3.07.22,3.18.1,3.17Z"/><path class="cls-6" d="M211.55,601.22l-1.16,4.65-1.27,4.55L208,615l-1.07,4.64-1,4.66-1,4.54-.95,4.65-.95,4.66-.85,4.64-.74,4.76-.74,4.65-.63,4.65-.53,4.75-.53,4.65-.42,4.77-.32,4.64-.31,4.76-.11,4.75-.21,4.76-.11,4.65v4.75l-.1,4.76v4.76l.1,4.65.11,4.75.21,4.76.2,4.65.43,4.76.32,4.75.52,4.66.64,4.75.74,4.65.74,4.65.95,4.65,1.06,4.65,1.16,4.65.06.21H152.12l-.5-.84L149.3,765l-2.22-4.12-2.22-4.22-2-4.23-2-4.33-1.8-4.34-1.68-4.44-1.7-4.44-1.48-4.54-1.37-4.55-1.27-4.54-1.16-4.66-1.16-4.54-1.06-4.64-.85-4.66-.84-4.75-.85-4.65-.64-4.75-.62-4.66-.54-4.76-.52-4.64-.43-4.76-.32-4.76-.32-4.65-.2-4.75-.21-4.75-.11-4.77-.1-4.65v-4.75l.1-4.75v-4.77l.22-4.64.1-4.76.2-4.76.32-4.75.32-4.65.33-4.75.41-4.77.43-4.65.42-4.75.52-4.65.64-4.76.63-4.65.64-4.64.63-4.76.75-4.66.63-4.64.74-4.65A414,414,0,0,1,211.55,601.22Z"/><path class="cls-7" d="M468.4,636.73l-.1,4.75v4.65l-.11,4.77-.43,9.5-.32,4.65-.31,4.76-.42,4.76-.54,4.64-.52,4.76-.64,4.66-.73,4.75-.74,4.65-.85,4.75-.95,4.66-.95,4.64-1.16,4.54-1.16,4.66-1.27,4.54-1.37,4.55-1.59,4.54-1.59,4.44L451,743.79l-1.81,4.34-2,4.33-2,4.23-2.22,4.22L440.71,765l-2.43,4.13-.47.84H385.37l.06-.21,1.16-4.65,1.07-4.65.95-4.65.73-4.65.75-4.65.63-4.75.42-4.66.43-4.75.31-4.76.32-4.65.21-4.76.11-4.75V694.54l-.11-4.65-.21-4.76-.22-4.75-.21-4.76-.31-4.64-.42-4.77-.54-4.65-.52-4.75-.64-4.65-.73-4.65-.75-4.76-.84-4.64-.95-4.66-.95-4.65-1-4.54-1.05-4.66L381.94,615l-1.05-4.54-1.27-4.55-1.16-4.65a413.72,413.72,0,0,1,81.91-53.9L461,552l.73,4.64.74,4.66.64,4.76.62,4.64.64,4.65.53,4.76.53,4.65.53,4.75.42,4.65.42,4.77.32,4.75.31,4.65.32,4.75.22,4.76.1,4.76.11,4.64.11,4.77Z"/><path class="cls-8" d="M581.67,573.21l-.32,4.75-.3,4.77-.32,4.64-.32,4.76-.32,4.75-.31,4.66-.43,4.75-.53,4.65-.52,4.75-.54,4.66-.63,4.75-.64,4.65-.62,4.66-.75,4.75-.74,4.65-.84,4.64-.85,4.66-1.9,9.3-.95,4.55-1.06,4.64-1.16,4.65-1.17,4.55-1.16,4.54L564,689.89l-1.37,4.54L561.27,699l-1.48,4.56L558.32,708l-1.69,4.55L555,716.94l-1.79,4.45-1.8,4.33-1.9,4.44-1.91,4.33-2,4.23-2.23,4.34-2.21,4.11L539,751.4l-2.43,4-2.54,4-2.64,4-2.64,3.8L526.66,770h-62.2l1.49-3.38,1.9-4.34,1.8-4.43,1.69-4.44,1.47-4.44,1.48-4.55,1.49-4.54,1.26-4.54,1.27-4.55,1.16-4.54,1.06-4.65,1.05-4.66,1.07-4.54,1-4.65.95-4.65.84-4.65.85-4.64.84-4.66.64-4.65.74-4.75.53-4.66.52-4.75.43-4.65.32-4.75.31-4.77.21-4.65.11-4.75L491,642l.1-4.77v-4.64l-.1-4.76-.11-4.75-.21-4.76-.22-4.65-.2-4.75A411.67,411.67,0,0,1,581.67,573.21Z"/><path class="cls-9" d="M130.52,770H68.27l-2-2.75-2.75-3.8-2.53-4-2.54-4-2.43-4-2.32-4.23-2.22-4.11-2.12-4.34-2-4.23-2-4.33-1.89-4.44-1.81-4.33L40,716.94l-1.69-4.43L36.68,708l-1.47-4.43L33.73,699l-1.38-4.54L31,689.89l-1.27-4.55-1.27-4.54-1.16-4.55-1.06-4.65L25.16,667l-.95-4.55-1.9-9.3-.85-4.66-.84-4.64-.74-4.65-.75-4.75-.73-4.66-.64-4.65-.52-4.75-.64-4.66-.52-4.75-.43-4.65-.43-4.75-.41-4.66-.64-9.51-.32-4.64-.2-4.77-.32-4.75a409,409,0,0,1,91.31,35.73l-.21,4.75-.21,4.65-.11,4.76-.11,4.75-.1,4.76V642l.1,4.75.22,4.75.21,4.65.31,4.77.32,4.75.43,4.65.52,4.75.53,4.66.63,4.75.75,4.65.84,4.66.85,4.64.84,4.65,1,4.65.95,4.65,1,4.54,1,4.66,1.17,4.65,1.16,4.54,1.27,4.55,1.26,4.54,1.38,4.54,1.48,4.55,1.58,4.44,1.69,4.44,1.7,4.43,1.89,4.34Z"/></g><path class="cls-10" d="M244.84,721.78H251v2h-.56a5,5,0,0,0-.25-.77,1.59,1.59,0,0,0-.26-.44.79.79,0,0,0-.29-.21,1.41,1.41,0,0,0-.47-.06h-.73v5.84a3.51,3.51,0,0,0,0,.54,1.08,1.08,0,0,0,.11.32.72.72,0,0,0,.21.18,2.22,2.22,0,0,0,.41.13v.28h-2.6v-.28l.3-.09a.68.68,0,0,0,.21-.11.47.47,0,0,0,.14-.17.85.85,0,0,0,.08-.28,2.32,2.32,0,0,0,0-.52v-5.84h-.72a1.47,1.47,0,0,0-.45.05.69.69,0,0,0-.32.21,1.57,1.57,0,0,0-.27.47,5.24,5.24,0,0,0-.23.75h-.57Z"/><path class="cls-10" d="M258.07,728.14c0,.22,0,.39,0,.5a.77.77,0,0,0,.06.26.69.69,0,0,0,.1.17.41.41,0,0,0,.16.11l.33.11v.28h-2.39v-.28a1.28,1.28,0,0,0,.43-.18.46.46,0,0,0,.18-.3,3.28,3.28,0,0,0,.05-.67v-2.39h-3.18v2.39a3.69,3.69,0,0,0,0,.56.84.84,0,0,0,.09.28.4.4,0,0,0,.17.17,1.72,1.72,0,0,0,.38.14v.28h-2.4v-.28a1.24,1.24,0,0,0,.47-.2.61.61,0,0,0,.16-.32,4.49,4.49,0,0,0,0-.63V723.2a3.85,3.85,0,0,0,0-.57.66.66,0,0,0-.1-.28.44.44,0,0,0-.17-.16,1.5,1.5,0,0,0-.37-.13v-.28h2.4v.28a1.47,1.47,0,0,0-.36.12.46.46,0,0,0-.18.16.7.7,0,0,0-.09.28,2.83,2.83,0,0,0,0,.58v2H257v-2a3.32,3.32,0,0,0-.05-.68.59.59,0,0,0-.16-.28,1.46,1.46,0,0,0-.45-.18v-.28h2.39v.28a1.15,1.15,0,0,0-.45.18.49.49,0,0,0-.17.29,3.62,3.62,0,0,0,0,.67Z"/><path class="cls-10" d="M265.45,721.78v1.72h-.56a3.46,3.46,0,0,0-.17-.49c-.07-.14-.13-.26-.19-.36a.92.92,0,0,0-.22-.22.66.66,0,0,0-.27-.12,2.21,2.21,0,0,0-.39,0h-1.8v3h1.22a.9.9,0,0,0,.4-.07.59.59,0,0,0,.23-.24,2.79,2.79,0,0,0,.18-.54h.54v2.19h-.54a1.82,1.82,0,0,0-.18-.52.59.59,0,0,0-.23-.24.83.83,0,0,0-.4-.08h-1.22v3.3h1.78a1.87,1.87,0,0,0,.45-.05.9.9,0,0,0,.3-.17,1.17,1.17,0,0,0,.22-.3,2,2,0,0,0,.16-.4c.05-.13.11-.33.18-.59h.57l-.11,2h-5.29v-.28a1.23,1.23,0,0,0,.48-.2.61.61,0,0,0,.16-.32,4.85,4.85,0,0,0,0-.63V723.2a3.85,3.85,0,0,0,0-.57.84.84,0,0,0-.09-.28.44.44,0,0,0-.17-.16,1.62,1.62,0,0,0-.38-.13v-.28Z"/><path class="cls-10" d="M269.41,729.57v-.28a2.09,2.09,0,0,0,.37-.13A.57.57,0,0,0,270,729a.84.84,0,0,0,.09-.28,4,4,0,0,0,0-.58V723.2a4,4,0,0,0,0-.58.71.71,0,0,0-.09-.27.46.46,0,0,0-.18-.16,1.36,1.36,0,0,0-.37-.13v-.28h2.5a5.4,5.4,0,0,1,1.76.23,3.12,3.12,0,0,1,1.17.7,2.85,2.85,0,0,1,.7,1.15,5,5,0,0,1,.24,1.64,6.15,6.15,0,0,1-.22,1.7,3.42,3.42,0,0,1-.64,1.23,3.18,3.18,0,0,1-.9.72,3.3,3.3,0,0,1-1,.32,8.9,8.9,0,0,1-1.53.1Zm1.74-.53.67,0a4.42,4.42,0,0,0,.86-.08,2.39,2.39,0,0,0,.68-.25,1.94,1.94,0,0,0,.56-.48,3,3,0,0,0,.4-.7,4.35,4.35,0,0,0,.22-.88,7.07,7.07,0,0,0,.07-1.06,4.75,4.75,0,0,0-.33-1.91,2.31,2.31,0,0,0-.94-1.09,3,3,0,0,0-1.45-.34l-.74,0Z"/><path class="cls-10" d="M282.49,721.78v1.72h-.56c-.06-.19-.12-.35-.18-.49a2,2,0,0,0-.19-.36.89.89,0,0,0-.21-.22.65.65,0,0,0-.28-.12,2.09,2.09,0,0,0-.38,0h-1.81v3h1.23a.88.88,0,0,0,.39-.07.69.69,0,0,0,.24-.24,2.79,2.79,0,0,0,.18-.54h.53v2.19h-.53a2.76,2.76,0,0,0-.18-.52.67.67,0,0,0-.23-.24.86.86,0,0,0-.4-.08h-1.23v3.3h1.78a1.75,1.75,0,0,0,.45-.05.74.74,0,0,0,.3-.17,1.19,1.19,0,0,0,.23-.3c.06-.13.11-.26.16-.4l.18-.59h.56l-.11,2h-5.28v-.28a1.24,1.24,0,0,0,.47-.2.61.61,0,0,0,.16-.32,4.49,4.49,0,0,0,0-.63V723.2a3.85,3.85,0,0,0,0-.57.66.66,0,0,0-.1-.28.44.44,0,0,0-.17-.16,1.5,1.5,0,0,0-.37-.13v-.28Z"/><path class="cls-10" d="M285.61,729h1.49a2.29,2.29,0,0,0,.41,0,1.11,1.11,0,0,0,.29-.08.68.68,0,0,0,.21-.17,1.36,1.36,0,0,0,.18-.28,2.06,2.06,0,0,0,.16-.43c0-.17.12-.43.19-.78h.58l-.12,2.3h-5.13v-.28a1.23,1.23,0,0,0,.48-.2.53.53,0,0,0,.15-.32,3.34,3.34,0,0,0,0-.63V723.2a3.85,3.85,0,0,0,0-.57.84.84,0,0,0-.09-.28.46.46,0,0,0-.18-.16,1.36,1.36,0,0,0-.37-.13v-.28h2.41v.28a1.47,1.47,0,0,0-.36.12.39.39,0,0,0-.17.14.74.74,0,0,0-.11.28,4.33,4.33,0,0,0,0,.6Z"/><path class="cls-10" d="M296.12,728.14c0,.22,0,.39,0,.5a.77.77,0,0,0,.06.26.68.68,0,0,0,.09.17.56.56,0,0,0,.17.11l.33.11v.28h-2.4v-.28a1.26,1.26,0,0,0,.44-.18.5.5,0,0,0,.18-.3,3.28,3.28,0,0,0,.05-.67v-2.39h-3.18v2.39a3.69,3.69,0,0,0,0,.56.66.66,0,0,0,.08.28.42.42,0,0,0,.18.17,1.54,1.54,0,0,0,.38.14v.28h-2.4v-.28a1.24,1.24,0,0,0,.47-.2.61.61,0,0,0,.16-.32,4.85,4.85,0,0,0,0-.63V723.2c0-.26,0-.45,0-.57a.66.66,0,0,0-.1-.28.44.44,0,0,0-.17-.16,1.68,1.68,0,0,0-.37-.13v-.28h2.4v.28a1.47,1.47,0,0,0-.36.12.4.4,0,0,0-.18.16.69.69,0,0,0-.1.28,4.1,4.1,0,0,0,0,.58v2h3.18v-2a3.32,3.32,0,0,0-.05-.68.6.6,0,0,0-.17-.28,1.26,1.26,0,0,0-.45-.18v-.28h2.4v.28a1.08,1.08,0,0,0-.45.18.49.49,0,0,0-.17.29,3.42,3.42,0,0,0-.05.67Z"/><path class="cls-10" d="M299.91,728.14a3.69,3.69,0,0,0,0,.56.85.85,0,0,0,.08.28.42.42,0,0,0,.18.17,1.72,1.72,0,0,0,.38.14v.28h-2.41v-.28a1.23,1.23,0,0,0,.48-.2.53.53,0,0,0,.15-.32,3.34,3.34,0,0,0,0-.63V723.2a3.85,3.85,0,0,0,0-.57.84.84,0,0,0-.09-.28.46.46,0,0,0-.18-.16,1.36,1.36,0,0,0-.37-.13v-.28h2.41v.28a1.47,1.47,0,0,0-.36.12.46.46,0,0,0-.18.16.88.88,0,0,0-.1.28,4.1,4.1,0,0,0,0,.58Z"/><path class="cls-10" d="M306.27,729h1.5a2.37,2.37,0,0,0,.41,0,1,1,0,0,0,.28-.08.68.68,0,0,0,.21-.17.85.85,0,0,0,.18-.28,2.74,2.74,0,0,0,.17-.43c.05-.17.11-.43.19-.78h.57l-.11,2.3h-5.13v-.28a1.24,1.24,0,0,0,.47-.2.61.61,0,0,0,.16-.32,4.85,4.85,0,0,0,0-.63V723.2a4.21,4.21,0,0,0,0-.57.66.66,0,0,0-.1-.28.44.44,0,0,0-.17-.16,1.5,1.5,0,0,0-.37-.13v-.28h2.4v.28a1.47,1.47,0,0,0-.36.12.46.46,0,0,0-.17.14.61.61,0,0,0-.1.28,3,3,0,0,0,0,.6Z"/><path class="cls-10" d="M313.77,729.66a3.35,3.35,0,0,1-1.25-.23,2.37,2.37,0,0,1-1-.7,3.35,3.35,0,0,1-.63-1.22,6.48,6.48,0,0,1-.22-1.77,5.57,5.57,0,0,1,.39-2.19,3.05,3.05,0,0,1,1.11-1.39,3,3,0,0,1,1.68-.48,3.11,3.11,0,0,1,1.71.45,2.72,2.72,0,0,1,1,1.32,5.57,5.57,0,0,1,.35,2.12,5.64,5.64,0,0,1-.4,2.26,2.91,2.91,0,0,1-1.12,1.37A3.12,3.12,0,0,1,313.77,729.66Zm-1.88-4.08a5.55,5.55,0,0,0,.51,2.66,1.63,1.63,0,0,0,1.49.92,1.53,1.53,0,0,0,1.06-.4,2.36,2.36,0,0,0,.65-1.16,6.79,6.79,0,0,0,.22-1.79,7,7,0,0,0-.26-2.06,2.45,2.45,0,0,0-.69-1.19,1.51,1.51,0,0,0-1-.37,1.54,1.54,0,0,0-.88.24,1.87,1.87,0,0,0-.62.68,3.36,3.36,0,0,0-.35,1.07A8.46,8.46,0,0,0,311.89,725.58Z"/><path class="cls-10" d="M324.09,726.87A4.27,4.27,0,0,1,324,728a2.47,2.47,0,0,1-.33.76,1.94,1.94,0,0,1-.49.5,2.39,2.39,0,0,1-.72.33,3.63,3.63,0,0,1-1,.12,3.77,3.77,0,0,1-1.19-.16,1.86,1.86,0,0,1-.82-.5,2,2,0,0,1-.46-.83,4.14,4.14,0,0,1-.14-1.21V723.2a4,4,0,0,0,0-.6,1.05,1.05,0,0,0-.08-.25.46.46,0,0,0-.16-.15,1.12,1.12,0,0,0-.38-.14v-.28h2.39v.28a1.09,1.09,0,0,0-.44.18.45.45,0,0,0-.17.29,3.42,3.42,0,0,0-.05.67v4a3.09,3.09,0,0,0,.12.93,1.38,1.38,0,0,0,.33.59,1.16,1.16,0,0,0,.5.3,2.12,2.12,0,0,0,.72.1,1.76,1.76,0,0,0,.71-.14,1.29,1.29,0,0,0,.5-.43,1.64,1.64,0,0,0,.28-.7,6.7,6.7,0,0,0,.07-1.12V723.2a2.72,2.72,0,0,0,0-.68.52.52,0,0,0-.16-.28,1.25,1.25,0,0,0-.46-.18v-.28h2.28v.28a1.24,1.24,0,0,0-.45.18.55.55,0,0,0-.17.3,3.23,3.23,0,0,0-.05.66Z"/><path class="cls-10" d="M330.52,726.48c.14.23.25.43.35.6s.19.36.29.58h.07c0-.24,0-.7-.05-1.39s0-1.31,0-1.87v-1.2a3.85,3.85,0,0,0,0-.57.58.58,0,0,0-.08-.28.44.44,0,0,0-.17-.16,1.4,1.4,0,0,0-.36-.13v-.28h2.05v.28a1.47,1.47,0,0,0-.36.12.5.5,0,0,0-.17.15.57.57,0,0,0-.1.27,2.93,2.93,0,0,0,0,.6v6.4h-.71L328,724.27q-.3-.49-.42-.72c-.09-.16-.16-.31-.24-.46h-.09c0,.3,0,.83.05,1.59s0,1.53,0,2.3v1.16a3.69,3.69,0,0,0,0,.56.66.66,0,0,0,.08.28.42.42,0,0,0,.18.17,1.54,1.54,0,0,0,.38.14v.28h-2.09v-.28a1.23,1.23,0,0,0,.48-.2.61.61,0,0,0,.16-.32,4.85,4.85,0,0,0,0-.63V723.2a3.85,3.85,0,0,0,0-.57.66.66,0,0,0-.09-.28.44.44,0,0,0-.17-.16,1.62,1.62,0,0,0-.38-.13v-.28h1.79Z"/><path class="cls-10" d="M339.36,729.54l-.45.12-.41-.45a2.68,2.68,0,0,1-.78.34,3.71,3.71,0,0,1-.93.11,2.55,2.55,0,0,1-2.18-1,5,5,0,0,1-.73-2.94,5.45,5.45,0,0,1,.4-2.14,3.17,3.17,0,0,1,1.15-1.41,3.13,3.13,0,0,1,1.76-.5,8.47,8.47,0,0,1,1,.06,9,9,0,0,1,1.09.21v1.57h-.56a2.86,2.86,0,0,0-.37-.8,1.21,1.21,0,0,0-.5-.41,2,2,0,0,0-.75-.12,1.61,1.61,0,0,0-1.09.4,2.64,2.64,0,0,0-.73,1.17,6.12,6.12,0,0,0-.26,1.89,7.54,7.54,0,0,0,.22,1.91,2.46,2.46,0,0,0,.66,1.19,1.5,1.5,0,0,0,1.06.41,1.42,1.42,0,0,0,1-.3,1.14,1.14,0,0,0,.33-.9v-.34a3.32,3.32,0,0,0-.06-.75.63.63,0,0,0-.19-.35,1.18,1.18,0,0,0-.45-.21V726h2.31v.28a1,1,0,0,0-.31.16.6.6,0,0,0-.16.22,1.38,1.38,0,0,0-.07.32,4.12,4.12,0,0,0,0,.55Z"/><path class="cls-10" d="M346.37,721.78v1.72h-.56a3.46,3.46,0,0,0-.17-.49,3,3,0,0,0-.19-.36,1.12,1.12,0,0,0-.21-.22.7.7,0,0,0-.28-.12,2.17,2.17,0,0,0-.38,0h-1.81v3H344a.9.9,0,0,0,.4-.07.59.59,0,0,0,.23-.24,1.87,1.87,0,0,0,.18-.54h.54v2.19h-.54a2.25,2.25,0,0,0-.17-.52.67.67,0,0,0-.23-.24.87.87,0,0,0-.41-.08h-1.22v3.3h1.78A1.87,1.87,0,0,0,345,729a.74.74,0,0,0,.3-.17,1.17,1.17,0,0,0,.22-.3,2.83,2.83,0,0,0,.17-.4l.18-.59h.56l-.11,2H341v-.28a1.24,1.24,0,0,0,.47-.2.61.61,0,0,0,.16-.32,4.85,4.85,0,0,0,0-.63V723.2c0-.26,0-.45,0-.57a.66.66,0,0,0-.1-.28.44.44,0,0,0-.17-.16,1.5,1.5,0,0,0-.37-.13v-.28Z"/><path class="cls-10" d="M286.21,713.9a.12.12,0,0,1-.09,0,.13.13,0,0,1,0-.18,14.81,14.81,0,0,1,9.52-3.41,14.82,14.82,0,0,1,9.49,3.4.12.12,0,0,1,0,.18.14.14,0,0,1-.18,0,14.68,14.68,0,0,0-18.68,0Z"/><path class="cls-10" d="M286.21,714.17a.4.4,0,0,1-.3-.15.38.38,0,0,1-.09-.29.42.42,0,0,1,.14-.27,15.22,15.22,0,0,1,19.35,0,.4.4,0,0,1,.06.56.42.42,0,0,1-.27.14.38.38,0,0,1-.29-.09,14.42,14.42,0,0,0-18.34,0A.39.39,0,0,1,286.21,714.17Z"/><path class="cls-10" d="M346.18,717.26h0c-.25,0-25.15-.15-49.92-.23-9.46,0-17.7,0-24.63,0h-10c-13,0-16.15.15-16.42.24a.12.12,0,0,1-.17,0,.12.12,0,0,1,0-.18c.1-.09.29-.25,16.18-.29,8.42,0,20.1,0,34.71,0,24.89.08,50,.23,50.27.24a.11.11,0,0,1,.12.12A.12.12,0,0,1,346.18,717.26Zm-101,0Zm0,0Z"/><path class="cls-10" d="M245.1,717.53a.41.41,0,0,1-.31-.14.4.4,0,0,1,.06-.56c.12-.11.19-.16,2.33-.22,2.43-.07,7.15-.11,14-.13,8.42,0,20.1,0,34.72,0,24.91.07,50,.23,50.26.23a.39.39,0,0,1,.39.4.4.4,0,0,1-.39.39h0c-.26,0-25.2-.15-49.93-.23-9.42,0-17.7,0-24.62,0h-10c-13.38,0-16,.16-16.33.23h0A.2.2,0,0,1,245.1,717.53Zm.1-.28.14.2Zm0,0,.14.2Zm0,0h0Zm0,0h0Z"/><path class="cls-10" d="M249.7,713.93a4.47,4.47,0,0,1-4.4-4.52,3.6,3.6,0,0,1,3.55-3.64,2.9,2.9,0,0,1,2.86,2.94,2.34,2.34,0,0,1-2.31,2.37,1.9,1.9,0,0,1-1.88-1.92.13.13,0,0,1,.26,0,1.64,1.64,0,0,0,1.62,1.67,2.1,2.1,0,0,0,2.06-2.12,2.65,2.65,0,0,0-2.61-2.68,3.34,3.34,0,0,0-3.29,3.38,4.21,4.21,0,0,0,4.14,4.26.13.13,0,0,1,0,.26Z"/><path class="cls-10" d="M249.7,714.19a4.72,4.72,0,0,1-4.66-4.78,3.87,3.87,0,0,1,3.81-3.91,3.17,3.17,0,0,1,3.13,3.21,2.61,2.61,0,0,1-2.58,2.64,2.17,2.17,0,0,1-2.15-2.19.4.4,0,0,1,.4-.4.39.39,0,0,1,.39.4,1.38,1.38,0,0,0,1.36,1.4,1.83,1.83,0,0,0,1.79-1.85,2.38,2.38,0,0,0-2.34-2.41,3.06,3.06,0,0,0-3,3.11,3.94,3.94,0,0,0,3.87,4,.4.4,0,0,1,.4.4A.39.39,0,0,1,249.7,714.19Z"/><path class="cls-10" d="M341.57,713.93a.13.13,0,0,1,0-.26,4.2,4.2,0,0,0,4.14-4.26,3.34,3.34,0,0,0-3.28-3.38,2.65,2.65,0,0,0-2.61,2.68,2.09,2.09,0,0,0,2.06,2.12,1.65,1.65,0,0,0,1.62-1.67.13.13,0,0,1,.26,0,1.91,1.91,0,0,1-1.88,1.92,2.35,2.35,0,0,1-2.32-2.37,2.91,2.91,0,0,1,2.87-2.94,3.59,3.59,0,0,1,3.54,3.64A4.47,4.47,0,0,1,341.57,713.93Z"/><path class="cls-10" d="M341.57,714.19a.39.39,0,0,1-.4-.39.4.4,0,0,1,.4-.4,3.94,3.94,0,0,0,3.88-4,3.07,3.07,0,0,0-3-3.11,2.38,2.38,0,0,0-2.34,2.41,1.82,1.82,0,0,0,1.79,1.85,1.38,1.38,0,0,0,1.35-1.4.4.4,0,0,1,.8,0,2.17,2.17,0,0,1-2.15,2.19,2.61,2.61,0,0,1-2.59-2.64,3.18,3.18,0,0,1,3.14-3.21,3.87,3.87,0,0,1,3.81,3.91A4.73,4.73,0,0,1,341.57,714.19Z"/><path class="cls-10" d="M341.56,713.93H249.5a.13.13,0,0,1,0-.26h92.06a.13.13,0,0,1,0,.26Z"/><path class="cls-10" d="M341.56,714.19H249.5a.38.38,0,0,1-.39-.39.39.39,0,0,1,.39-.4h92.06a.4.4,0,0,1,.4.4A.39.39,0,0,1,341.56,714.19Z"/><path class="cls-10" d="M286.44,710.73a2.45,2.45,0,0,1-2.45-2.45,3,3,0,0,1,3-3,3.77,3.77,0,0,1,3.77,3.76.13.13,0,0,1-.26,0,3.51,3.51,0,0,0-3.51-3.5,2.78,2.78,0,0,0-2.78,2.78,2.2,2.2,0,0,0,2.2,2.19,1.72,1.72,0,0,0,1.73-1.73,1.36,1.36,0,0,0-1.36-1.36.13.13,0,0,1,0-.26,1.62,1.62,0,0,1,1.62,1.62A2,2,0,0,1,286.44,710.73Z"/><path class="cls-10" d="M286.44,711a2.72,2.72,0,0,1-2.72-2.72A3.31,3.31,0,0,1,287,705a4,4,0,0,1,4,4,.4.4,0,1,1-.8,0,3.24,3.24,0,0,0-3.24-3.23,2.51,2.51,0,0,0-2.51,2.51,1.94,1.94,0,0,0,1.93,1.93,1.47,1.47,0,0,0,1.47-1.47,1.09,1.09,0,0,0-1.1-1.09.4.4,0,0,1-.39-.4.39.39,0,0,1,.39-.39,1.89,1.89,0,0,1,1.89,1.88A2.26,2.26,0,0,1,286.44,711Z"/><path class="cls-10" d="M292.77,708.8a3,3,0,0,1-2.17-.9,3.81,3.81,0,0,1,0-5.39,4.7,4.7,0,0,1,3.34-1.38.13.13,0,0,1,0,.26,4.4,4.4,0,0,0-3.16,1.31,3.54,3.54,0,0,0,0,5,2.82,2.82,0,0,0,4,0,2.23,2.23,0,0,0,0-3.15,1.74,1.74,0,0,0-2.48,0,.14.14,0,0,1-.19,0,.13.13,0,0,1,0-.18,2,2,0,0,1,2.85,0,2.47,2.47,0,0,1,0,3.51A3.07,3.07,0,0,1,292.77,708.8Z"/><path class="cls-10" d="M292.77,709.06a3.3,3.3,0,0,1-2.36-1,4.07,4.07,0,0,1,0-5.77,5,5,0,0,1,3.53-1.46.4.4,0,0,1,.4.4.39.39,0,0,1-.4.39,4.15,4.15,0,0,0-3,1.24,3.28,3.28,0,0,0,0,4.64,2.53,2.53,0,0,0,1.8.74h0a2.53,2.53,0,0,0,1.8-.74,2,2,0,0,0,0-2.77,1.49,1.49,0,0,0-1.05-.44,1.48,1.48,0,0,0-1,.44.43.43,0,0,1-.28.11.44.44,0,0,1-.29-.11.4.4,0,0,1,0-.56,2.29,2.29,0,0,1,1.62-.67,2.26,2.26,0,0,1,1.61.67,2.74,2.74,0,0,1,0,3.89A3.31,3.31,0,0,1,292.77,709.06Z"/><path class="cls-10" d="M304.83,710.51a2,2,0,0,1-2-2,1.62,1.62,0,0,1,1.62-1.61.12.12,0,0,1,.13.12.13.13,0,0,1-.13.13,1.36,1.36,0,0,0-1.36,1.36,1.74,1.74,0,0,0,1.73,1.74,2.2,2.2,0,0,0,2.2-2.2,2.79,2.79,0,0,0-2.78-2.78,3.5,3.5,0,0,0-3.5,3.5.13.13,0,1,1-.26,0,3.77,3.77,0,0,1,3.76-3.76,3,3,0,0,1,3,3A2.46,2.46,0,0,1,304.83,710.51Z"/><path class="cls-10" d="M304.83,710.78a2.26,2.26,0,0,1-2.25-2.26,1.88,1.88,0,0,1,1.88-1.88.4.4,0,1,1,0,.79,1.09,1.09,0,0,0-1.09,1.09,1.47,1.47,0,0,0,1.46,1.47,1.93,1.93,0,0,0,1.93-1.93,2.51,2.51,0,0,0-2.51-2.51,3.24,3.24,0,0,0-3.24,3.23.39.39,0,0,1-.39.4.4.4,0,0,1-.4-.4,4,4,0,0,1,4-4,3.32,3.32,0,0,1,3.31,3.31A2.72,2.72,0,0,1,304.83,710.78Z"/><path class="cls-10" d="M298.31,708.8a3.07,3.07,0,0,1-2.18-.9,2.5,2.5,0,0,1,0-3.51,2,2,0,0,1,2.85,0,.13.13,0,0,1-.18.18,1.74,1.74,0,0,0-2.48,0,2.21,2.21,0,0,0,0,3.15,2.78,2.78,0,0,0,2,.82,2.82,2.82,0,0,0,2-.82,3.55,3.55,0,0,0,0-5,4.44,4.44,0,0,0-3-1.31.12.12,0,0,1-.12-.13.13.13,0,0,1,.13-.13,4.79,4.79,0,0,1,3.13,1.38,3.83,3.83,0,0,1,0,5.39A3,3,0,0,1,298.31,708.8Z"/><path class="cls-10" d="M298.31,709.07a3.34,3.34,0,0,1-2.37-1,2.76,2.76,0,0,1,0-3.89,2.3,2.3,0,0,1,1.62-.67,2.26,2.26,0,0,1,1.61.67.4.4,0,0,1,0,.56.43.43,0,0,1-.28.11h0a.39.39,0,0,1-.28-.11,1.49,1.49,0,0,0-1.05-.44,1.48,1.48,0,0,0-1.05.44,1.94,1.94,0,0,0,0,2.77,2.56,2.56,0,0,0,3.6,0,3.28,3.28,0,0,0,0-4.64,4.19,4.19,0,0,0-2.78-1.23.41.41,0,0,1-.28-.13.38.38,0,0,1-.1-.29.37.37,0,0,1,.13-.27.36.36,0,0,1,.28-.1,5,5,0,0,1,3.31,1.45,4.09,4.09,0,0,1,0,5.77A3.32,3.32,0,0,1,298.31,709.07Z"/><path class="cls-10" d="M295.54,705.77l-.13-.36a38.09,38.09,0,0,1-1.37-4.79,1.5,1.5,0,0,1,3,0,38.09,38.09,0,0,1-1.37,4.79Zm0-6.38a1.24,1.24,0,0,0-1.24,1.23,29.94,29.94,0,0,0,1.24,4.35,30.94,30.94,0,0,0,1.23-4.35A1.24,1.24,0,0,0,295.54,699.39Z"/><path class="cls-10" d="M295.54,706.6l-.38-1.1a36,36,0,0,1-1.38-4.88,1.76,1.76,0,0,1,3.51,0,36,36,0,0,1-1.38,4.88Zm0-6.94a1,1,0,0,0-1,1,22.63,22.63,0,0,0,1,3.49,23.41,23.41,0,0,0,1-3.49A1,1,0,0,0,295.54,699.66Z"/><path class="cls-10" d="M282.76,711H254.14a.13.13,0,1,1,0-.26h28.62a.13.13,0,1,1,0,.26Z"/><path class="cls-10" d="M282.76,711.29H254.14a.4.4,0,1,1,0-.8h28.62a.4.4,0,1,1,0,.8Z"/><path class="cls-10" d="M337.13,711H307.79a.13.13,0,1,1,0-.26h29.34a.13.13,0,0,1,0,.26Z"/><path class="cls-10" d="M337.13,711.29H307.79a.4.4,0,0,1,0-.8h29.34a.4.4,0,0,1,0,.8Z"/><path class="cls-10" d="M271.63,734.54l-10.43,0c-15.89,0-16.08-.2-16.18-.29a.12.12,0,0,1,0-.18.14.14,0,0,1,.17,0c.27.09,3.37.21,16.42.25,8.45,0,20.11,0,34.67,0,24.77-.08,49.67-.23,49.92-.23h0a.12.12,0,0,1,.12.12.12.12,0,0,1-.12.13c-.25,0-25.38.16-50.27.23C286.6,734.52,278.48,734.54,271.63,734.54Zm-26.45-.5Zm0,0Z"/><path class="cls-10" d="M271.63,734.8H261.2c-6.87,0-11.59-.06-14-.13-2.14-.06-2.21-.12-2.33-.22a.4.4,0,0,1-.06-.56.42.42,0,0,1,.42-.13h.06l0,0c.47.07,3.31.18,16.3.22,8.45,0,20.12,0,34.66,0,24.73-.08,49.67-.23,49.92-.23a.4.4,0,0,1,0,.79c-.25,0-25.34.16-50.26.23C286.64,734.79,278.47,734.8,271.63,734.8Z"/><path class="cls-10" d="M253.74,745.55a3.83,3.83,0,0,1-3.82-3.83,4.75,4.75,0,0,1,4.74-4.74.13.13,0,1,1,0,.26,4.49,4.49,0,0,0-4.48,4.48,3.56,3.56,0,0,0,3.56,3.57,2.83,2.83,0,0,0,2.83-2.83,2.24,2.24,0,0,0-2.24-2.23,1.76,1.76,0,0,0-1.76,1.76.13.13,0,0,1-.26,0,2,2,0,0,1,2-2,2.49,2.49,0,0,1,2.49,2.49A3.09,3.09,0,0,1,253.74,745.55Z"/><path class="cls-10" d="M253.74,745.81a4.09,4.09,0,0,1-4.09-4.09,5,5,0,0,1,5-5,.4.4,0,0,1,.4.4.39.39,0,0,1-.4.39,4.23,4.23,0,0,0-4.22,4.22,3.3,3.3,0,0,0,3.3,3.3,2.56,2.56,0,0,0,2.56-2.56,2,2,0,0,0-2-2,1.49,1.49,0,0,0-1.49,1.49.4.4,0,0,1-.8,0,2.3,2.3,0,0,1,2.29-2.29,2.77,2.77,0,0,1,2.76,2.76A3.35,3.35,0,0,1,253.74,745.81Z"/><path class="cls-10" d="M337.54,745.55a3.1,3.1,0,0,1-3.09-3.09,2.5,2.5,0,0,1,2.49-2.49,2,2,0,0,1,2,2,.12.12,0,0,1-.12.13.13.13,0,0,1-.13-.13,1.76,1.76,0,0,0-1.77-1.76,2.23,2.23,0,0,0-2.23,2.23,2.83,2.83,0,0,0,2.83,2.83,3.57,3.57,0,0,0,3.56-3.57,4.49,4.49,0,0,0-4.49-4.48.13.13,0,0,1,0-.26,4.75,4.75,0,0,1,4.75,4.74A3.83,3.83,0,0,1,337.54,745.55Z"/><path class="cls-10" d="M337.54,745.81a3.36,3.36,0,0,1-3.36-3.35,2.77,2.77,0,0,1,2.76-2.76,2.29,2.29,0,0,1,2.29,2.29.4.4,0,1,1-.79,0,1.5,1.5,0,0,0-1.5-1.49,2,2,0,0,0-2,2,2.56,2.56,0,0,0,2.56,2.56,3.3,3.3,0,0,0,3.29-3.3,4.23,4.23,0,0,0-4.22-4.22.39.39,0,0,1-.4-.39.4.4,0,0,1,.4-.4,5,5,0,0,1,5,5A4.09,4.09,0,0,1,337.54,745.81Z"/><path class="cls-10" d="M336.71,737.24H254.56a.13.13,0,1,1,0-.26h82.15a.13.13,0,1,1,0,.26Z"/><path class="cls-10" d="M336.71,737.5H254.56a.39.39,0,0,1-.4-.39.4.4,0,0,1,.4-.4h82.15a.4.4,0,0,1,.4.4A.39.39,0,0,1,336.71,737.5Z"/><path class="cls-10" d="M318.14,740.59h-45a.13.13,0,0,1,0-.26h45a.13.13,0,0,1,0,.26Z"/><path class="cls-10" d="M318.14,740.86h-45a.4.4,0,0,1-.39-.4.39.39,0,0,1,.39-.39h45a.39.39,0,0,1,.4.39A.4.4,0,0,1,318.14,740.86Z"/><text/></g></g></svg>