<?xml version="1.0" encoding="utf-8"?>
<!-- Generator: Adobe Illustrator 26.0.1, SVG Export Plug-In . SVG Version: 6.00 Build 0)  -->
<svg version="1.1" id="Layer_1" xmlns="http://www.w3.org/2000/svg" xmlns:xlink="http://www.w3.org/1999/xlink" x="0px" y="0px"
	 viewBox="0 0 591 770.1" style="enable-background:new 0 0 591 770.1;" xml:space="preserve">
<style type="text/css">
	.st0{fill:#F4F1E9;}
	.st1{opacity:5.000000e-02;}
	.st2{fill-rule:evenodd;clip-rule:evenodd;fill:url(#SVGID_1_);}
	.st3{fill-rule:evenodd;clip-rule:evenodd;fill:url(#SVGID_00000147926918788521612410000007668811967003510442_);}
	.st4{fill-rule:evenodd;clip-rule:evenodd;fill:url(#SVGID_00000116193319655430243470000013475608112847698322_);}
	.st5{fill-rule:evenodd;clip-rule:evenodd;fill:url(#SVGID_00000005259325612809168370000013565829577725081735_);}
	.st6{fill-rule:evenodd;clip-rule:evenodd;fill:url(#SVGID_00000094614462846123935350000009750104825653954741_);}
	.st7{fill:#C6A518;}
</style>
<g id="Layer_2_00000119110412096686517440000009190358053988324748_">
	<g id="Layer_1-2">
		<rect y="0" class="st0" width="591" height="770"/>
		<g class="st1">
			
				<linearGradient id="SVGID_1_" gradientUnits="userSpaceOnUse" x1="294.92" y1="43.7598" x2="294.92" y2="318.9038" gradientTransform="matrix(1 0 0 -1 0 813.8898)">
				<stop  offset="0" style="stop-color:#F4F1E9"/>
				<stop  offset="0.12" style="stop-color:#EFE4BD"/>
				<stop  offset="0.28" style="stop-color:#E9D78E"/>
				<stop  offset="0.43" style="stop-color:#E4CB67"/>
				<stop  offset="0.58" style="stop-color:#E0C248"/>
				<stop  offset="0.73" style="stop-color:#DDBC33"/>
				<stop  offset="0.87" style="stop-color:#DCB825"/>
				<stop  offset="1" style="stop-color:#DBB721"/>
			</linearGradient>
			<path class="st2" d="M373.8,696.3v12.6l-0.1,3.1l-0.1,3.2l-0.1,3.2l-0.2,3.1l-0.2,3.2l-0.2,3.1l-0.3,3.2l-0.4,3.1l-0.4,3.2
				l-0.5,3.1l-0.5,3.1l-0.5,3.1l-0.7,3.1l-0.6,3.1l-0.9,3.1l-0.8,3l-0.9,3.1l-1,3l-1,3l-0.9,2.6H226.8l-0.9-2.6l-1.1-3l-1-3
				l-0.8-3.1l-0.8-3l-0.9-3.1l-0.7-3.1l-0.6-3.1l-0.6-3.1l-0.5-3.1l-0.4-3.1l-0.4-3.2l-0.4-3.1l-0.3-3.2l-0.2-3.1l-0.3-3.2l-0.1-3.1
				l-0.2-3.2l-0.1-3.2v-3.1l-0.1-3.2v-3.2l0.1-3.2v-3.1l0.1-3.2l0.1-3.2l0.1-3.2l0.2-3.1l0.2-3.2l0.2-3.2l0.2-3.2l0.3-3.1l0.4-3.2
				l0.3-3.1l0.3-3.2l0.4-3.1l0.4-3.2l0.5-3.1l0.4-3.1l0.6-3.2l0.5-3.1l0.6-3.1l0.6-3.1l0.7-3l0.7-3.1l0.7-3.1l0.9-3l0.8-3.1l0.8-3
				l0.9-3l1-3.1l1.1-3l1-2.9l1.1-3l1.1-3l1.2-3l1.2-2.9l1.2-3l2.3-5.8l2.5-5.8l2.5-5.8l2.5-5.7l2.5-5.7l1.4-2.9l1.4-2.9l1.4-2.8
				l1.4-2.8l1.4-2.8l1.5-2.9l1.5-2.8l1.6-2.8l1.5-2.6l1.6-2.8l3.4-5.3l1.7-2.7l1.8-2.6l1.8-2.5l1.9-2.5l1.9-2.4l1.9-2.5l7.8-9.9
				l1.9-2.4l1.9-2.5l1.8-2.5l1-1.3l0.5-0.5l0.2-0.3c0.4-0.2,0.9-0.3,1.3-0.3c0.5,0,1,0.2,1.4,0.5l0.2,0.3l0.5,0.5l0.9,1.3l1.9,2.5
				l1.9,2.5l1.9,2.4l7.8,9.9l1.9,2.5l1.9,2.4l1.9,2.5l1.8,2.5l1.8,2.6l1.7,2.7l1.7,2.6l1.7,2.6l1.6,2.8l1.5,2.6l1.6,2.8l1.5,2.8
				l1.4,2.9l1.5,2.8l1.4,2.8l1.4,2.8l1.4,2.9l1.3,2.9l2.6,5.7l2.5,5.7l2.5,5.8l2.4,5.8l2.4,5.8l1.2,3l1.2,2.9l1.2,3l1,3l1.1,3l1,2.9
				l1.1,3l1,3.1l0.9,3l0.9,3l0.8,3.1l0.8,3l0.8,3.1l0.7,3.1l0.8,3l0.6,3.1l0.6,3.1l0.5,3.1l0.5,3.2l0.5,3.1l0.5,3.1l0.4,3.2l0.4,3.1
				l0.3,3.2l0.3,2.8l0.3,3.2l0.3,3.1l0.2,3.2l0.2,3.2l0.2,3.2l0.1,3.1l0.2,3.2l0.1,3.2L373.8,696.3z"/>
			
				<linearGradient id="SVGID_00000033346512090222875650000014113548548808528011_" gradientUnits="userSpaceOnUse" x1="166.59" y1="43.8495" x2="166.59" y2="266.6" gradientTransform="matrix(1 0 0 -1 0 813.8898)">
				<stop  offset="0" style="stop-color:#F4F1E9"/>
				<stop  offset="0.12" style="stop-color:#EFE4BD"/>
				<stop  offset="0.28" style="stop-color:#E9D78E"/>
				<stop  offset="0.43" style="stop-color:#E4CB67"/>
				<stop  offset="0.58" style="stop-color:#E0C248"/>
				<stop  offset="0.73" style="stop-color:#DDBC33"/>
				<stop  offset="0.87" style="stop-color:#DCB825"/>
				<stop  offset="1" style="stop-color:#DBB721"/>
			</linearGradient>
			<path style="fill-rule:evenodd;clip-rule:evenodd;fill:url(#SVGID_00000033346512090222875650000014113548548808528011_);" d="
				M211.6,601.2l-1.2,4.7l-1.3,4.5L208,615l-1.1,4.6l-1,4.7l-1,4.5l-0.9,4.7l-0.9,4.7l-0.9,4.6l-0.7,4.8l-0.7,4.7l-0.6,4.7l-0.5,4.8
				l-0.5,4.7l-0.4,4.8l-0.3,4.6l-0.3,4.8l-0.1,4.8l-0.2,4.8l-0.1,4.7v4.8l-0.1,4.8v4.8l0.1,4.7l0.1,4.8l0.2,4.8l0.2,4.7l0.4,4.8
				l0.3,4.8l0.5,4.7l0.6,4.8l0.7,4.7l0.7,4.7l0.9,4.7l1.1,4.7l1.2,4.7l0.1,0.2h-52.5l-0.5-0.8l-2.3-4.2l-2.2-4.1l-2.2-4.2l-2-4.2
				l-2-4.3l-1.8-4.3l-1.7-4.4l-1.7-4.4l-1.5-4.5l-1.4-4.5l-1.3-4.5l-1.2-4.7l-1.2-4.5l-1.1-4.6l-0.8-4.7l-0.8-4.8l-0.8-4.7l-0.6-4.8
				l-0.6-4.7l-0.5-4.8l-0.5-4.6l-0.4-4.8l-0.3-4.8l-0.3-4.7l-0.2-4.8l-0.2-4.8l-0.1-4.8l-0.1-4.7v-4.8l0.1-4.8v-4.8l0.2-4.6l0.1-4.8
				l0.2-4.8l0.3-4.8l0.3-4.7l0.3-4.8l0.4-4.8l0.4-4.7l0.4-4.8l0.5-4.7l0.6-4.8l0.6-4.7l0.6-4.6l0.6-4.8l0.8-4.7l0.6-4.6l0.7-4.7
				C159,562,186.5,580.1,211.6,601.2z"/>
			
				<linearGradient id="SVGID_00000083053923441616513690000003149664639333663664_" gradientUnits="userSpaceOnUse" x1="423.43" y1="43.9198" x2="423.43" y2="266.5298" gradientTransform="matrix(1 0 0 -1 0 813.8898)">
				<stop  offset="0" style="stop-color:#F4F1E9"/>
				<stop  offset="0.12" style="stop-color:#EFE4BD"/>
				<stop  offset="0.28" style="stop-color:#E9D78E"/>
				<stop  offset="0.43" style="stop-color:#E4CB67"/>
				<stop  offset="0.58" style="stop-color:#E0C248"/>
				<stop  offset="0.73" style="stop-color:#DDBC33"/>
				<stop  offset="0.87" style="stop-color:#DCB825"/>
				<stop  offset="1" style="stop-color:#DBB721"/>
			</linearGradient>
			<path style="fill-rule:evenodd;clip-rule:evenodd;fill:url(#SVGID_00000083053923441616513690000003149664639333663664_);" d="
				M468.4,636.7l-0.1,4.8v4.7l-0.1,4.8l-0.4,9.5l-0.3,4.7l-0.3,4.8l-0.4,4.8l-0.5,4.6l-0.5,4.8l-0.6,4.7l-0.7,4.8l-0.7,4.7l-0.9,4.8
				l-1,4.7l-1,4.6l-1.2,4.5l-1.2,4.7l-1.3,4.5l-1.4,4.5l-1.6,4.5l-1.6,4.4l-1.6,4.4l-1.8,4.3l-2,4.3l-2,4.2l-2.2,4.2l-2.3,4.1
				l-2.4,4.1l-0.5,0.8h-52.4l0.1-0.2l1.2-4.7l1.1-4.7l1-4.7l0.7-4.7l0.8-4.7l0.6-4.8l0.4-4.7l0.4-4.8l0.3-4.8l0.3-4.7l0.2-4.8
				l0.1-4.8v-18.9l-0.1-4.7l-0.2-4.8l-0.2-4.8l-0.2-4.8l-0.3-4.6l-0.4-4.8l-0.5-4.7l-0.5-4.8l-0.6-4.7l-0.7-4.7l-0.8-4.8l-0.8-4.6
				l-1-4.7l-1-4.7l-1-4.5l-1-4.7l-1.1-4.6l-1-4.5l-1.3-4.5l-1.2-4.7c25.1-21.2,52.6-39.2,81.9-53.9l0.6,4.6l0.7,4.6l0.7,4.7l0.6,4.8
				l0.6,4.6l0.6,4.7l0.5,4.8l0.5,4.7l0.5,4.8l0.4,4.7l0.4,4.8l0.3,4.8l0.3,4.7l0.3,4.8l0.2,4.8l0.1,4.8l0.1,4.6l0.1,4.8L468.4,636.7
				z"/>
			
				<linearGradient id="SVGID_00000144333558578964054410000010125428329044149127_" gradientUnits="userSpaceOnUse" x1="523.0649" y1="43.8898" x2="523.0649" y2="240.6798" gradientTransform="matrix(1 0 0 -1 0 813.8898)">
				<stop  offset="0" style="stop-color:#F4F1E9"/>
				<stop  offset="0.12" style="stop-color:#EFE4BD"/>
				<stop  offset="0.28" style="stop-color:#E9D78E"/>
				<stop  offset="0.43" style="stop-color:#E4CB67"/>
				<stop  offset="0.58" style="stop-color:#E0C248"/>
				<stop  offset="0.73" style="stop-color:#DDBC33"/>
				<stop  offset="0.87" style="stop-color:#DCB825"/>
				<stop  offset="1" style="stop-color:#DBB721"/>
			</linearGradient>
			<path style="fill-rule:evenodd;clip-rule:evenodd;fill:url(#SVGID_00000144333558578964054410000010125428329044149127_);" d="
				M581.7,573.2l-0.3,4.8l-0.3,4.8l-0.3,4.6l-0.3,4.8l-0.3,4.8l-0.3,4.7l-0.4,4.8l-0.5,4.7l-0.5,4.8l-0.5,4.7l-0.6,4.8l-0.6,4.7
				l-0.6,4.7l-0.8,4.8l-0.7,4.7l-0.8,4.6l-0.8,4.7l-1.9,9.3l-1,4.5l-1.1,4.6l-1.2,4.7l-1.2,4.5l-1.2,4.5l-1.3,4.5l-1.4,4.5l-1.4,4.6
				l-1.5,4.6l-1.5,4.4l-1.7,4.5l-1.6,4.4l-1.8,4.5l-1.8,4.3l-1.9,4.4l-1.9,4.3l-2,4.2l-2.2,4.3l-2.2,4.1l-2.2,4.2l-2.4,4l-2.5,4
				l-2.6,4l-2.6,3.8l-2.1,2.8h-62.2l1.5-3.4l1.9-4.3l1.8-4.4l1.7-4.4l1.5-4.4l1.5-4.5l1.5-4.5l1.3-4.5l1.3-4.5l1.2-4.5l1.1-4.7
				l1-4.7l1.1-4.5l1-4.7l1-4.7l0.8-4.7l0.9-4.6l0.8-4.7l0.6-4.7l0.7-4.8l0.5-4.7l0.5-4.8l0.4-4.7l0.3-4.8l0.3-4.8l0.2-4.7l0.1-4.8
				l0.1-4.8l0.1-4.8v-4.6l-0.1-4.8l-0.1-4.8l-0.2-4.8l-0.2-4.7l-0.2-4.8C519.2,593.4,549.9,581.4,581.7,573.2z"/>
			
				<linearGradient id="SVGID_00000070086022291521056650000003559551949207903165_" gradientUnits="userSpaceOnUse" x1="71.925" y1="43.8898" x2="71.925" y2="240.6398" gradientTransform="matrix(1 0 0 -1 0 813.8898)">
				<stop  offset="0" style="stop-color:#F4F1E9"/>
				<stop  offset="0.12" style="stop-color:#EFE4BD"/>
				<stop  offset="0.28" style="stop-color:#E9D78E"/>
				<stop  offset="0.43" style="stop-color:#E4CB67"/>
				<stop  offset="0.58" style="stop-color:#E0C248"/>
				<stop  offset="0.73" style="stop-color:#DDBC33"/>
				<stop  offset="0.87" style="stop-color:#DCB825"/>
				<stop  offset="1" style="stop-color:#DBB721"/>
			</linearGradient>
			<path style="fill-rule:evenodd;clip-rule:evenodd;fill:url(#SVGID_00000070086022291521056650000003559551949207903165_);" d="
				M130.5,770H68.3l-2-2.8l-2.8-3.8l-2.5-4l-2.5-4l-2.4-4l-2.3-4.2l-2.2-4.1l-2.1-4.3l-2-4.2l-2-4.3l-1.9-4.4l-1.8-4.3l-1.7-4.5
				l-1.7-4.4l-1.6-4.5l-1.5-4.4l-1.5-4.6l-1.4-4.5l-1.3-4.6l-1.3-4.5l-1.3-4.5l-1.2-4.5l-1.1-4.7l-1.1-4.6l-1-4.5l-1.9-9.3l-0.9-4.7
				l-0.8-4.6l-0.7-4.7l-0.8-4.8l-0.7-4.7l-0.6-4.7l-0.5-4.8l-0.6-4.7l-0.5-4.8l-0.4-4.7l-0.4-4.8l-0.4-4.7l-0.6-9.5l-0.3-4.6
				l-0.2-4.8l-0.3-4.8c31.8,8.2,62.4,20.2,91.3,35.7l-0.2,4.8l-0.2,4.7l-0.1,4.8l-0.1,4.8l-0.1,4.8v9.3l0.1,4.8l0.2,4.8l0.2,4.7
				l0.3,4.8l0.3,4.8l0.4,4.7l0.5,4.8l0.5,4.7l0.6,4.8l0.8,4.7l0.8,4.7l0.8,4.6l0.8,4.7l1,4.7l0.9,4.7l1,4.5l1,4.7l1.2,4.7l1.2,4.5
				l1.3,4.5l1.3,4.5l1.4,4.5l1.5,4.5l1.6,4.4l1.7,4.4l1.7,4.4l1.9,4.3L130.5,770z"/>
		</g>
		<path class="st7" d="M244.8,721.8h6.2v2h-0.6c-0.1-0.3-0.1-0.5-0.2-0.8c-0.1-0.2-0.2-0.3-0.3-0.4c-0.1-0.1-0.2-0.2-0.3-0.2
			c-0.2,0-0.3-0.1-0.5-0.1h-0.7v5.8c0,0.2,0,0.4,0,0.5c0,0.1,0.1,0.2,0.1,0.3c0.1,0.1,0.1,0.1,0.2,0.2c0.1,0.1,0.3,0.1,0.4,0.1v0.3
			h-2.6v-0.3l0.3-0.1c0.1,0,0.1-0.1,0.2-0.1c0.1,0,0.1-0.1,0.1-0.2c0-0.1,0.1-0.2,0.1-0.3c0-0.2,0-0.3,0-0.5v-5.8h-0.7
			c-0.2,0-0.3,0-0.4,0c-0.1,0-0.2,0.1-0.3,0.2c-0.1,0.1-0.2,0.3-0.3,0.5c-0.1,0.2-0.2,0.5-0.2,0.8h-0.6L244.8,721.8z"/>
		<path class="st7" d="M258.1,728.1c0,0.2,0,0.4,0,0.5c0,0.1,0,0.2,0.1,0.3c0,0.1,0.1,0.1,0.1,0.2c0,0,0.1,0.1,0.2,0.1l0.3,0.1v0.3
			h-2.4v-0.3c0.2,0,0.3-0.1,0.4-0.2c0.1-0.1,0.2-0.2,0.2-0.3c0-0.2,0.1-0.4,0-0.7v-2.4h-3.2v2.4c0,0.2,0,0.4,0,0.6
			c0,0.1,0,0.2,0.1,0.3c0,0.1,0.1,0.1,0.2,0.2c0.1,0.1,0.2,0.1,0.4,0.1v0.3H252v-0.3c0.2,0,0.3-0.1,0.5-0.2c0.1-0.1,0.1-0.2,0.2-0.3
			c0-0.2,0-0.4,0-0.6v-4.9c0-0.2,0-0.4,0-0.6c0-0.1,0-0.2-0.1-0.3c0-0.1-0.1-0.1-0.2-0.2c-0.1-0.1-0.2-0.1-0.4-0.1v-0.3h2.4v0.3
			c-0.1,0-0.2,0.1-0.4,0.1c-0.1,0-0.1,0.1-0.2,0.2c0,0.1-0.1,0.2-0.1,0.3c0,0.2,0,0.4,0,0.6v2h3.2v-2c0-0.2,0-0.5,0-0.7
			c0-0.1-0.1-0.2-0.2-0.3c-0.1-0.1-0.3-0.1-0.5-0.2v-0.3h2.4v0.3c-0.2,0-0.3,0.1-0.5,0.2c-0.1,0.1-0.1,0.2-0.2,0.3
			c0,0.2,0,0.4,0,0.7L258.1,728.1z"/>
		<path class="st7" d="M265.5,721.8v1.7h-0.6c0-0.2-0.1-0.3-0.2-0.5c-0.1-0.1-0.1-0.3-0.2-0.4c-0.1-0.1-0.1-0.2-0.2-0.2
			c-0.1-0.1-0.2-0.1-0.3-0.1c-0.1,0-0.3,0-0.4,0h-1.8v3h1.2c0.1,0,0.3,0,0.4-0.1c0.1-0.1,0.2-0.1,0.2-0.2c0.1-0.2,0.1-0.4,0.2-0.5
			h0.5v2.2h-0.5c0-0.2-0.1-0.4-0.2-0.5c-0.1-0.1-0.1-0.2-0.2-0.2c-0.1-0.1-0.3-0.1-0.4-0.1h-1.2v3.3h1.8c0.2,0,0.3,0,0.5,0
			c0.1,0,0.2-0.1,0.3-0.2c0.1-0.1,0.2-0.2,0.2-0.3c0.1-0.1,0.1-0.3,0.2-0.4c0-0.1,0.1-0.3,0.2-0.6h0.6l-0.1,2h-5.3v-0.3
			c0.2,0,0.3-0.1,0.5-0.2c0.1-0.1,0.1-0.2,0.2-0.3c0-0.2,0-0.4,0-0.6v-5c0-0.2,0-0.4,0-0.6c0-0.1,0-0.2-0.1-0.3
			c0-0.1-0.1-0.1-0.2-0.2c-0.1-0.1-0.2-0.1-0.4-0.1v-0.3L265.5,721.8z"/>
		<path class="st7" d="M269.4,729.6v-0.3c0.1,0,0.3-0.1,0.4-0.1c0.1,0,0.2-0.1,0.2-0.2c0-0.1,0.1-0.2,0.1-0.3c0-0.2,0-0.4,0-0.6
			v-4.9c0-0.2,0-0.4,0-0.6c0-0.1,0-0.2-0.1-0.3c0-0.1-0.1-0.1-0.2-0.2c-0.1-0.1-0.2-0.1-0.4-0.1v-0.3h2.5c0.6,0,1.2,0.1,1.8,0.2
			c0.4,0.1,0.8,0.4,1.2,0.7c0.3,0.3,0.6,0.7,0.7,1.2c0.2,0.5,0.3,1.1,0.2,1.6c0,0.6-0.1,1.1-0.2,1.7c-0.1,0.4-0.3,0.9-0.6,1.2
			c-0.3,0.3-0.6,0.5-0.9,0.7c-0.3,0.2-0.7,0.3-1,0.3c-0.5,0.1-1,0.1-1.5,0.1L269.4,729.6z M271.1,729h0.7c0.3,0,0.6,0,0.9-0.1
			c0.2,0,0.5-0.1,0.7-0.2c0.2-0.1,0.4-0.3,0.6-0.5c0.2-0.2,0.3-0.4,0.4-0.7c0.1-0.3,0.2-0.6,0.2-0.9c0-0.4,0.1-0.7,0.1-1.1
			c0-0.7-0.1-1.3-0.3-1.9c-0.2-0.5-0.5-0.8-0.9-1.1c-0.4-0.2-0.9-0.4-1.5-0.3h-0.7V729z"/>
		<path class="st7" d="M282.5,721.8v1.7h-0.6c-0.1-0.2-0.1-0.3-0.2-0.5c-0.1-0.1-0.1-0.2-0.2-0.4c-0.1-0.1-0.1-0.2-0.2-0.2
			c-0.1-0.1-0.2-0.1-0.3-0.1c-0.1,0-0.3,0-0.4,0h-1.8v3h1.2c0.1,0,0.3,0,0.4-0.1c0.1-0.1,0.2-0.1,0.2-0.2c0.1-0.2,0.1-0.4,0.2-0.5
			h0.5v2.2h-0.5c0-0.2-0.1-0.4-0.2-0.5c-0.1-0.1-0.1-0.2-0.2-0.2c-0.1-0.1-0.3-0.1-0.4-0.1h-1.2v3.3h1.8c0.2,0,0.3,0,0.5,0
			c0.1,0,0.2-0.1,0.3-0.2c0.1-0.1,0.2-0.2,0.2-0.3c0.1-0.1,0.1-0.3,0.2-0.4l0.2-0.6h0.6l-0.1,2h-5.3v-0.3c0.2,0,0.3-0.1,0.5-0.2
			c0.1-0.1,0.1-0.2,0.2-0.3c0-0.2,0-0.4,0-0.6v-5c0-0.2,0-0.4,0-0.6c0-0.1,0-0.2-0.1-0.3c0-0.1-0.1-0.1-0.2-0.2
			c-0.1-0.1-0.2-0.1-0.4-0.1v-0.3L282.5,721.8z"/>
		<path class="st7" d="M285.6,729h1.5c0.1,0,0.3,0,0.4,0c0.1,0,0.2,0,0.3-0.1c0.1,0,0.2-0.1,0.2-0.2c0.1-0.1,0.1-0.2,0.2-0.3
			c0.1-0.1,0.1-0.3,0.2-0.4c0-0.2,0.1-0.4,0.2-0.8h0.6l-0.1,2.3h-5.1v-0.3c0.2,0,0.3-0.1,0.5-0.2c0.1-0.1,0.1-0.2,0.1-0.3
			c0-0.2,0-0.4,0-0.6v-4.9c0-0.2,0-0.4,0-0.6c0-0.1,0-0.2-0.1-0.3c0-0.1-0.1-0.1-0.2-0.2c-0.1-0.1-0.2-0.1-0.4-0.1v-0.3h2.4v0.3
			c-0.1,0-0.2,0.1-0.4,0.1c-0.1,0-0.1,0.1-0.2,0.1c-0.1,0.1-0.1,0.2-0.1,0.3c0,0.2,0,0.4,0,0.6L285.6,729z"/>
		<path class="st7" d="M296.1,728.1c0,0.2,0,0.4,0,0.5c0,0.1,0,0.2,0.1,0.3c0,0.1,0.1,0.1,0.1,0.2c0,0,0.1,0.1,0.2,0.1l0.3,0.1v0.3
			h-2.4v-0.3c0.2,0,0.3-0.1,0.4-0.2c0.1-0.1,0.2-0.2,0.2-0.3c0-0.2,0.1-0.4,0-0.7v-2.4h-3.2v2.4c0,0.2,0,0.4,0,0.6
			c0,0.1,0,0.2,0.1,0.3c0,0.1,0.1,0.1,0.2,0.2c0.1,0.1,0.2,0.1,0.4,0.1v0.3h-2.4v-0.3c0.2,0,0.3-0.1,0.5-0.2
			c0.1-0.1,0.1-0.2,0.2-0.3c0-0.2,0-0.4,0-0.6v-4.9c0-0.3,0-0.5,0-0.6c0-0.1,0-0.2-0.1-0.3c0-0.1-0.1-0.1-0.2-0.2
			c-0.1-0.1-0.2-0.1-0.4-0.1v-0.3h2.4v0.3c-0.1,0-0.2,0.1-0.4,0.1c-0.1,0-0.1,0.1-0.2,0.2c-0.1,0.1-0.1,0.2-0.1,0.3
			c0,0.2,0,0.4,0,0.6v2h3.2v-2c0-0.2,0-0.5,0-0.7c0-0.1-0.1-0.2-0.2-0.3c-0.1-0.1-0.3-0.1-0.5-0.2v-0.3h2.4v0.3
			c-0.2,0-0.3,0.1-0.5,0.2c-0.1,0.1-0.1,0.2-0.2,0.3c0,0.2-0.1,0.4,0,0.7L296.1,728.1z"/>
		<path class="st7" d="M299.9,728.1c0,0.2,0,0.4,0,0.6c0,0.1,0,0.2,0.1,0.3c0,0.1,0.1,0.1,0.2,0.2c0.1,0.1,0.2,0.1,0.4,0.1v0.3h-2.4
			v-0.3c0.2,0,0.3-0.1,0.5-0.2c0.1-0.1,0.1-0.2,0.1-0.3c0-0.2,0-0.4,0-0.6v-4.9c0-0.2,0-0.4,0-0.6c0-0.1,0-0.2-0.1-0.3
			c0-0.1-0.1-0.1-0.2-0.2c-0.1-0.1-0.2-0.1-0.4-0.1v-0.3h2.4v0.3c-0.1,0-0.2,0.1-0.4,0.1c-0.1,0-0.1,0.1-0.2,0.2
			c0,0.1-0.1,0.2-0.1,0.3c0,0.2,0,0.4,0,0.6L299.9,728.1z"/>
		<path class="st7" d="M306.3,729h1.5c0.1,0,0.3,0,0.4,0c0.1,0,0.2,0,0.3-0.1c0.1,0,0.2-0.1,0.2-0.2c0.1-0.1,0.1-0.2,0.2-0.3
			c0.1-0.1,0.1-0.3,0.2-0.4c0-0.2,0.1-0.4,0.2-0.8h0.6l-0.1,2.3h-5.1v-0.3c0.2,0,0.3-0.1,0.5-0.2c0.1-0.1,0.1-0.2,0.2-0.3
			c0-0.2,0-0.4,0-0.6v-4.9c0-0.2,0-0.4,0-0.6c0-0.1,0-0.2-0.1-0.3c0-0.1-0.1-0.1-0.2-0.2c-0.1-0.1-0.2-0.1-0.4-0.1v-0.3h2.4v0.3
			c-0.1,0-0.2,0.1-0.4,0.1c-0.1,0-0.1,0.1-0.2,0.1c-0.1,0.1-0.1,0.2-0.1,0.3c0,0.2,0,0.4,0,0.6L306.3,729z"/>
		<path class="st7" d="M313.8,729.7c-0.4,0-0.9-0.1-1.2-0.2c-0.4-0.1-0.7-0.4-1-0.7c-0.3-0.4-0.5-0.8-0.6-1.2
			c-0.2-0.6-0.2-1.2-0.2-1.8c0-0.7,0.1-1.5,0.4-2.2c0.2-0.6,0.6-1,1.1-1.4c0.5-0.3,1.1-0.5,1.7-0.5c0.6,0,1.2,0.1,1.7,0.5
			c0.5,0.3,0.8,0.8,1,1.3c0.3,0.7,0.4,1.4,0.4,2.1c0,0.8-0.1,1.5-0.4,2.3c-0.2,0.6-0.6,1-1.1,1.4
			C314.9,729.5,314.3,729.7,313.8,729.7z M311.9,725.6c-0.1,0.9,0.1,1.8,0.5,2.7c0.3,0.6,0.9,0.9,1.5,0.9c0.4,0,0.8-0.1,1.1-0.4
			c0.3-0.3,0.5-0.7,0.6-1.2c0.2-0.6,0.2-1.2,0.2-1.8c0-0.7-0.1-1.4-0.3-2.1c-0.1-0.5-0.4-0.9-0.7-1.2c-0.3-0.2-0.6-0.4-1-0.4
			c-0.3,0-0.6,0.1-0.9,0.2c-0.3,0.2-0.5,0.4-0.6,0.7c-0.2,0.3-0.3,0.7-0.4,1.1C311.9,724.6,311.9,725.1,311.9,725.6L311.9,725.6z"/>
		<path class="st7" d="M324.1,726.9c0,0.4,0,0.8-0.1,1.1c-0.1,0.3-0.2,0.5-0.3,0.8c-0.1,0.2-0.3,0.4-0.5,0.5
			c-0.2,0.1-0.5,0.3-0.7,0.3c-0.3,0.1-0.7,0.1-1,0.1c-0.4,0-0.8,0-1.2-0.2c-0.3-0.1-0.6-0.3-0.8-0.5c-0.2-0.2-0.4-0.5-0.5-0.8
			c-0.1-0.4-0.2-0.8-0.1-1.2v-3.8c0-0.2,0-0.4,0-0.6c0-0.1,0-0.2-0.1-0.2c0-0.1-0.1-0.1-0.2-0.2c-0.1-0.1-0.2-0.1-0.4-0.1v-0.3h2.4
			v0.3c-0.2,0-0.3,0.1-0.4,0.2c-0.1,0.1-0.2,0.2-0.2,0.3c0,0.2-0.1,0.4,0,0.7v4c0,0.3,0,0.6,0.1,0.9c0.1,0.2,0.2,0.4,0.3,0.6
			c0.1,0.1,0.3,0.2,0.5,0.3c0.2,0.1,0.5,0.1,0.7,0.1c0.2,0,0.5,0,0.7-0.1c0.2-0.1,0.4-0.2,0.5-0.4c0.1-0.2,0.2-0.4,0.3-0.7
			c0.1-0.4,0.1-0.7,0.1-1.1v-3.5c0-0.2,0-0.5,0-0.7c0-0.1-0.1-0.2-0.2-0.3c-0.1-0.1-0.3-0.2-0.5-0.2v-0.3h2.3v0.3
			c-0.2,0-0.3,0.1-0.5,0.2c-0.1,0.1-0.1,0.2-0.2,0.3c0,0.2-0.1,0.4,0,0.7L324.1,726.9z"/>
		<path class="st7" d="M330.5,726.5c0.1,0.2,0.2,0.4,0.4,0.6s0.2,0.4,0.3,0.6h0.1c0-0.2,0-0.7,0-1.4s0-1.3,0-1.9v-1.2
			c0-0.2,0-0.4,0-0.6c0-0.1,0-0.2-0.1-0.3c0-0.1-0.1-0.1-0.2-0.2c-0.1-0.1-0.2-0.1-0.4-0.1v-0.3h2v0.3c-0.1,0-0.2,0.1-0.4,0.1
			c-0.1,0-0.1,0.1-0.2,0.2c-0.1,0.1-0.1,0.2-0.1,0.3c0,0.2,0,0.4,0,0.6v6.4h-0.7l-3.3-5.3c-0.2-0.3-0.3-0.6-0.4-0.7
			c-0.1-0.2-0.2-0.3-0.2-0.5h-0.1c0,0.3,0,0.8,0,1.6s0,1.5,0,2.3v1.2c0,0.2,0,0.4,0,0.6c0,0.1,0,0.2,0.1,0.3c0,0.1,0.1,0.1,0.2,0.2
			c0.1,0.1,0.2,0.1,0.4,0.1v0.3h-2.1v-0.3c0.2,0,0.3-0.1,0.5-0.2c0.1-0.1,0.1-0.2,0.2-0.3c0-0.2,0-0.4,0-0.6v-4.9c0-0.2,0-0.4,0-0.6
			c0-0.1,0-0.2-0.1-0.3c0-0.1-0.1-0.1-0.2-0.2c-0.1-0.1-0.2-0.1-0.4-0.1v-0.3h1.8L330.5,726.5z"/>
		<path class="st7" d="M339.4,729.5l-0.5,0.1l-0.4-0.5c-0.2,0.2-0.5,0.3-0.8,0.3c-0.3,0.1-0.6,0.1-0.9,0.1c-0.8,0.1-1.7-0.3-2.2-1
			c-0.5-0.9-0.8-1.9-0.7-2.9c0-0.7,0.1-1.5,0.4-2.1c0.2-0.6,0.6-1.1,1.1-1.4c0.5-0.3,1.1-0.5,1.8-0.5c0.3,0,0.7,0,1,0.1
			c0.4,0,0.7,0.1,1.1,0.2v1.6h-0.6c-0.1-0.3-0.2-0.6-0.4-0.8c-0.1-0.2-0.3-0.3-0.5-0.4c-0.2-0.1-0.5-0.1-0.8-0.1
			c-0.4,0-0.8,0.1-1.1,0.4c-0.3,0.3-0.6,0.7-0.7,1.2c-0.2,0.6-0.3,1.3-0.3,1.9c0,0.6,0.1,1.3,0.2,1.9c0.1,0.5,0.3,0.9,0.7,1.2
			c0.3,0.3,0.7,0.4,1.1,0.4c0.4,0,0.7-0.1,1-0.3c0.2-0.2,0.4-0.6,0.3-0.9v-0.3c0-0.3,0-0.5-0.1-0.8c0-0.1-0.1-0.3-0.2-0.3
			c-0.1-0.1-0.3-0.2-0.5-0.2V726h2.3v0.3c-0.1,0-0.2,0.1-0.3,0.2c-0.1,0.1-0.1,0.1-0.2,0.2c0,0.1-0.1,0.2-0.1,0.3c0,0.2,0,0.4,0,0.5
			L339.4,729.5z"/>
		<path class="st7" d="M346.4,721.8v1.7h-0.6c0-0.2-0.1-0.3-0.2-0.5c-0.1-0.1-0.1-0.2-0.2-0.4c-0.1-0.1-0.1-0.2-0.2-0.2
			c-0.1-0.1-0.2-0.1-0.3-0.1c-0.1,0-0.3,0-0.4,0h-1.8v3h1.2c0.1,0,0.3,0,0.4-0.1c0.1-0.1,0.2-0.1,0.2-0.2c0.1-0.2,0.1-0.4,0.2-0.5
			h0.5v2.2h-0.5c0-0.2-0.1-0.4-0.2-0.5c-0.1-0.1-0.1-0.2-0.2-0.2c-0.1-0.1-0.3-0.1-0.4-0.1h-1.2v3.3h1.8c0.2,0,0.3-0.1,0.4-0.1
			c0.1,0,0.2-0.1,0.3-0.2c0.1-0.1,0.2-0.2,0.2-0.3c0.1-0.1,0.1-0.3,0.2-0.4l0.2-0.6h0.6l-0.1,2H341v-0.3c0.2,0,0.3-0.1,0.5-0.2
			c0.1-0.1,0.1-0.2,0.2-0.3c0-0.2,0-0.4,0-0.6v-4.9c0-0.3,0-0.5,0-0.6c0-0.1,0-0.2-0.1-0.3c0-0.1-0.1-0.1-0.2-0.2
			c-0.1-0.1-0.2-0.1-0.4-0.1v-0.3L346.4,721.8z"/>
		<path class="st7" d="M286.2,713.9C286.2,713.9,286.1,713.9,286.2,713.9c-0.1-0.1-0.1-0.1-0.1-0.2c2.7-2.2,6-3.4,9.5-3.4
			c3.5,0,6.8,1.2,9.5,3.4c0,0,0.1,0.1,0,0.2c0,0,0,0,0,0c-0.1,0-0.1,0-0.2,0C299.5,709.4,291.7,709.4,286.2,713.9L286.2,713.9z"/>
		<path class="st7" d="M286.2,714.2c-0.1,0-0.2-0.1-0.3-0.2c-0.1-0.1-0.1-0.2-0.1-0.3c0-0.1,0.1-0.2,0.1-0.3
			c5.6-4.6,13.7-4.6,19.4,0c0.2,0.1,0.2,0.4,0.1,0.6c-0.1,0.1-0.2,0.1-0.3,0.1c-0.1,0-0.2,0-0.3-0.1c-5.3-4.4-13-4.4-18.3,0
			C286.4,714.1,286.3,714.2,286.2,714.2z"/>
		<path class="st7" d="M346.2,717.3L346.2,717.3c-0.2,0-25.1-0.2-49.9-0.2c-9.5,0-17.7,0-24.6,0h-10c-13,0-16.1,0.2-16.4,0.2
			c0,0-0.1,0-0.2,0c0,0,0,0,0,0c0,0-0.1-0.1,0-0.2c0,0,0,0,0,0c0.1-0.1,0.3-0.2,16.2-0.3c8.4,0,20.1,0,34.7,0
			c24.9,0.1,50,0.2,50.3,0.2c0.1,0,0.1,0,0.1,0.1c0,0,0,0,0,0C346.3,717.2,346.2,717.3,346.2,717.3
			C346.2,717.3,346.2,717.3,346.2,717.3z"/>
		<path class="st7" d="M245.1,717.5c-0.1,0-0.2-0.1-0.3-0.1c-0.1-0.2-0.1-0.4,0.1-0.6c0.1-0.1,0.2-0.2,2.3-0.2
			c2.4-0.1,7.1-0.1,14-0.1c8.4,0,20.1,0,34.7,0c24.9,0.1,50,0.2,50.3,0.2c0.2,0,0.4,0.2,0.4,0.4c0,0,0,0,0,0c0,0.2-0.2,0.4-0.4,0.4
			l0,0c-0.3,0-25.2-0.2-49.9-0.2c-9.4,0-17.7,0-24.6,0h-10c-13.4,0-16,0.2-16.3,0.2l0,0C245.2,717.5,245.2,717.5,245.1,717.5z
			 M245.2,717.2l0.1,0.2L245.2,717.2z M245.2,717.2l0.1,0.2L245.2,717.2z M245.2,717.2L245.2,717.2z M245.2,717.2L245.2,717.2z"/>
		<path class="st7" d="M249.7,713.9c-2.5,0-4.4-2.1-4.4-4.5c0-2,1.6-3.6,3.6-3.6c1.6,0,2.9,1.3,2.9,2.9c0,0,0,0,0,0
			c0,1.3-1,2.4-2.3,2.4c0,0,0,0,0,0c-1,0-1.9-0.9-1.9-1.9c0,0,0,0,0,0c0-0.1,0.1-0.1,0.1-0.1c0.1,0,0.1,0.1,0.1,0.1
			c0,0.9,0.7,1.7,1.6,1.7c0,0,0,0,0,0c1.2,0,2.1-1,2.1-2.1c0-1.5-1.2-2.7-2.6-2.7c-1.8,0-3.3,1.5-3.3,3.4c0,2.3,1.8,4.2,4.1,4.3
			c0.1,0,0.1,0.1,0.1,0.1S249.8,713.9,249.7,713.9z"/>
		<path class="st7" d="M249.7,714.2c-2.6,0-4.7-2.2-4.7-4.8c0,0,0,0,0,0c0-2.1,1.7-3.9,3.8-3.9c1.8,0,3.2,1.5,3.1,3.2c0,0,0,0,0,0
			c0,1.4-1.1,2.6-2.6,2.6c0,0,0,0,0,0c-1.2,0-2.2-1-2.1-2.2c0,0,0,0,0,0c0-0.2,0.2-0.4,0.4-0.4h0c0.2,0,0.4,0.2,0.4,0.4c0,0,0,0,0,0
			c0,0.8,0.6,1.4,1.4,1.4c0,0,0,0,0,0c1,0,1.8-0.8,1.8-1.8c0-1.3-1-2.4-2.3-2.4c-1.7,0-3,1.4-3,3.1c0,2.2,1.7,4,3.9,4
			c0.2,0,0.4,0.2,0.4,0.4l0,0C250.1,714,249.9,714.2,249.7,714.2C249.7,714.2,249.7,714.2,249.7,714.2z"/>
		<path class="st7" d="M341.6,713.9c-0.1,0-0.1-0.1-0.1-0.1s0.1-0.1,0.1-0.1c2.3,0,4.2-1.9,4.1-4.3c0,0,0,0,0,0
			c0-1.8-1.4-3.3-3.3-3.4c-1.5,0-2.6,1.2-2.6,2.7c0,1.2,0.9,2.1,2.1,2.1c0,0,0,0,0,0c0.9,0,1.6-0.8,1.6-1.7c0-0.1,0.1-0.1,0.1-0.1
			s0.1,0.1,0.1,0.1c0,1-0.8,1.9-1.9,1.9c-1.3,0-2.3-1.1-2.3-2.4c0-1.6,1.3-2.9,2.9-2.9c2,0,3.6,1.7,3.5,3.6c0,0,0,0,0,0
			C346,711.9,344,713.9,341.6,713.9z"/>
		<path class="st7" d="M341.6,714.2c-0.2,0-0.4-0.2-0.4-0.4c0,0,0,0,0,0c0-0.2,0.2-0.4,0.4-0.4c0,0,0,0,0,0c2.2,0,3.9-1.8,3.9-4
			c0,0,0,0,0,0c0-1.7-1.3-3.1-3-3.1c-1.3,0-2.4,1.1-2.3,2.4c0,1,0.8,1.8,1.8,1.8c0,0,0,0,0,0c0.8,0,1.4-0.6,1.4-1.4
			c0-0.2,0.2-0.4,0.4-0.4c0.2,0,0.4,0.2,0.4,0.4c0,1.2-1,2.2-2.1,2.2c0,0,0,0,0,0c-1.4,0-2.6-1.2-2.6-2.6c0,0,0,0,0,0
			c0-1.8,1.4-3.2,3.1-3.2c2.1,0,3.8,1.8,3.8,3.9C346.3,712,344.2,714.2,341.6,714.2C341.6,714.2,341.6,714.2,341.6,714.2z"/>
		<path class="st7" d="M341.6,713.9h-92.1c-0.1,0-0.1-0.1-0.1-0.1s0.1-0.1,0.1-0.1h92.1c0.1,0,0.1,0.1,0.1,0.1
			S341.6,713.9,341.6,713.9z"/>
		<path class="st7" d="M341.6,714.2h-92.1c-0.2,0-0.4-0.2-0.4-0.4c0,0,0,0,0,0c0-0.2,0.2-0.4,0.4-0.4c0,0,0,0,0,0h92.1
			c0.2,0,0.4,0.2,0.4,0.4l0,0C342,714,341.8,714.2,341.6,714.2C341.6,714.2,341.6,714.2,341.6,714.2z"/>
		<path class="st7" d="M286.4,710.7c-1.4,0-2.5-1.1-2.5-2.5l0,0c0-1.7,1.3-3,3-3c2.1,0,3.8,1.7,3.8,3.8c0,0.1-0.1,0.1-0.1,0.1
			s-0.1-0.1-0.1-0.1c0-1.9-1.6-3.5-3.5-3.5c-1.5,0-2.8,1.2-2.8,2.8l0,0c0,1.2,1,2.2,2.2,2.2c0.9,0,1.7-0.8,1.7-1.7c0,0,0,0,0,0
			c0-0.8-0.6-1.4-1.4-1.4c-0.1,0-0.1-0.1-0.1-0.1s0.1-0.1,0.1-0.1l0,0c0.9,0,1.6,0.7,1.6,1.6C288.4,709.8,287.5,710.7,286.4,710.7z"
			/>
		<path class="st7" d="M286.4,711c-1.5,0-2.7-1.2-2.7-2.7c0-1.8,1.5-3.3,3.3-3.3c2.2,0,4,1.8,4,4c0,0.2-0.2,0.4-0.4,0.4
			c-0.2,0-0.4-0.2-0.4-0.4c0,0,0,0,0,0c0-1.8-1.5-3.2-3.2-3.2c-1.4,0-2.5,1.1-2.5,2.5l0,0c0,1.1,0.9,1.9,1.9,1.9
			c0.8,0,1.5-0.7,1.5-1.5c0-0.6-0.5-1.1-1.1-1.1c0,0,0,0,0,0c-0.2,0-0.4-0.2-0.4-0.4c0-0.2,0.2-0.4,0.4-0.4h0c1,0,1.9,0.8,1.9,1.9
			C288.6,710,287.7,711,286.4,711z"/>
		<path class="st7" d="M292.8,708.8c-0.8,0-1.6-0.3-2.2-0.9c-1.5-1.5-1.5-3.9,0-5.4c0,0,0,0,0,0c0.9-0.9,2.1-1.4,3.3-1.4
			c0.1,0,0.1,0.1,0.1,0.1s-0.1,0.1-0.1,0.1c-1.2,0-2.3,0.5-3.2,1.3c-1.4,1.4-1.4,3.6,0,5c1.1,1.1,2.9,1.1,4,0c0,0,0,0,0,0
			c0.9-0.9,0.9-2.3,0-3.2c-0.7-0.7-1.8-0.7-2.5,0c0,0,0,0,0,0c-0.1,0-0.1,0-0.2,0c0-0.1,0-0.1,0-0.2c0.8-0.8,2-0.8,2.8,0
			c0,0,0,0,0,0c1,1,1,2.5,0,3.5c0,0,0,0,0,0C294.4,708.5,293.6,708.8,292.8,708.8z"/>
		<path class="st7" d="M292.8,709.1c-0.9,0-1.7-0.4-2.4-1c-1.6-1.6-1.6-4.2,0-5.8c0,0,0,0,0,0c0.9-0.9,2.2-1.5,3.5-1.5
			c0.2,0,0.4,0.2,0.4,0.4l0,0c0,0.2-0.2,0.4-0.4,0.4c0,0,0,0,0,0c-1.1,0-2.2,0.4-3,1.2c-1.3,1.3-1.3,3.4,0,4.6c0,0,0,0,0,0
			c0.5,0.5,1.1,0.7,1.8,0.7l0,0c0.7,0,1.3-0.3,1.8-0.7c0.7-0.8,0.7-2,0-2.8c-0.3-0.3-0.7-0.4-1-0.4c-0.4,0-0.7,0.2-1,0.4
			c-0.1,0.1-0.2,0.1-0.3,0.1c-0.1,0-0.2,0-0.3-0.1c-0.2-0.2-0.2-0.4,0-0.6c0.4-0.4,1-0.7,1.6-0.7c0.6,0,1.2,0.2,1.6,0.7
			c1.1,1.1,1.1,2.8,0,3.9c0,0,0,0,0,0C294.5,708.7,293.7,709.1,292.8,709.1z"/>
		<path class="st7" d="M304.8,710.5c-1.1,0-2-0.9-2-2c0-0.9,0.7-1.6,1.6-1.6c0.1,0,0.1,0,0.1,0.1c0,0,0,0,0,0c0,0.1-0.1,0.1-0.1,0.1
			l0,0c-0.8,0-1.4,0.6-1.4,1.4c0,1,0.8,1.7,1.7,1.7c1.2,0,2.2-1,2.2-2.2l0,0c0-1.5-1.2-2.8-2.8-2.8c-1.9,0-3.5,1.6-3.5,3.5
			c0,0.1-0.1,0.1-0.1,0.1s-0.1-0.1-0.1-0.1c0-2.1,1.7-3.8,3.8-3.8c1.7,0,3,1.3,3,3C307.3,709.4,306.2,710.5,304.8,710.5z"/>
		<path class="st7" d="M304.8,710.8c-1.2,0-2.3-1-2.2-2.3c0-1,0.8-1.9,1.9-1.9l0,0c0.2,0,0.4,0.1,0.5,0.3c0,0.2-0.1,0.4-0.3,0.5
			c0,0-0.1,0-0.1,0c-0.6,0-1.1,0.5-1.1,1.1l0,0c0,0.8,0.7,1.5,1.5,1.5c1.1,0,1.9-0.9,1.9-1.9c0-1.4-1.1-2.5-2.5-2.5c0,0,0,0,0,0
			c-1.8,0-3.2,1.4-3.2,3.2c0,0.2-0.2,0.4-0.4,0.4c0,0,0,0,0,0c-0.2,0-0.4-0.2-0.4-0.4l0,0c0-2.2,1.8-4,4-4c1.8,0,3.3,1.5,3.3,3.3
			C307.5,709.6,306.3,710.8,304.8,710.8z"/>
		<path class="st7" d="M298.3,708.8c-0.8,0-1.6-0.3-2.2-0.9c-1-1-1-2.5,0-3.5c0.8-0.8,2-0.8,2.8,0c0,0,0,0,0,0c0,0.1,0,0.1,0,0.2
			c0,0-0.1,0-0.1,0c-0.7-0.7-1.8-0.7-2.5,0c0,0,0,0,0,0c-0.9,0.9-0.9,2.3,0,3.1c0,0,0,0,0,0c0.5,0.5,1.2,0.8,2,0.8
			c0.7,0,1.5-0.3,2-0.8c1.4-1.4,1.4-3.6,0-5c-0.8-0.8-1.9-1.3-3-1.3c-0.1,0-0.1-0.1-0.1-0.1c0,0,0,0,0,0c0-0.1,0.1-0.1,0.1-0.1l0,0
			c1.2,0.1,2.3,0.6,3.1,1.4c1.5,1.5,1.5,3.9,0,5.4C299.9,708.5,299.1,708.8,298.3,708.8z"/>
		<path class="st7" d="M298.3,709.1c-0.9,0-1.7-0.4-2.4-1c-1.1-1.1-1.1-2.8,0-3.9c0.4-0.4,1-0.7,1.6-0.7c0.6,0,1.2,0.2,1.6,0.7
			c0.2,0.2,0.2,0.4,0,0.6c-0.1,0.1-0.2,0.1-0.3,0.1l0,0c-0.1,0-0.2,0-0.3-0.1c-0.3-0.3-0.7-0.4-1-0.4c-0.4,0-0.8,0.2-1,0.4
			c-0.8,0.8-0.8,2,0,2.7c0,0,0,0,0,0c1,1,2.6,1,3.6,0c1.3-1.3,1.3-3.4,0-4.6c0,0,0,0,0,0c-0.7-0.7-1.7-1.2-2.8-1.2
			c-0.1,0-0.2-0.1-0.3-0.1c-0.1-0.1-0.1-0.2-0.1-0.3c0-0.1,0.1-0.2,0.1-0.3c0.1-0.1,0.2-0.1,0.3-0.1c1.2,0.1,2.4,0.6,3.3,1.5
			c1.6,1.6,1.6,4.2,0,5.8C300,708.7,299.2,709.1,298.3,709.1z"/>
		<path class="st7" d="M295.5,705.8l-0.1-0.4c-0.6-1.6-1-3.2-1.4-4.8c0-0.8,0.7-1.5,1.5-1.5s1.5,0.7,1.5,1.5
			c-0.4,1.6-0.8,3.2-1.4,4.8L295.5,705.8z M295.5,699.4c-0.7,0-1.2,0.5-1.2,1.2c0.3,1.5,0.7,2.9,1.2,4.3c0.5-1.4,0.9-2.9,1.2-4.3
			C296.8,699.9,296.2,699.4,295.5,699.4z"/>
		<path class="st7" d="M295.5,706.6l-0.4-1.1c-0.6-1.6-1-3.2-1.4-4.9c0.1-1,0.9-1.7,1.9-1.6c0.9,0.1,1.6,0.8,1.6,1.6
			c-0.3,1.7-0.8,3.3-1.4,4.9L295.5,706.6z M295.5,699.7c-0.6,0-1,0.4-1,1c0.2,1.2,0.6,2.4,1,3.5c0.4-1.1,0.8-2.3,1-3.5
			C296.5,700.1,296.1,699.7,295.5,699.7z"/>
		<path class="st7" d="M282.8,711h-28.6c-0.1,0-0.1-0.1-0.1-0.1s0.1-0.1,0.1-0.1l0,0h28.6c0.1,0,0.1,0.1,0.1,0.1
			S282.8,711,282.8,711z"/>
		<path class="st7" d="M282.8,711.3h-28.6c-0.2,0-0.4-0.2-0.4-0.4c0-0.2,0.2-0.4,0.4-0.4c0,0,0,0,0,0h28.6c0.2,0,0.4,0.2,0.4,0.4
			C283.2,711.1,283,711.3,282.8,711.3C282.8,711.3,282.8,711.3,282.8,711.3z"/>
		<path class="st7" d="M337.1,711h-29.3c-0.1,0-0.1-0.1-0.1-0.1s0.1-0.1,0.1-0.1h29.3c0.1,0,0.1,0.1,0.1,0.1S337.2,711,337.1,711z"
			/>
		<path class="st7" d="M337.1,711.3h-29.3c-0.2,0-0.4-0.2-0.4-0.4c0-0.2,0.2-0.4,0.4-0.4h29.3c0.2,0,0.4,0.2,0.4,0.4
			C337.5,711.1,337.3,711.3,337.1,711.3z"/>
		<path class="st7" d="M271.6,734.5h-10.4c-15.9,0-16.1-0.2-16.2-0.3c0,0-0.1-0.1,0-0.2c0,0,0,0,0,0c0.1,0,0.1,0,0.2,0
			c0.3,0.1,3.4,0.2,16.4,0.2c8.5,0,20.1,0,34.7,0c24.8-0.1,49.7-0.2,49.9-0.2l0,0c0.1,0,0.1,0.1,0.1,0.1c0,0.1,0,0.1-0.1,0.1
			c0,0,0,0,0,0c-0.2,0-25.4,0.2-50.3,0.2C286.6,734.5,278.5,734.5,271.6,734.5z"/>
		<path class="st7" d="M271.6,734.8h-10.4c-6.9,0-11.6-0.1-14-0.1c-2.1-0.1-2.2-0.1-2.3-0.2c-0.2-0.1-0.2-0.4-0.1-0.6
			c0.1-0.1,0.3-0.2,0.4-0.1h0.1l0,0c0.5,0.1,3.3,0.2,16.3,0.2c8.5,0,20.1,0,34.7,0c24.7-0.1,49.7-0.2,49.9-0.2
			c0.2,0,0.4,0.2,0.3,0.5c0,0.2-0.2,0.3-0.3,0.3c-0.2,0-25.3,0.2-50.3,0.2C286.6,734.8,278.5,734.8,271.6,734.8z"/>
		<path class="st7" d="M253.7,745.5c-2.1,0-3.8-1.7-3.8-3.8c0-2.6,2.1-4.7,4.7-4.7c0.1,0,0.1,0.1,0.1,0.1s-0.1,0.1-0.1,0.1
			c-2.5,0-4.5,2-4.5,4.5c0,2,1.6,3.6,3.5,3.6c0,0,0,0,0,0c1.6,0,2.8-1.3,2.8-2.8l0,0c0-1.2-1-2.2-2.2-2.2c-1,0-1.8,0.8-1.8,1.8l0,0
			c0,0.1-0.1,0.1-0.1,0.1c-0.1,0-0.1-0.1-0.1-0.1c0-1.1,0.9-2,2-2c1.4,0,2.5,1.1,2.5,2.5C256.8,744.2,255.4,745.5,253.7,745.5z"/>
		<path class="st7" d="M253.7,745.8c-2.3,0-4.1-1.8-4.1-4.1l0,0c0-2.8,2.2-5,5-5c0.2,0,0.4,0.2,0.4,0.4l0,0c0,0.2-0.2,0.4-0.4,0.4
			c0,0,0,0,0,0c-2.3,0-4.2,1.9-4.2,4.2c0,1.8,1.5,3.3,3.3,3.3c1.4,0,2.6-1.1,2.6-2.6c0-1.1-0.9-2-2-2c-0.8,0-1.5,0.7-1.5,1.5
			c0,0.2-0.2,0.4-0.4,0.4c-0.2,0-0.4-0.2-0.4-0.4c0-1.3,1-2.3,2.3-2.3c1.5,0,2.8,1.2,2.8,2.8C257.1,744.3,255.6,745.8,253.7,745.8z"
			/>
		<path class="st7" d="M337.5,745.5c-1.7,0-3.1-1.4-3.1-3.1c0-1.4,1.1-2.5,2.5-2.5c1.1,0,2,0.9,2,2c0,0.1,0,0.1-0.1,0.1c0,0,0,0,0,0
			c-0.1,0-0.1-0.1-0.1-0.1l0,0c0-1-0.8-1.8-1.8-1.8c0,0,0,0,0,0c-1.2,0-2.2,1-2.2,2.2c0,1.6,1.3,2.8,2.8,2.8l0,0
			c2,0,3.6-1.6,3.6-3.6c0-2.5-2-4.5-4.5-4.5c-0.1,0-0.1-0.1-0.1-0.1s0.1-0.1,0.1-0.1c2.6,0,4.7,2.1,4.8,4.7
			C341.4,743.8,339.7,745.5,337.5,745.5z"/>
		<path class="st7" d="M337.5,745.8c-1.9,0-3.4-1.5-3.4-3.3c0-1.5,1.2-2.8,2.8-2.8c1.3,0,2.3,1,2.3,2.3c0,0.2-0.1,0.4-0.3,0.5
			c-0.2,0-0.4-0.1-0.5-0.3c0,0,0-0.1,0-0.1c0-0.8-0.7-1.5-1.5-1.5c-1.1,0-2,0.9-2,2c0,1.4,1.1,2.6,2.6,2.6c1.8,0,3.3-1.5,3.3-3.3
			c0-2.3-1.9-4.2-4.2-4.2c-0.2,0-0.4-0.2-0.4-0.4c0,0,0,0,0,0c0-0.2,0.2-0.4,0.4-0.4c0,0,0,0,0,0c2.8,0,5,2.2,5,5
			C341.6,744,339.8,745.8,337.5,745.8z"/>
		<path class="st7" d="M336.7,737.2h-82.1c-0.1,0-0.1-0.1-0.1-0.1s0.1-0.1,0.1-0.1h82.1c0.1,0,0.1,0.1,0.1,0.1
			S336.8,737.2,336.7,737.2z"/>
		<path class="st7" d="M336.7,737.5h-82.1c-0.2,0-0.4-0.2-0.4-0.4c0,0,0,0,0,0c0-0.2,0.2-0.4,0.4-0.4h0h82.1c0.2,0,0.4,0.2,0.4,0.4
			l0,0C337.1,737.3,336.9,737.5,336.7,737.5C336.7,737.5,336.7,737.5,336.7,737.5z"/>
		<path class="st7" d="M318.1,740.6h-45c-0.1,0-0.1-0.1-0.1-0.1s0.1-0.1,0.1-0.1h45c0.1,0,0.1,0.1,0.1,0.1S318.2,740.6,318.1,740.6z
			"/>
		<path class="st7" d="M318.1,740.9h-45c-0.2,0-0.4-0.2-0.4-0.4c0-0.2,0.2-0.4,0.4-0.4h0h45c0.2,0,0.4,0.2,0.4,0.4c0,0,0,0,0,0
			C318.5,740.7,318.4,740.9,318.1,740.9C318.1,740.9,318.1,740.9,318.1,740.9z"/>
	</g>
</g>
</svg>
